<?xml version="1.0" encoding="utf-8" standalone="no"?>
<!DOCTYPE svg PUBLIC "-//W3C//DTD SVG 1.1//EN"
  "http://www.w3.org/Graphics/SVG/1.1/DTD/svg11.dtd">
<svg height="315.888719pt" version="1.1" viewBox="0 0 430.381098 315.888719" width="430.381098pt" xmlns="http://www.w3.org/2000/svg" xmlns:xlink="http://www.w3.org/1999/xlink">
 <metadata>
  <rdf:RDF xmlns:cc="http://creativecommons.org/ns#" xmlns:dc="http://purl.org/dc/elements/1.1/" xmlns:rdf="http://www.w3.org/1999/02/22-rdf-syntax-ns#">
   <cc:Work>
    <dc:type rdf:resource="http://purl.org/dc/dcmitype/StillImage"/>
    <dc:date>2022-05-15T21:47:18.365928</dc:date>
    <dc:format>image/svg+xml</dc:format>
    <dc:creator>
     <cc:Agent>
      <dc:title>Matplotlib v3.4.2, https://matplotlib.org/</dc:title>
     </cc:Agent>
    </dc:creator>
   </cc:Work>
  </rdf:RDF>
 </metadata>
 <defs>
  <style type="text/css">*{stroke-linecap:butt;stroke-linejoin:round;}</style>
 </defs>
 <g id="figure_1">
  <g id="patch_1">
   <path d="M 0 315.888719 
L 430.381098 315.888719 
L 430.381098 0 
L 0 0 
z
" style="fill:#ffffff;"/>
  </g>
  <g id="axes_1">
   <g id="patch_2">
    <path d="M 57.7275 277.111219 
L 414.8475 277.111219 
L 414.8475 10.999219 
L 57.7275 10.999219 
z
" style="fill:#ffffff;"/>
   </g>
   <g id="PolyCollection_1">
    <defs>
     <path d="M 73.960227 -304.8895 
L 73.960227 -304.8895 
L 84.809865 -290.6335 
L 96.49409 -293.4847 
L 107.343728 -295.270994 
L 118.193366 -279.9415 
L 129.877591 -278.2783 
L 140.727229 -277.578457 
L 152.411454 -283.522843 
L 163.261092 -276.763055 
L 174.11073 -278.768077 
L 185.794955 -277.827263 
L 196.644593 -279.678889 
L 208.328818 -282.185027 
L 219.178456 -279.136726 
L 230.028094 -279.435309 
L 241.712319 -280.638334 
L 252.561957 -280.874619 
L 264.246182 -282.11524 
L 275.09582 -283.157724 
L 285.945457 -280.6975 
L 297.629683 -281.786529 
L 308.479321 -282.7135 
L 320.163546 -282.562153 
L 331.013184 -281.783074 
L 341.862821 -282.798556 
L 353.547047 -283.7695 
L 364.396684 -283.981568 
L 376.08091 -285.1775 
L 386.930547 -285.33208 
L 398.614773 -285.965886 
L 398.614773 -292.397114 
L 398.614773 -292.397114 
L 386.930547 -291.978709 
L 376.08091 -291.748167 
L 364.396684 -291.087171 
L 353.547047 -290.8095 
L 341.862821 -289.695521 
L 331.013184 -290.088233 
L 320.163546 -289.425794 
L 308.479321 -289.284167 
L 297.629683 -288.631854 
L 285.945457 -287.8655 
L 275.09582 -288.203699 
L 264.246182 -287.403273 
L 252.561957 -286.450716 
L 241.712319 -285.515748 
L 230.028094 -286.377361 
L 219.178456 -288.947306 
L 208.328818 -292.373268 
L 196.644593 -285.281247 
L 185.794955 -283.841093 
L 174.11073 -283.665844 
L 163.261092 -288.663945 
L 152.411454 -299.06223 
L 140.727229 -299.74786 
L 129.877591 -297.6319 
L 118.193366 -313.2055 
L 107.343728 -308.095669 
L 96.49409 -308.6911 
L 84.809865 -309.6415 
L 73.960227 -304.8895 
z
" id="m5a132e318e" style="stroke:#0000ff;stroke-opacity:0.2;"/>
    </defs>
    <g clip-path="url(#pc56e8badbc)">
     <use style="fill:#0000ff;fill-opacity:0.2;stroke:#0000ff;stroke-opacity:0.2;" x="0" xlink:href="#m5a132e318e" y="315.888719"/>
    </g>
   </g>
   <g id="PolyCollection_2">
    <defs>
     <path d="M 73.960227 -289.225903 
L 73.960227 -193.041097 
L 84.809865 -193.321831 
L 96.49409 -199.5535 
L 107.343728 -206.75732 
L 118.193366 -211.298313 
L 129.877591 -211.298313 
L 140.727229 -211.298313 
L 152.411454 -211.298313 
L 163.261092 -217.237476 
L 174.11073 -204.181901 
L 185.794955 -227.644757 
L 196.644593 -229.041228 
L 208.328818 -240.560928 
L 219.178456 -239.298703 
L 230.028094 -239.298703 
L 241.712319 -249.4495 
L 252.561957 -255.69768 
L 264.246182 -255.69768 
L 275.09582 -255.69768 
L 285.945457 -255.69768 
L 297.629683 -256.915539 
L 308.479321 -255.69768 
L 320.163546 -254.9935 
L 331.013184 -254.9935 
L 341.862821 -256.915539 
L 353.547047 -256.915539 
L 364.396684 -256.915539 
L 376.08091 -258.547764 
L 386.930547 -258.547764 
L 398.614773 -258.547764 
L 398.614773 -306.879236 
L 398.614773 -306.879236 
L 386.930547 -306.879236 
L 376.08091 -306.879236 
L 364.396684 -302.967461 
L 353.547047 -302.967461 
L 341.862821 -302.967461 
L 331.013184 -293.8015 
L 320.163546 -293.8015 
L 308.479321 -298.64132 
L 297.629683 -302.967461 
L 285.945457 -298.64132 
L 275.09582 -298.64132 
L 264.246182 -298.64132 
L 252.561957 -298.64132 
L 241.712319 -304.8895 
L 230.028094 -303.952297 
L 219.178456 -303.952297 
L 208.328818 -308.234072 
L 196.644593 -314.209772 
L 185.794955 -310.062243 
L 174.11073 -305.805099 
L 163.261092 -303.837524 
L 152.411454 -304.232687 
L 140.727229 -304.232687 
L 129.877591 -304.232687 
L 118.193366 -304.232687 
L 107.343728 -297.68568 
L 96.49409 -288.2575 
L 84.809865 -283.401169 
L 73.960227 -289.225903 
z
" id="m1343aeed01" style="stroke:#008000;stroke-opacity:0.2;"/>
    </defs>
    <g clip-path="url(#pc56e8badbc)">
     <use style="fill:#008000;fill-opacity:0.2;stroke:#008000;stroke-opacity:0.2;" x="0" xlink:href="#m1343aeed01" y="315.888719"/>
    </g>
   </g>
   <g id="matplotlib.axis_1">
    <g id="xtick_1">
     <g id="line2d_1">
      <defs>
       <path d="M 0 0 
L 0 3.5 
" id="m214ae0b4d2" style="stroke:#000000;stroke-width:0.8;"/>
      </defs>
      <g>
       <use style="stroke:#000000;stroke-width:0.8;" x="79.80234" xlink:href="#m214ae0b4d2" y="277.111219"/>
      </g>
     </g>
     <g id="text_1">
      <!-- 50 -->
      <g transform="translate(73.43984 291.709656)scale(0.1 -0.1)">
       <defs>
        <path d="M 691 4666 
L 3169 4666 
L 3169 4134 
L 1269 4134 
L 1269 2991 
Q 1406 3038 1543 3061 
Q 1681 3084 1819 3084 
Q 2600 3084 3056 2656 
Q 3513 2228 3513 1497 
Q 3513 744 3044 326 
Q 2575 -91 1722 -91 
Q 1428 -91 1123 -41 
Q 819 9 494 109 
L 494 744 
Q 775 591 1075 516 
Q 1375 441 1709 441 
Q 2250 441 2565 725 
Q 2881 1009 2881 1497 
Q 2881 1984 2565 2268 
Q 2250 2553 1709 2553 
Q 1456 2553 1204 2497 
Q 953 2441 691 2322 
L 691 4666 
z
" id="DejaVuSans-35" transform="scale(0.015625)"/>
        <path d="M 2034 4250 
Q 1547 4250 1301 3770 
Q 1056 3291 1056 2328 
Q 1056 1369 1301 889 
Q 1547 409 2034 409 
Q 2525 409 2770 889 
Q 3016 1369 3016 2328 
Q 3016 3291 2770 3770 
Q 2525 4250 2034 4250 
z
M 2034 4750 
Q 2819 4750 3233 4129 
Q 3647 3509 3647 2328 
Q 3647 1150 3233 529 
Q 2819 -91 2034 -91 
Q 1250 -91 836 529 
Q 422 1150 422 2328 
Q 422 3509 836 4129 
Q 1250 4750 2034 4750 
z
" id="DejaVuSans-30" transform="scale(0.015625)"/>
       </defs>
       <use xlink:href="#DejaVuSans-35"/>
       <use x="63.623047" xlink:href="#DejaVuSans-30"/>
      </g>
     </g>
    </g>
    <g id="xtick_2">
     <g id="line2d_2">
      <g>
       <use style="stroke:#000000;stroke-width:0.8;" x="121.531716" xlink:href="#m214ae0b4d2" y="277.111219"/>
      </g>
     </g>
     <g id="text_2">
      <!-- 100 -->
      <g transform="translate(111.987966 291.709656)scale(0.1 -0.1)">
       <defs>
        <path d="M 794 531 
L 1825 531 
L 1825 4091 
L 703 3866 
L 703 4441 
L 1819 4666 
L 2450 4666 
L 2450 531 
L 3481 531 
L 3481 0 
L 794 0 
L 794 531 
z
" id="DejaVuSans-31" transform="scale(0.015625)"/>
       </defs>
       <use xlink:href="#DejaVuSans-31"/>
       <use x="63.623047" xlink:href="#DejaVuSans-30"/>
       <use x="127.246094" xlink:href="#DejaVuSans-30"/>
      </g>
     </g>
    </g>
    <g id="xtick_3">
     <g id="line2d_3">
      <g>
       <use style="stroke:#000000;stroke-width:0.8;" x="163.261092" xlink:href="#m214ae0b4d2" y="277.111219"/>
      </g>
     </g>
     <g id="text_3">
      <!-- 150 -->
      <g transform="translate(153.717342 291.709656)scale(0.1 -0.1)">
       <use xlink:href="#DejaVuSans-31"/>
       <use x="63.623047" xlink:href="#DejaVuSans-35"/>
       <use x="127.246094" xlink:href="#DejaVuSans-30"/>
      </g>
     </g>
    </g>
    <g id="xtick_4">
     <g id="line2d_4">
      <g>
       <use style="stroke:#000000;stroke-width:0.8;" x="204.990468" xlink:href="#m214ae0b4d2" y="277.111219"/>
      </g>
     </g>
     <g id="text_4">
      <!-- 200 -->
      <g transform="translate(195.446718 291.709656)scale(0.1 -0.1)">
       <defs>
        <path d="M 1228 531 
L 3431 531 
L 3431 0 
L 469 0 
L 469 531 
Q 828 903 1448 1529 
Q 2069 2156 2228 2338 
Q 2531 2678 2651 2914 
Q 2772 3150 2772 3378 
Q 2772 3750 2511 3984 
Q 2250 4219 1831 4219 
Q 1534 4219 1204 4116 
Q 875 4013 500 3803 
L 500 4441 
Q 881 4594 1212 4672 
Q 1544 4750 1819 4750 
Q 2544 4750 2975 4387 
Q 3406 4025 3406 3419 
Q 3406 3131 3298 2873 
Q 3191 2616 2906 2266 
Q 2828 2175 2409 1742 
Q 1991 1309 1228 531 
z
" id="DejaVuSans-32" transform="scale(0.015625)"/>
       </defs>
       <use xlink:href="#DejaVuSans-32"/>
       <use x="63.623047" xlink:href="#DejaVuSans-30"/>
       <use x="127.246094" xlink:href="#DejaVuSans-30"/>
      </g>
     </g>
    </g>
    <g id="xtick_5">
     <g id="line2d_5">
      <g>
       <use style="stroke:#000000;stroke-width:0.8;" x="246.719844" xlink:href="#m214ae0b4d2" y="277.111219"/>
      </g>
     </g>
     <g id="text_5">
      <!-- 250 -->
      <g transform="translate(237.176094 291.709656)scale(0.1 -0.1)">
       <use xlink:href="#DejaVuSans-32"/>
       <use x="63.623047" xlink:href="#DejaVuSans-35"/>
       <use x="127.246094" xlink:href="#DejaVuSans-30"/>
      </g>
     </g>
    </g>
    <g id="xtick_6">
     <g id="line2d_6">
      <g>
       <use style="stroke:#000000;stroke-width:0.8;" x="288.44922" xlink:href="#m214ae0b4d2" y="277.111219"/>
      </g>
     </g>
     <g id="text_6">
      <!-- 300 -->
      <g transform="translate(278.90547 291.709656)scale(0.1 -0.1)">
       <defs>
        <path d="M 2597 2516 
Q 3050 2419 3304 2112 
Q 3559 1806 3559 1356 
Q 3559 666 3084 287 
Q 2609 -91 1734 -91 
Q 1441 -91 1130 -33 
Q 819 25 488 141 
L 488 750 
Q 750 597 1062 519 
Q 1375 441 1716 441 
Q 2309 441 2620 675 
Q 2931 909 2931 1356 
Q 2931 1769 2642 2001 
Q 2353 2234 1838 2234 
L 1294 2234 
L 1294 2753 
L 1863 2753 
Q 2328 2753 2575 2939 
Q 2822 3125 2822 3475 
Q 2822 3834 2567 4026 
Q 2313 4219 1838 4219 
Q 1578 4219 1281 4162 
Q 984 4106 628 3988 
L 628 4550 
Q 988 4650 1302 4700 
Q 1616 4750 1894 4750 
Q 2613 4750 3031 4423 
Q 3450 4097 3450 3541 
Q 3450 3153 3228 2886 
Q 3006 2619 2597 2516 
z
" id="DejaVuSans-33" transform="scale(0.015625)"/>
       </defs>
       <use xlink:href="#DejaVuSans-33"/>
       <use x="63.623047" xlink:href="#DejaVuSans-30"/>
       <use x="127.246094" xlink:href="#DejaVuSans-30"/>
      </g>
     </g>
    </g>
    <g id="xtick_7">
     <g id="line2d_7">
      <g>
       <use style="stroke:#000000;stroke-width:0.8;" x="330.178596" xlink:href="#m214ae0b4d2" y="277.111219"/>
      </g>
     </g>
     <g id="text_7">
      <!-- 350 -->
      <g transform="translate(320.634846 291.709656)scale(0.1 -0.1)">
       <use xlink:href="#DejaVuSans-33"/>
       <use x="63.623047" xlink:href="#DejaVuSans-35"/>
       <use x="127.246094" xlink:href="#DejaVuSans-30"/>
      </g>
     </g>
    </g>
    <g id="xtick_8">
     <g id="line2d_8">
      <g>
       <use style="stroke:#000000;stroke-width:0.8;" x="371.907972" xlink:href="#m214ae0b4d2" y="277.111219"/>
      </g>
     </g>
     <g id="text_8">
      <!-- 400 -->
      <g transform="translate(362.364222 291.709656)scale(0.1 -0.1)">
       <defs>
        <path d="M 2419 4116 
L 825 1625 
L 2419 1625 
L 2419 4116 
z
M 2253 4666 
L 3047 4666 
L 3047 1625 
L 3713 1625 
L 3713 1100 
L 3047 1100 
L 3047 0 
L 2419 0 
L 2419 1100 
L 313 1100 
L 313 1709 
L 2253 4666 
z
" id="DejaVuSans-34" transform="scale(0.015625)"/>
       </defs>
       <use xlink:href="#DejaVuSans-34"/>
       <use x="63.623047" xlink:href="#DejaVuSans-30"/>
       <use x="127.246094" xlink:href="#DejaVuSans-30"/>
      </g>
     </g>
    </g>
    <g id="xtick_9">
     <g id="line2d_9">
      <g>
       <use style="stroke:#000000;stroke-width:0.8;" x="413.637348" xlink:href="#m214ae0b4d2" y="277.111219"/>
      </g>
     </g>
     <g id="text_9">
      <!-- 450 -->
      <g transform="translate(404.093598 291.709656)scale(0.1 -0.1)">
       <use xlink:href="#DejaVuSans-34"/>
       <use x="63.623047" xlink:href="#DejaVuSans-35"/>
       <use x="127.246094" xlink:href="#DejaVuSans-30"/>
      </g>
     </g>
    </g>
    <g id="text_10">
     <!-- Sample Nums -->
     <g transform="translate(202.455 306.121844)scale(0.12 -0.12)">
      <defs>
       <path d="M 2934 4334 
L 2934 2869 
L 2819 2869 
Q 2763 3291 2617 3541 
Q 2472 3791 2203 3937 
Q 1934 4084 1647 4084 
Q 1322 4084 1109 3886 
Q 897 3688 897 3434 
Q 897 3241 1031 3081 
Q 1225 2847 1953 2456 
Q 2547 2138 2764 1967 
Q 2981 1797 3098 1565 
Q 3216 1334 3216 1081 
Q 3216 600 2842 251 
Q 2469 -97 1881 -97 
Q 1697 -97 1534 -69 
Q 1438 -53 1133 45 
Q 828 144 747 144 
Q 669 144 623 97 
Q 578 50 556 -97 
L 441 -97 
L 441 1356 
L 556 1356 
Q 638 900 775 673 
Q 913 447 1195 297 
Q 1478 147 1816 147 
Q 2206 147 2432 353 
Q 2659 559 2659 841 
Q 2659 997 2573 1156 
Q 2488 1316 2306 1453 
Q 2184 1547 1640 1851 
Q 1097 2156 867 2337 
Q 638 2519 519 2737 
Q 400 2956 400 3219 
Q 400 3675 750 4004 
Q 1100 4334 1641 4334 
Q 1978 4334 2356 4169 
Q 2531 4091 2603 4091 
Q 2684 4091 2736 4139 
Q 2788 4188 2819 4334 
L 2934 4334 
z
" id="TimesNewRomanPSMT-53" transform="scale(0.015625)"/>
       <path d="M 1822 413 
Q 1381 72 1269 19 
Q 1100 -59 909 -59 
Q 613 -59 420 144 
Q 228 347 228 678 
Q 228 888 322 1041 
Q 450 1253 767 1440 
Q 1084 1628 1822 1897 
L 1822 2009 
Q 1822 2438 1686 2597 
Q 1550 2756 1291 2756 
Q 1094 2756 978 2650 
Q 859 2544 859 2406 
L 866 2225 
Q 866 2081 792 2003 
Q 719 1925 600 1925 
Q 484 1925 411 2006 
Q 338 2088 338 2228 
Q 338 2497 613 2722 
Q 888 2947 1384 2947 
Q 1766 2947 2009 2819 
Q 2194 2722 2281 2516 
Q 2338 2381 2338 1966 
L 2338 994 
Q 2338 584 2353 492 
Q 2369 400 2405 369 
Q 2441 338 2488 338 
Q 2538 338 2575 359 
Q 2641 400 2828 588 
L 2828 413 
Q 2478 -56 2159 -56 
Q 2006 -56 1915 50 
Q 1825 156 1822 413 
z
M 1822 616 
L 1822 1706 
Q 1350 1519 1213 1441 
Q 966 1303 859 1153 
Q 753 1003 753 825 
Q 753 600 887 451 
Q 1022 303 1197 303 
Q 1434 303 1822 616 
z
" id="TimesNewRomanPSMT-61" transform="scale(0.015625)"/>
       <path d="M 1050 2338 
Q 1363 2650 1419 2697 
Q 1559 2816 1721 2881 
Q 1884 2947 2044 2947 
Q 2313 2947 2506 2790 
Q 2700 2634 2766 2338 
Q 3088 2713 3309 2830 
Q 3531 2947 3766 2947 
Q 3994 2947 4170 2830 
Q 4347 2713 4450 2447 
Q 4519 2266 4519 1878 
L 4519 647 
Q 4519 378 4559 278 
Q 4591 209 4675 161 
Q 4759 113 4950 113 
L 4950 0 
L 3538 0 
L 3538 113 
L 3597 113 
Q 3781 113 3884 184 
Q 3956 234 3988 344 
Q 4000 397 4000 647 
L 4000 1878 
Q 4000 2228 3916 2372 
Q 3794 2572 3525 2572 
Q 3359 2572 3192 2489 
Q 3025 2406 2788 2181 
L 2781 2147 
L 2788 2013 
L 2788 647 
Q 2788 353 2820 281 
Q 2853 209 2943 161 
Q 3034 113 3253 113 
L 3253 0 
L 1806 0 
L 1806 113 
Q 2044 113 2133 169 
Q 2222 225 2256 338 
Q 2272 391 2272 647 
L 2272 1878 
Q 2272 2228 2169 2381 
Q 2031 2581 1784 2581 
Q 1616 2581 1450 2491 
Q 1191 2353 1050 2181 
L 1050 647 
Q 1050 366 1089 281 
Q 1128 197 1204 155 
Q 1281 113 1516 113 
L 1516 0 
L 100 0 
L 100 113 
Q 297 113 375 155 
Q 453 197 493 289 
Q 534 381 534 647 
L 534 1741 
Q 534 2213 506 2350 
Q 484 2453 437 2492 
Q 391 2531 309 2531 
Q 222 2531 100 2484 
L 53 2597 
L 916 2947 
L 1050 2947 
L 1050 2338 
z
" id="TimesNewRomanPSMT-6d" transform="scale(0.015625)"/>
       <path d="M -6 2578 
L 875 2934 
L 994 2934 
L 994 2266 
Q 1216 2644 1439 2795 
Q 1663 2947 1909 2947 
Q 2341 2947 2628 2609 
Q 2981 2197 2981 1534 
Q 2981 794 2556 309 
Q 2206 -88 1675 -88 
Q 1444 -88 1275 -22 
Q 1150 25 994 166 
L 994 -706 
Q 994 -1000 1030 -1079 
Q 1066 -1159 1155 -1206 
Q 1244 -1253 1478 -1253 
L 1478 -1369 
L -22 -1369 
L -22 -1253 
L 56 -1253 
Q 228 -1256 350 -1188 
Q 409 -1153 442 -1076 
Q 475 -1000 475 -688 
L 475 2019 
Q 475 2297 450 2372 
Q 425 2447 370 2484 
Q 316 2522 222 2522 
Q 147 2522 31 2478 
L -6 2578 
z
M 994 2081 
L 994 1013 
Q 994 666 1022 556 
Q 1066 375 1236 237 
Q 1406 100 1666 100 
Q 1978 100 2172 344 
Q 2425 663 2425 1241 
Q 2425 1897 2138 2250 
Q 1938 2494 1663 2494 
Q 1513 2494 1366 2419 
Q 1253 2363 994 2081 
z
" id="TimesNewRomanPSMT-70" transform="scale(0.015625)"/>
       <path d="M 1184 4444 
L 1184 647 
Q 1184 378 1223 290 
Q 1263 203 1344 158 
Q 1425 113 1647 113 
L 1647 0 
L 244 0 
L 244 113 
Q 441 113 512 153 
Q 584 194 625 287 
Q 666 381 666 647 
L 666 3247 
Q 666 3731 644 3842 
Q 622 3953 573 3993 
Q 525 4034 450 4034 
Q 369 4034 244 3984 
L 191 4094 
L 1044 4444 
L 1184 4444 
z
" id="TimesNewRomanPSMT-6c" transform="scale(0.015625)"/>
       <path d="M 681 1784 
Q 678 1147 991 784 
Q 1303 422 1725 422 
Q 2006 422 2214 576 
Q 2422 731 2563 1106 
L 2659 1044 
Q 2594 616 2278 264 
Q 1963 -88 1488 -88 
Q 972 -88 605 314 
Q 238 716 238 1394 
Q 238 2128 614 2539 
Q 991 2950 1559 2950 
Q 2041 2950 2350 2633 
Q 2659 2316 2659 1784 
L 681 1784 
z
M 681 1966 
L 2006 1966 
Q 1991 2241 1941 2353 
Q 1863 2528 1708 2628 
Q 1553 2728 1384 2728 
Q 1125 2728 920 2526 
Q 716 2325 681 1966 
z
" id="TimesNewRomanPSMT-65" transform="scale(0.015625)"/>
       <path id="TimesNewRomanPSMT-20" transform="scale(0.015625)"/>
       <path d="M -84 4238 
L 1066 4238 
L 3656 1059 
L 3656 3503 
Q 3656 3894 3569 3991 
Q 3453 4122 3203 4122 
L 3056 4122 
L 3056 4238 
L 4531 4238 
L 4531 4122 
L 4381 4122 
Q 4113 4122 4000 3959 
Q 3931 3859 3931 3503 
L 3931 -69 
L 3819 -69 
L 1025 3344 
L 1025 734 
Q 1025 344 1109 247 
Q 1228 116 1475 116 
L 1625 116 
L 1625 0 
L 150 0 
L 150 116 
L 297 116 
Q 569 116 681 278 
Q 750 378 750 734 
L 750 3681 
Q 566 3897 470 3965 
Q 375 4034 191 4094 
Q 100 4122 -84 4122 
L -84 4238 
z
" id="TimesNewRomanPSMT-4e" transform="scale(0.015625)"/>
       <path d="M 2709 2863 
L 2709 1128 
Q 2709 631 2732 520 
Q 2756 409 2807 365 
Q 2859 322 2928 322 
Q 3025 322 3147 375 
L 3191 266 
L 2334 -88 
L 2194 -88 
L 2194 519 
Q 1825 119 1631 15 
Q 1438 -88 1222 -88 
Q 981 -88 804 51 
Q 628 191 559 409 
Q 491 628 491 1028 
L 491 2306 
Q 491 2509 447 2587 
Q 403 2666 317 2708 
Q 231 2750 6 2747 
L 6 2863 
L 1009 2863 
L 1009 947 
Q 1009 547 1148 422 
Q 1288 297 1484 297 
Q 1619 297 1789 381 
Q 1959 466 2194 703 
L 2194 2325 
Q 2194 2569 2105 2655 
Q 2016 2741 1734 2747 
L 1734 2863 
L 2709 2863 
z
" id="TimesNewRomanPSMT-75" transform="scale(0.015625)"/>
       <path d="M 2050 2947 
L 2050 1972 
L 1947 1972 
Q 1828 2431 1642 2597 
Q 1456 2763 1169 2763 
Q 950 2763 815 2647 
Q 681 2531 681 2391 
Q 681 2216 781 2091 
Q 878 1963 1175 1819 
L 1631 1597 
Q 2266 1288 2266 781 
Q 2266 391 1970 151 
Q 1675 -88 1309 -88 
Q 1047 -88 709 6 
Q 606 38 541 38 
Q 469 38 428 -44 
L 325 -44 
L 325 978 
L 428 978 
Q 516 541 762 319 
Q 1009 97 1316 97 
Q 1531 97 1667 223 
Q 1803 350 1803 528 
Q 1803 744 1651 891 
Q 1500 1038 1047 1263 
Q 594 1488 453 1669 
Q 313 1847 313 2119 
Q 313 2472 555 2709 
Q 797 2947 1181 2947 
Q 1350 2947 1591 2875 
Q 1750 2828 1803 2828 
Q 1853 2828 1881 2850 
Q 1909 2872 1947 2947 
L 2050 2947 
z
" id="TimesNewRomanPSMT-73" transform="scale(0.015625)"/>
      </defs>
      <use xlink:href="#TimesNewRomanPSMT-53"/>
      <use x="55.615234" xlink:href="#TimesNewRomanPSMT-61"/>
      <use x="100" xlink:href="#TimesNewRomanPSMT-6d"/>
      <use x="177.783203" xlink:href="#TimesNewRomanPSMT-70"/>
      <use x="227.783203" xlink:href="#TimesNewRomanPSMT-6c"/>
      <use x="255.566406" xlink:href="#TimesNewRomanPSMT-65"/>
      <use x="299.951172" xlink:href="#TimesNewRomanPSMT-20"/>
      <use x="324.951172" xlink:href="#TimesNewRomanPSMT-4e"/>
      <use x="397.167969" xlink:href="#TimesNewRomanPSMT-75"/>
      <use x="447.167969" xlink:href="#TimesNewRomanPSMT-6d"/>
      <use x="524.951172" xlink:href="#TimesNewRomanPSMT-73"/>
     </g>
    </g>
   </g>
   <g id="matplotlib.axis_2">
    <g id="ytick_1">
     <g id="line2d_10">
      <defs>
       <path d="M 0 0 
L -3.5 0 
" id="m6329d20559" style="stroke:#000000;stroke-width:0.8;"/>
      </defs>
      <g>
       <use style="stroke:#000000;stroke-width:0.8;" x="57.7275" xlink:href="#m6329d20559" y="277.111219"/>
      </g>
     </g>
     <g id="text_11">
      <!-- 0.800 -->
      <g transform="translate(22.099375 280.910438)scale(0.1 -0.1)">
       <defs>
        <path d="M 684 794 
L 1344 794 
L 1344 0 
L 684 0 
L 684 794 
z
" id="DejaVuSans-2e" transform="scale(0.015625)"/>
        <path d="M 2034 2216 
Q 1584 2216 1326 1975 
Q 1069 1734 1069 1313 
Q 1069 891 1326 650 
Q 1584 409 2034 409 
Q 2484 409 2743 651 
Q 3003 894 3003 1313 
Q 3003 1734 2745 1975 
Q 2488 2216 2034 2216 
z
M 1403 2484 
Q 997 2584 770 2862 
Q 544 3141 544 3541 
Q 544 4100 942 4425 
Q 1341 4750 2034 4750 
Q 2731 4750 3128 4425 
Q 3525 4100 3525 3541 
Q 3525 3141 3298 2862 
Q 3072 2584 2669 2484 
Q 3125 2378 3379 2068 
Q 3634 1759 3634 1313 
Q 3634 634 3220 271 
Q 2806 -91 2034 -91 
Q 1263 -91 848 271 
Q 434 634 434 1313 
Q 434 1759 690 2068 
Q 947 2378 1403 2484 
z
M 1172 3481 
Q 1172 3119 1398 2916 
Q 1625 2713 2034 2713 
Q 2441 2713 2670 2916 
Q 2900 3119 2900 3481 
Q 2900 3844 2670 4047 
Q 2441 4250 2034 4250 
Q 1625 4250 1398 4047 
Q 1172 3844 1172 3481 
z
" id="DejaVuSans-38" transform="scale(0.015625)"/>
       </defs>
       <use xlink:href="#DejaVuSans-30"/>
       <use x="63.623047" xlink:href="#DejaVuSans-2e"/>
       <use x="95.410156" xlink:href="#DejaVuSans-38"/>
       <use x="159.033203" xlink:href="#DejaVuSans-30"/>
       <use x="222.65625" xlink:href="#DejaVuSans-30"/>
      </g>
     </g>
    </g>
    <g id="ytick_2">
     <g id="line2d_11">
      <g>
       <use style="stroke:#000000;stroke-width:0.8;" x="57.7275" xlink:href="#m6329d20559" y="243.847219"/>
      </g>
     </g>
     <g id="text_12">
      <!-- 0.825 -->
      <g transform="translate(22.099375 247.646438)scale(0.1 -0.1)">
       <use xlink:href="#DejaVuSans-30"/>
       <use x="63.623047" xlink:href="#DejaVuSans-2e"/>
       <use x="95.410156" xlink:href="#DejaVuSans-38"/>
       <use x="159.033203" xlink:href="#DejaVuSans-32"/>
       <use x="222.65625" xlink:href="#DejaVuSans-35"/>
      </g>
     </g>
    </g>
    <g id="ytick_3">
     <g id="line2d_12">
      <g>
       <use style="stroke:#000000;stroke-width:0.8;" x="57.7275" xlink:href="#m6329d20559" y="210.583219"/>
      </g>
     </g>
     <g id="text_13">
      <!-- 0.850 -->
      <g transform="translate(22.099375 214.382438)scale(0.1 -0.1)">
       <use xlink:href="#DejaVuSans-30"/>
       <use x="63.623047" xlink:href="#DejaVuSans-2e"/>
       <use x="95.410156" xlink:href="#DejaVuSans-38"/>
       <use x="159.033203" xlink:href="#DejaVuSans-35"/>
       <use x="222.65625" xlink:href="#DejaVuSans-30"/>
      </g>
     </g>
    </g>
    <g id="ytick_4">
     <g id="line2d_13">
      <g>
       <use style="stroke:#000000;stroke-width:0.8;" x="57.7275" xlink:href="#m6329d20559" y="177.319219"/>
      </g>
     </g>
     <g id="text_14">
      <!-- 0.875 -->
      <g transform="translate(22.099375 181.118438)scale(0.1 -0.1)">
       <defs>
        <path d="M 525 4666 
L 3525 4666 
L 3525 4397 
L 1831 0 
L 1172 0 
L 2766 4134 
L 525 4134 
L 525 4666 
z
" id="DejaVuSans-37" transform="scale(0.015625)"/>
       </defs>
       <use xlink:href="#DejaVuSans-30"/>
       <use x="63.623047" xlink:href="#DejaVuSans-2e"/>
       <use x="95.410156" xlink:href="#DejaVuSans-38"/>
       <use x="159.033203" xlink:href="#DejaVuSans-37"/>
       <use x="222.65625" xlink:href="#DejaVuSans-35"/>
      </g>
     </g>
    </g>
    <g id="ytick_5">
     <g id="line2d_14">
      <g>
       <use style="stroke:#000000;stroke-width:0.8;" x="57.7275" xlink:href="#m6329d20559" y="144.055219"/>
      </g>
     </g>
     <g id="text_15">
      <!-- 0.900 -->
      <g transform="translate(22.099375 147.854438)scale(0.1 -0.1)">
       <defs>
        <path d="M 703 97 
L 703 672 
Q 941 559 1184 500 
Q 1428 441 1663 441 
Q 2288 441 2617 861 
Q 2947 1281 2994 2138 
Q 2813 1869 2534 1725 
Q 2256 1581 1919 1581 
Q 1219 1581 811 2004 
Q 403 2428 403 3163 
Q 403 3881 828 4315 
Q 1253 4750 1959 4750 
Q 2769 4750 3195 4129 
Q 3622 3509 3622 2328 
Q 3622 1225 3098 567 
Q 2575 -91 1691 -91 
Q 1453 -91 1209 -44 
Q 966 3 703 97 
z
M 1959 2075 
Q 2384 2075 2632 2365 
Q 2881 2656 2881 3163 
Q 2881 3666 2632 3958 
Q 2384 4250 1959 4250 
Q 1534 4250 1286 3958 
Q 1038 3666 1038 3163 
Q 1038 2656 1286 2365 
Q 1534 2075 1959 2075 
z
" id="DejaVuSans-39" transform="scale(0.015625)"/>
       </defs>
       <use xlink:href="#DejaVuSans-30"/>
       <use x="63.623047" xlink:href="#DejaVuSans-2e"/>
       <use x="95.410156" xlink:href="#DejaVuSans-39"/>
       <use x="159.033203" xlink:href="#DejaVuSans-30"/>
       <use x="222.65625" xlink:href="#DejaVuSans-30"/>
      </g>
     </g>
    </g>
    <g id="ytick_6">
     <g id="line2d_15">
      <g>
       <use style="stroke:#000000;stroke-width:0.8;" x="57.7275" xlink:href="#m6329d20559" y="110.791219"/>
      </g>
     </g>
     <g id="text_16">
      <!-- 0.925 -->
      <g transform="translate(22.099375 114.590438)scale(0.1 -0.1)">
       <use xlink:href="#DejaVuSans-30"/>
       <use x="63.623047" xlink:href="#DejaVuSans-2e"/>
       <use x="95.410156" xlink:href="#DejaVuSans-39"/>
       <use x="159.033203" xlink:href="#DejaVuSans-32"/>
       <use x="222.65625" xlink:href="#DejaVuSans-35"/>
      </g>
     </g>
    </g>
    <g id="ytick_7">
     <g id="line2d_16">
      <g>
       <use style="stroke:#000000;stroke-width:0.8;" x="57.7275" xlink:href="#m6329d20559" y="77.527219"/>
      </g>
     </g>
     <g id="text_17">
      <!-- 0.950 -->
      <g transform="translate(22.099375 81.326438)scale(0.1 -0.1)">
       <use xlink:href="#DejaVuSans-30"/>
       <use x="63.623047" xlink:href="#DejaVuSans-2e"/>
       <use x="95.410156" xlink:href="#DejaVuSans-39"/>
       <use x="159.033203" xlink:href="#DejaVuSans-35"/>
       <use x="222.65625" xlink:href="#DejaVuSans-30"/>
      </g>
     </g>
    </g>
    <g id="ytick_8">
     <g id="line2d_17">
      <g>
       <use style="stroke:#000000;stroke-width:0.8;" x="57.7275" xlink:href="#m6329d20559" y="44.263219"/>
      </g>
     </g>
     <g id="text_18">
      <!-- 0.975 -->
      <g transform="translate(22.099375 48.062438)scale(0.1 -0.1)">
       <use xlink:href="#DejaVuSans-30"/>
       <use x="63.623047" xlink:href="#DejaVuSans-2e"/>
       <use x="95.410156" xlink:href="#DejaVuSans-39"/>
       <use x="159.033203" xlink:href="#DejaVuSans-37"/>
       <use x="222.65625" xlink:href="#DejaVuSans-35"/>
      </g>
     </g>
    </g>
    <g id="ytick_9">
     <g id="line2d_18">
      <g>
       <use style="stroke:#000000;stroke-width:0.8;" x="57.7275" xlink:href="#m6329d20559" y="10.999219"/>
      </g>
     </g>
     <g id="text_19">
      <!-- 1.000 -->
      <g transform="translate(22.099375 14.798438)scale(0.1 -0.1)">
       <use xlink:href="#DejaVuSans-31"/>
       <use x="63.623047" xlink:href="#DejaVuSans-2e"/>
       <use x="95.410156" xlink:href="#DejaVuSans-30"/>
       <use x="159.033203" xlink:href="#DejaVuSans-30"/>
       <use x="222.65625" xlink:href="#DejaVuSans-30"/>
      </g>
     </g>
    </g>
    <g id="text_20">
     <!-- Accuracy -->
     <g transform="translate(15.51 167.039906)rotate(-90)scale(0.12 -0.12)">
      <defs>
       <path d="M 2928 1419 
L 1288 1419 
L 1000 750 
Q 894 503 894 381 
Q 894 284 986 211 
Q 1078 138 1384 116 
L 1384 0 
L 50 0 
L 50 116 
Q 316 163 394 238 
Q 553 388 747 847 
L 2238 4334 
L 2347 4334 
L 3822 809 
Q 4000 384 4145 257 
Q 4291 131 4550 116 
L 4550 0 
L 2878 0 
L 2878 116 
Q 3131 128 3220 200 
Q 3309 272 3309 375 
Q 3309 513 3184 809 
L 2928 1419 
z
M 2841 1650 
L 2122 3363 
L 1384 1650 
L 2841 1650 
z
" id="TimesNewRomanPSMT-41" transform="scale(0.015625)"/>
       <path d="M 2631 1088 
Q 2516 522 2178 217 
Q 1841 -88 1431 -88 
Q 944 -88 581 321 
Q 219 731 219 1428 
Q 219 2103 620 2525 
Q 1022 2947 1584 2947 
Q 2006 2947 2278 2723 
Q 2550 2500 2550 2259 
Q 2550 2141 2473 2067 
Q 2397 1994 2259 1994 
Q 2075 1994 1981 2113 
Q 1928 2178 1911 2362 
Q 1894 2547 1784 2644 
Q 1675 2738 1481 2738 
Q 1169 2738 978 2506 
Q 725 2200 725 1697 
Q 725 1184 976 792 
Q 1228 400 1656 400 
Q 1963 400 2206 609 
Q 2378 753 2541 1131 
L 2631 1088 
z
" id="TimesNewRomanPSMT-63" transform="scale(0.015625)"/>
       <path d="M 1038 2947 
L 1038 2303 
Q 1397 2947 1775 2947 
Q 1947 2947 2059 2842 
Q 2172 2738 2172 2600 
Q 2172 2478 2090 2393 
Q 2009 2309 1897 2309 
Q 1788 2309 1652 2417 
Q 1516 2525 1450 2525 
Q 1394 2525 1328 2463 
Q 1188 2334 1038 2041 
L 1038 669 
Q 1038 431 1097 309 
Q 1138 225 1241 169 
Q 1344 113 1538 113 
L 1538 0 
L 72 0 
L 72 113 
Q 291 113 397 181 
Q 475 231 506 341 
Q 522 394 522 644 
L 522 1753 
Q 522 2253 501 2348 
Q 481 2444 426 2487 
Q 372 2531 291 2531 
Q 194 2531 72 2484 
L 41 2597 
L 906 2947 
L 1038 2947 
z
" id="TimesNewRomanPSMT-72" transform="scale(0.015625)"/>
       <path d="M 38 2863 
L 1372 2863 
L 1372 2747 
L 1306 2747 
Q 1166 2747 1095 2686 
Q 1025 2625 1025 2534 
Q 1025 2413 1128 2197 
L 1825 753 
L 2466 2334 
Q 2519 2463 2519 2588 
Q 2519 2644 2497 2672 
Q 2472 2706 2419 2726 
Q 2366 2747 2231 2747 
L 2231 2863 
L 3163 2863 
L 3163 2747 
Q 3047 2734 2984 2696 
Q 2922 2659 2847 2556 
Q 2819 2513 2741 2316 
L 1575 -541 
Q 1406 -956 1132 -1168 
Q 859 -1381 606 -1381 
Q 422 -1381 303 -1275 
Q 184 -1169 184 -1031 
Q 184 -900 270 -820 
Q 356 -741 506 -741 
Q 609 -741 788 -809 
Q 913 -856 944 -856 
Q 1038 -856 1148 -759 
Q 1259 -663 1372 -384 
L 1575 113 
L 547 2272 
Q 500 2369 397 2513 
Q 319 2622 269 2659 
Q 197 2709 38 2747 
L 38 2863 
z
" id="TimesNewRomanPSMT-79" transform="scale(0.015625)"/>
      </defs>
      <use xlink:href="#TimesNewRomanPSMT-41"/>
      <use x="72.216797" xlink:href="#TimesNewRomanPSMT-63"/>
      <use x="116.601562" xlink:href="#TimesNewRomanPSMT-63"/>
      <use x="160.986328" xlink:href="#TimesNewRomanPSMT-75"/>
      <use x="210.986328" xlink:href="#TimesNewRomanPSMT-72"/>
      <use x="244.287109" xlink:href="#TimesNewRomanPSMT-61"/>
      <use x="288.671875" xlink:href="#TimesNewRomanPSMT-63"/>
      <use x="333.056641" xlink:href="#TimesNewRomanPSMT-79"/>
     </g>
    </g>
   </g>
   <g id="line2d_19">
    <path clip-path="url(#pc56e8badbc)" d="M 73.960227 10.999219 
L 84.809865 15.751219 
L 96.49409 14.800819 
L 107.343728 14.205387 
L 118.193366 19.315219 
L 129.877591 27.933619 
L 140.727229 27.22556 
L 152.411454 24.596182 
L 163.261092 33.175219 
L 174.11073 34.671759 
L 185.794955 35.054541 
L 196.644593 33.40865 
L 208.328818 28.609572 
L 219.178456 31.846703 
L 230.028094 32.982384 
L 241.712319 32.811678 
L 252.561957 32.226051 
L 264.246182 31.129462 
L 275.09582 30.208007 
L 285.945457 31.607219 
L 297.629683 30.679527 
L 308.479321 29.889885 
L 320.163546 29.894745 
L 331.013184 29.953065 
L 341.862821 29.64168 
L 353.547047 28.599219 
L 364.396684 28.354349 
L 376.08091 27.425885 
L 386.930547 27.233324 
L 398.614773 26.707219 
" style="fill:none;stroke:#0000ff;stroke-dasharray:1.5,2.475;stroke-dashoffset:0;stroke-width:1.5;"/>
    <defs>
     <path d="M 0 3 
C 0.795609 3 1.55874 2.683901 2.12132 2.12132 
C 2.683901 1.55874 3 0.795609 3 0 
C 3 -0.795609 2.683901 -1.55874 2.12132 -2.12132 
C 1.55874 -2.683901 0.795609 -3 0 -3 
C -0.795609 -3 -1.55874 -2.683901 -2.12132 -2.12132 
C -2.683901 -1.55874 -3 -0.795609 -3 0 
C -3 0.795609 -2.683901 1.55874 -2.12132 2.12132 
C -1.55874 2.683901 -0.795609 3 0 3 
z
" id="mf69ddca146" style="stroke:#0000ff;"/>
    </defs>
    <g clip-path="url(#pc56e8badbc)">
     <use style="fill:#0000ff;stroke:#0000ff;" x="73.960227" xlink:href="#mf69ddca146" y="10.999219"/>
     <use style="fill:#0000ff;stroke:#0000ff;" x="84.809865" xlink:href="#mf69ddca146" y="15.751219"/>
     <use style="fill:#0000ff;stroke:#0000ff;" x="96.49409" xlink:href="#mf69ddca146" y="14.800819"/>
     <use style="fill:#0000ff;stroke:#0000ff;" x="107.343728" xlink:href="#mf69ddca146" y="14.205387"/>
     <use style="fill:#0000ff;stroke:#0000ff;" x="118.193366" xlink:href="#mf69ddca146" y="19.315219"/>
     <use style="fill:#0000ff;stroke:#0000ff;" x="129.877591" xlink:href="#mf69ddca146" y="27.933619"/>
     <use style="fill:#0000ff;stroke:#0000ff;" x="140.727229" xlink:href="#mf69ddca146" y="27.22556"/>
     <use style="fill:#0000ff;stroke:#0000ff;" x="152.411454" xlink:href="#mf69ddca146" y="24.596182"/>
     <use style="fill:#0000ff;stroke:#0000ff;" x="163.261092" xlink:href="#mf69ddca146" y="33.175219"/>
     <use style="fill:#0000ff;stroke:#0000ff;" x="174.11073" xlink:href="#mf69ddca146" y="34.671759"/>
     <use style="fill:#0000ff;stroke:#0000ff;" x="185.794955" xlink:href="#mf69ddca146" y="35.054541"/>
     <use style="fill:#0000ff;stroke:#0000ff;" x="196.644593" xlink:href="#mf69ddca146" y="33.40865"/>
     <use style="fill:#0000ff;stroke:#0000ff;" x="208.328818" xlink:href="#mf69ddca146" y="28.609572"/>
     <use style="fill:#0000ff;stroke:#0000ff;" x="219.178456" xlink:href="#mf69ddca146" y="31.846703"/>
     <use style="fill:#0000ff;stroke:#0000ff;" x="230.028094" xlink:href="#mf69ddca146" y="32.982384"/>
     <use style="fill:#0000ff;stroke:#0000ff;" x="241.712319" xlink:href="#mf69ddca146" y="32.811678"/>
     <use style="fill:#0000ff;stroke:#0000ff;" x="252.561957" xlink:href="#mf69ddca146" y="32.226051"/>
     <use style="fill:#0000ff;stroke:#0000ff;" x="264.246182" xlink:href="#mf69ddca146" y="31.129462"/>
     <use style="fill:#0000ff;stroke:#0000ff;" x="275.09582" xlink:href="#mf69ddca146" y="30.208007"/>
     <use style="fill:#0000ff;stroke:#0000ff;" x="285.945457" xlink:href="#mf69ddca146" y="31.607219"/>
     <use style="fill:#0000ff;stroke:#0000ff;" x="297.629683" xlink:href="#mf69ddca146" y="30.679527"/>
     <use style="fill:#0000ff;stroke:#0000ff;" x="308.479321" xlink:href="#mf69ddca146" y="29.889885"/>
     <use style="fill:#0000ff;stroke:#0000ff;" x="320.163546" xlink:href="#mf69ddca146" y="29.894745"/>
     <use style="fill:#0000ff;stroke:#0000ff;" x="331.013184" xlink:href="#mf69ddca146" y="29.953065"/>
     <use style="fill:#0000ff;stroke:#0000ff;" x="341.862821" xlink:href="#mf69ddca146" y="29.64168"/>
     <use style="fill:#0000ff;stroke:#0000ff;" x="353.547047" xlink:href="#mf69ddca146" y="28.599219"/>
     <use style="fill:#0000ff;stroke:#0000ff;" x="364.396684" xlink:href="#mf69ddca146" y="28.354349"/>
     <use style="fill:#0000ff;stroke:#0000ff;" x="376.08091" xlink:href="#mf69ddca146" y="27.425885"/>
     <use style="fill:#0000ff;stroke:#0000ff;" x="386.930547" xlink:href="#mf69ddca146" y="27.233324"/>
     <use style="fill:#0000ff;stroke:#0000ff;" x="398.614773" xlink:href="#mf69ddca146" y="26.707219"/>
    </g>
   </g>
   <g id="line2d_20">
    <path clip-path="url(#pc56e8badbc)" d="M 73.960227 74.755219 
L 84.809865 77.527219 
L 96.49409 71.983219 
L 107.343728 63.667219 
L 118.193366 58.123219 
L 129.877591 58.123219 
L 140.727229 58.123219 
L 152.411454 58.123219 
L 163.261092 55.351219 
L 174.11073 60.895219 
L 185.794955 47.035219 
L 196.644593 44.263219 
L 208.328818 41.491219 
L 219.178456 44.263219 
L 230.028094 44.263219 
L 241.712319 38.719219 
L 252.561957 38.719219 
L 264.246182 38.719219 
L 275.09582 38.719219 
L 285.945457 38.719219 
L 297.629683 35.947219 
L 308.479321 38.719219 
L 320.163546 41.491219 
L 331.013184 41.491219 
L 341.862821 35.947219 
L 353.547047 35.947219 
L 364.396684 35.947219 
L 376.08091 33.175219 
L 386.930547 33.175219 
L 398.614773 33.175219 
" style="fill:none;stroke:#008000;stroke-dasharray:5.55,2.4;stroke-dashoffset:0;stroke-width:1.5;"/>
    <defs>
     <path d="M -3 3 
L 3 3 
L 3 -3 
L -3 -3 
z
" id="m404871bccb" style="stroke:#008000;stroke-linejoin:miter;"/>
    </defs>
    <g clip-path="url(#pc56e8badbc)">
     <use style="fill:#008000;stroke:#008000;stroke-linejoin:miter;" x="73.960227" xlink:href="#m404871bccb" y="74.755219"/>
     <use style="fill:#008000;stroke:#008000;stroke-linejoin:miter;" x="84.809865" xlink:href="#m404871bccb" y="77.527219"/>
     <use style="fill:#008000;stroke:#008000;stroke-linejoin:miter;" x="96.49409" xlink:href="#m404871bccb" y="71.983219"/>
     <use style="fill:#008000;stroke:#008000;stroke-linejoin:miter;" x="107.343728" xlink:href="#m404871bccb" y="63.667219"/>
     <use style="fill:#008000;stroke:#008000;stroke-linejoin:miter;" x="118.193366" xlink:href="#m404871bccb" y="58.123219"/>
     <use style="fill:#008000;stroke:#008000;stroke-linejoin:miter;" x="129.877591" xlink:href="#m404871bccb" y="58.123219"/>
     <use style="fill:#008000;stroke:#008000;stroke-linejoin:miter;" x="140.727229" xlink:href="#m404871bccb" y="58.123219"/>
     <use style="fill:#008000;stroke:#008000;stroke-linejoin:miter;" x="152.411454" xlink:href="#m404871bccb" y="58.123219"/>
     <use style="fill:#008000;stroke:#008000;stroke-linejoin:miter;" x="163.261092" xlink:href="#m404871bccb" y="55.351219"/>
     <use style="fill:#008000;stroke:#008000;stroke-linejoin:miter;" x="174.11073" xlink:href="#m404871bccb" y="60.895219"/>
     <use style="fill:#008000;stroke:#008000;stroke-linejoin:miter;" x="185.794955" xlink:href="#m404871bccb" y="47.035219"/>
     <use style="fill:#008000;stroke:#008000;stroke-linejoin:miter;" x="196.644593" xlink:href="#m404871bccb" y="44.263219"/>
     <use style="fill:#008000;stroke:#008000;stroke-linejoin:miter;" x="208.328818" xlink:href="#m404871bccb" y="41.491219"/>
     <use style="fill:#008000;stroke:#008000;stroke-linejoin:miter;" x="219.178456" xlink:href="#m404871bccb" y="44.263219"/>
     <use style="fill:#008000;stroke:#008000;stroke-linejoin:miter;" x="230.028094" xlink:href="#m404871bccb" y="44.263219"/>
     <use style="fill:#008000;stroke:#008000;stroke-linejoin:miter;" x="241.712319" xlink:href="#m404871bccb" y="38.719219"/>
     <use style="fill:#008000;stroke:#008000;stroke-linejoin:miter;" x="252.561957" xlink:href="#m404871bccb" y="38.719219"/>
     <use style="fill:#008000;stroke:#008000;stroke-linejoin:miter;" x="264.246182" xlink:href="#m404871bccb" y="38.719219"/>
     <use style="fill:#008000;stroke:#008000;stroke-linejoin:miter;" x="275.09582" xlink:href="#m404871bccb" y="38.719219"/>
     <use style="fill:#008000;stroke:#008000;stroke-linejoin:miter;" x="285.945457" xlink:href="#m404871bccb" y="38.719219"/>
     <use style="fill:#008000;stroke:#008000;stroke-linejoin:miter;" x="297.629683" xlink:href="#m404871bccb" y="35.947219"/>
     <use style="fill:#008000;stroke:#008000;stroke-linejoin:miter;" x="308.479321" xlink:href="#m404871bccb" y="38.719219"/>
     <use style="fill:#008000;stroke:#008000;stroke-linejoin:miter;" x="320.163546" xlink:href="#m404871bccb" y="41.491219"/>
     <use style="fill:#008000;stroke:#008000;stroke-linejoin:miter;" x="331.013184" xlink:href="#m404871bccb" y="41.491219"/>
     <use style="fill:#008000;stroke:#008000;stroke-linejoin:miter;" x="341.862821" xlink:href="#m404871bccb" y="35.947219"/>
     <use style="fill:#008000;stroke:#008000;stroke-linejoin:miter;" x="353.547047" xlink:href="#m404871bccb" y="35.947219"/>
     <use style="fill:#008000;stroke:#008000;stroke-linejoin:miter;" x="364.396684" xlink:href="#m404871bccb" y="35.947219"/>
     <use style="fill:#008000;stroke:#008000;stroke-linejoin:miter;" x="376.08091" xlink:href="#m404871bccb" y="33.175219"/>
     <use style="fill:#008000;stroke:#008000;stroke-linejoin:miter;" x="386.930547" xlink:href="#m404871bccb" y="33.175219"/>
     <use style="fill:#008000;stroke:#008000;stroke-linejoin:miter;" x="398.614773" xlink:href="#m404871bccb" y="33.175219"/>
    </g>
   </g>
   <g id="patch_3">
    <path d="M 57.7275 277.111219 
L 57.7275 10.999219 
" style="fill:none;stroke:#000000;stroke-linecap:square;stroke-linejoin:miter;stroke-width:0.8;"/>
   </g>
   <g id="patch_4">
    <path d="M 414.8475 277.111219 
L 414.8475 10.999219 
" style="fill:none;stroke:#000000;stroke-linecap:square;stroke-linejoin:miter;stroke-width:0.8;"/>
   </g>
   <g id="patch_5">
    <path d="M 57.7275 277.111219 
L 414.8475 277.111219 
" style="fill:none;stroke:#000000;stroke-linecap:square;stroke-linejoin:miter;stroke-width:0.8;"/>
   </g>
   <g id="patch_6">
    <path d="M 57.7275 10.999219 
L 414.8475 10.999219 
" style="fill:none;stroke:#000000;stroke-linecap:square;stroke-linejoin:miter;stroke-width:0.8;"/>
   </g>
   <g id="legend_1">
    <g id="patch_7">
     <path d="M 64.7275 272.111219 
L 185.013437 272.111219 
Q 187.013437 272.111219 187.013437 270.111219 
L 187.013437 241.754969 
Q 187.013437 239.754969 185.013437 239.754969 
L 64.7275 239.754969 
Q 62.7275 239.754969 62.7275 241.754969 
L 62.7275 270.111219 
Q 62.7275 272.111219 64.7275 272.111219 
z
" style="fill:#ffffff;opacity:0.8;stroke:#cccccc;stroke-linejoin:miter;"/>
    </g>
    <g id="line2d_21">
     <path d="M 66.7275 247.853406 
L 86.7275 247.853406 
" style="fill:none;stroke:#0000ff;stroke-dasharray:1.5,2.475;stroke-dashoffset:0;stroke-width:1.5;"/>
    </g>
    <g id="line2d_22">
     <g>
      <use style="fill:#0000ff;stroke:#0000ff;" x="76.7275" xlink:href="#mf69ddca146" y="247.853406"/>
     </g>
    </g>
    <g id="text_21">
     <!-- Training Accuracy -->
     <g transform="translate(94.7275 251.353406)scale(0.1 -0.1)">
      <defs>
       <path d="M -19 4666 
L 3928 4666 
L 3928 4134 
L 2272 4134 
L 2272 0 
L 1638 0 
L 1638 4134 
L -19 4134 
L -19 4666 
z
" id="DejaVuSans-54" transform="scale(0.015625)"/>
       <path d="M 2631 2963 
Q 2534 3019 2420 3045 
Q 2306 3072 2169 3072 
Q 1681 3072 1420 2755 
Q 1159 2438 1159 1844 
L 1159 0 
L 581 0 
L 581 3500 
L 1159 3500 
L 1159 2956 
Q 1341 3275 1631 3429 
Q 1922 3584 2338 3584 
Q 2397 3584 2469 3576 
Q 2541 3569 2628 3553 
L 2631 2963 
z
" id="DejaVuSans-72" transform="scale(0.015625)"/>
       <path d="M 2194 1759 
Q 1497 1759 1228 1600 
Q 959 1441 959 1056 
Q 959 750 1161 570 
Q 1363 391 1709 391 
Q 2188 391 2477 730 
Q 2766 1069 2766 1631 
L 2766 1759 
L 2194 1759 
z
M 3341 1997 
L 3341 0 
L 2766 0 
L 2766 531 
Q 2569 213 2275 61 
Q 1981 -91 1556 -91 
Q 1019 -91 701 211 
Q 384 513 384 1019 
Q 384 1609 779 1909 
Q 1175 2209 1959 2209 
L 2766 2209 
L 2766 2266 
Q 2766 2663 2505 2880 
Q 2244 3097 1772 3097 
Q 1472 3097 1187 3025 
Q 903 2953 641 2809 
L 641 3341 
Q 956 3463 1253 3523 
Q 1550 3584 1831 3584 
Q 2591 3584 2966 3190 
Q 3341 2797 3341 1997 
z
" id="DejaVuSans-61" transform="scale(0.015625)"/>
       <path d="M 603 3500 
L 1178 3500 
L 1178 0 
L 603 0 
L 603 3500 
z
M 603 4863 
L 1178 4863 
L 1178 4134 
L 603 4134 
L 603 4863 
z
" id="DejaVuSans-69" transform="scale(0.015625)"/>
       <path d="M 3513 2113 
L 3513 0 
L 2938 0 
L 2938 2094 
Q 2938 2591 2744 2837 
Q 2550 3084 2163 3084 
Q 1697 3084 1428 2787 
Q 1159 2491 1159 1978 
L 1159 0 
L 581 0 
L 581 3500 
L 1159 3500 
L 1159 2956 
Q 1366 3272 1645 3428 
Q 1925 3584 2291 3584 
Q 2894 3584 3203 3211 
Q 3513 2838 3513 2113 
z
" id="DejaVuSans-6e" transform="scale(0.015625)"/>
       <path d="M 2906 1791 
Q 2906 2416 2648 2759 
Q 2391 3103 1925 3103 
Q 1463 3103 1205 2759 
Q 947 2416 947 1791 
Q 947 1169 1205 825 
Q 1463 481 1925 481 
Q 2391 481 2648 825 
Q 2906 1169 2906 1791 
z
M 3481 434 
Q 3481 -459 3084 -895 
Q 2688 -1331 1869 -1331 
Q 1566 -1331 1297 -1286 
Q 1028 -1241 775 -1147 
L 775 -588 
Q 1028 -725 1275 -790 
Q 1522 -856 1778 -856 
Q 2344 -856 2625 -561 
Q 2906 -266 2906 331 
L 2906 616 
Q 2728 306 2450 153 
Q 2172 0 1784 0 
Q 1141 0 747 490 
Q 353 981 353 1791 
Q 353 2603 747 3093 
Q 1141 3584 1784 3584 
Q 2172 3584 2450 3431 
Q 2728 3278 2906 2969 
L 2906 3500 
L 3481 3500 
L 3481 434 
z
" id="DejaVuSans-67" transform="scale(0.015625)"/>
       <path id="DejaVuSans-20" transform="scale(0.015625)"/>
       <path d="M 2188 4044 
L 1331 1722 
L 3047 1722 
L 2188 4044 
z
M 1831 4666 
L 2547 4666 
L 4325 0 
L 3669 0 
L 3244 1197 
L 1141 1197 
L 716 0 
L 50 0 
L 1831 4666 
z
" id="DejaVuSans-41" transform="scale(0.015625)"/>
       <path d="M 3122 3366 
L 3122 2828 
Q 2878 2963 2633 3030 
Q 2388 3097 2138 3097 
Q 1578 3097 1268 2742 
Q 959 2388 959 1747 
Q 959 1106 1268 751 
Q 1578 397 2138 397 
Q 2388 397 2633 464 
Q 2878 531 3122 666 
L 3122 134 
Q 2881 22 2623 -34 
Q 2366 -91 2075 -91 
Q 1284 -91 818 406 
Q 353 903 353 1747 
Q 353 2603 823 3093 
Q 1294 3584 2113 3584 
Q 2378 3584 2631 3529 
Q 2884 3475 3122 3366 
z
" id="DejaVuSans-63" transform="scale(0.015625)"/>
       <path d="M 544 1381 
L 544 3500 
L 1119 3500 
L 1119 1403 
Q 1119 906 1312 657 
Q 1506 409 1894 409 
Q 2359 409 2629 706 
Q 2900 1003 2900 1516 
L 2900 3500 
L 3475 3500 
L 3475 0 
L 2900 0 
L 2900 538 
Q 2691 219 2414 64 
Q 2138 -91 1772 -91 
Q 1169 -91 856 284 
Q 544 659 544 1381 
z
M 1991 3584 
L 1991 3584 
z
" id="DejaVuSans-75" transform="scale(0.015625)"/>
       <path d="M 2059 -325 
Q 1816 -950 1584 -1140 
Q 1353 -1331 966 -1331 
L 506 -1331 
L 506 -850 
L 844 -850 
Q 1081 -850 1212 -737 
Q 1344 -625 1503 -206 
L 1606 56 
L 191 3500 
L 800 3500 
L 1894 763 
L 2988 3500 
L 3597 3500 
L 2059 -325 
z
" id="DejaVuSans-79" transform="scale(0.015625)"/>
      </defs>
      <use xlink:href="#DejaVuSans-54"/>
      <use x="46.333984" xlink:href="#DejaVuSans-72"/>
      <use x="87.447266" xlink:href="#DejaVuSans-61"/>
      <use x="148.726562" xlink:href="#DejaVuSans-69"/>
      <use x="176.509766" xlink:href="#DejaVuSans-6e"/>
      <use x="239.888672" xlink:href="#DejaVuSans-69"/>
      <use x="267.671875" xlink:href="#DejaVuSans-6e"/>
      <use x="331.050781" xlink:href="#DejaVuSans-67"/>
      <use x="394.527344" xlink:href="#DejaVuSans-20"/>
      <use x="426.314453" xlink:href="#DejaVuSans-41"/>
      <use x="492.972656" xlink:href="#DejaVuSans-63"/>
      <use x="547.953125" xlink:href="#DejaVuSans-63"/>
      <use x="602.933594" xlink:href="#DejaVuSans-75"/>
      <use x="666.3125" xlink:href="#DejaVuSans-72"/>
      <use x="707.425781" xlink:href="#DejaVuSans-61"/>
      <use x="768.705078" xlink:href="#DejaVuSans-63"/>
      <use x="823.685547" xlink:href="#DejaVuSans-79"/>
     </g>
    </g>
    <g id="line2d_23">
     <path d="M 66.7275 262.531531 
L 86.7275 262.531531 
" style="fill:none;stroke:#008000;stroke-dasharray:5.55,2.4;stroke-dashoffset:0;stroke-width:1.5;"/>
    </g>
    <g id="line2d_24">
     <g>
      <use style="fill:#008000;stroke:#008000;stroke-linejoin:miter;" x="76.7275" xlink:href="#m404871bccb" y="262.531531"/>
     </g>
    </g>
    <g id="text_22">
     <!-- Testing Accuracy -->
     <g transform="translate(94.7275 266.031531)scale(0.1 -0.1)">
      <defs>
       <path d="M 3597 1894 
L 3597 1613 
L 953 1613 
Q 991 1019 1311 708 
Q 1631 397 2203 397 
Q 2534 397 2845 478 
Q 3156 559 3463 722 
L 3463 178 
Q 3153 47 2828 -22 
Q 2503 -91 2169 -91 
Q 1331 -91 842 396 
Q 353 884 353 1716 
Q 353 2575 817 3079 
Q 1281 3584 2069 3584 
Q 2775 3584 3186 3129 
Q 3597 2675 3597 1894 
z
M 3022 2063 
Q 3016 2534 2758 2815 
Q 2500 3097 2075 3097 
Q 1594 3097 1305 2825 
Q 1016 2553 972 2059 
L 3022 2063 
z
" id="DejaVuSans-65" transform="scale(0.015625)"/>
       <path d="M 2834 3397 
L 2834 2853 
Q 2591 2978 2328 3040 
Q 2066 3103 1784 3103 
Q 1356 3103 1142 2972 
Q 928 2841 928 2578 
Q 928 2378 1081 2264 
Q 1234 2150 1697 2047 
L 1894 2003 
Q 2506 1872 2764 1633 
Q 3022 1394 3022 966 
Q 3022 478 2636 193 
Q 2250 -91 1575 -91 
Q 1294 -91 989 -36 
Q 684 19 347 128 
L 347 722 
Q 666 556 975 473 
Q 1284 391 1588 391 
Q 1994 391 2212 530 
Q 2431 669 2431 922 
Q 2431 1156 2273 1281 
Q 2116 1406 1581 1522 
L 1381 1569 
Q 847 1681 609 1914 
Q 372 2147 372 2553 
Q 372 3047 722 3315 
Q 1072 3584 1716 3584 
Q 2034 3584 2315 3537 
Q 2597 3491 2834 3397 
z
" id="DejaVuSans-73" transform="scale(0.015625)"/>
       <path d="M 1172 4494 
L 1172 3500 
L 2356 3500 
L 2356 3053 
L 1172 3053 
L 1172 1153 
Q 1172 725 1289 603 
Q 1406 481 1766 481 
L 2356 481 
L 2356 0 
L 1766 0 
Q 1100 0 847 248 
Q 594 497 594 1153 
L 594 3053 
L 172 3053 
L 172 3500 
L 594 3500 
L 594 4494 
L 1172 4494 
z
" id="DejaVuSans-74" transform="scale(0.015625)"/>
      </defs>
      <use xlink:href="#DejaVuSans-54"/>
      <use x="44.083984" xlink:href="#DejaVuSans-65"/>
      <use x="105.607422" xlink:href="#DejaVuSans-73"/>
      <use x="157.707031" xlink:href="#DejaVuSans-74"/>
      <use x="196.916016" xlink:href="#DejaVuSans-69"/>
      <use x="224.699219" xlink:href="#DejaVuSans-6e"/>
      <use x="288.078125" xlink:href="#DejaVuSans-67"/>
      <use x="351.554688" xlink:href="#DejaVuSans-20"/>
      <use x="383.341797" xlink:href="#DejaVuSans-41"/>
      <use x="450" xlink:href="#DejaVuSans-63"/>
      <use x="504.980469" xlink:href="#DejaVuSans-63"/>
      <use x="559.960938" xlink:href="#DejaVuSans-75"/>
      <use x="623.339844" xlink:href="#DejaVuSans-72"/>
      <use x="664.453125" xlink:href="#DejaVuSans-61"/>
      <use x="725.732422" xlink:href="#DejaVuSans-63"/>
      <use x="780.712891" xlink:href="#DejaVuSans-79"/>
     </g>
    </g>
   </g>
  </g>
 </g>
 <defs>
  <clipPath id="pc56e8badbc">
   <rect height="266.112" width="357.12" x="57.7275" y="10.999219"/>
  </clipPath>
 </defs>
</svg>
