<?xml version="1.0" encoding="utf-8" standalone="no"?>
<!DOCTYPE svg PUBLIC "-//W3C//DTD SVG 1.1//EN"
  "http://www.w3.org/Graphics/SVG/1.1/DTD/svg11.dtd">
<svg height="268.103125pt" version="1.1" viewBox="0 0 217.721875 268.103125" width="217.721875pt" xmlns="http://www.w3.org/2000/svg" xmlns:xlink="http://www.w3.org/1999/xlink">
 <metadata>
  <rdf:RDF xmlns:cc="http://creativecommons.org/ns#" xmlns:dc="http://purl.org/dc/elements/1.1/" xmlns:rdf="http://www.w3.org/1999/02/22-rdf-syntax-ns#">
   <cc:Work>
    <dc:type rdf:resource="http://purl.org/dc/dcmitype/StillImage"/>
    <dc:date>2022-05-18T15:26:22.844756</dc:date>
    <dc:format>image/svg+xml</dc:format>
    <dc:creator>
     <cc:Agent>
      <dc:title>Matplotlib v3.4.2, https://matplotlib.org/</dc:title>
     </cc:Agent>
    </dc:creator>
   </cc:Work>
  </rdf:RDF>
 </metadata>
 <defs>
  <style type="text/css">*{stroke-linecap:butt;stroke-linejoin:round;}</style>
 </defs>
 <g id="figure_1">
  <g id="patch_1">
   <path d="M 0 268.103125 
L 217.721875 268.103125 
L 217.721875 0 
L 0 0 
z
" style="fill:#ffffff;"/>
  </g>
  <g id="axes_1">
   <g id="patch_2">
    <path d="M 43.121875 231.7375 
L 210.521875 231.7375 
L 210.521875 9.9775 
L 43.121875 9.9775 
z
" style="fill:#ffffff;"/>
   </g>
   <g id="matplotlib.axis_1">
    <g id="xtick_1">
     <g id="line2d_1">
      <defs>
       <path d="M 0 0 
L 0 3.5 
" id="meb4ff95ff6" style="stroke:#000000;stroke-width:0.8;"/>
      </defs>
      <g>
       <use style="stroke:#000000;stroke-width:0.8;" x="69.753693" xlink:href="#meb4ff95ff6" y="231.7375"/>
      </g>
     </g>
     <g id="text_1">
      <!-- 20 -->
      <g transform="translate(65.753693 244.2925)scale(0.08 -0.08)">
       <defs>
        <path d="M 2934 816 
L 2638 0 
L 138 0 
L 138 116 
Q 1241 1122 1691 1759 
Q 2141 2397 2141 2925 
Q 2141 3328 1894 3587 
Q 1647 3847 1303 3847 
Q 991 3847 742 3664 
Q 494 3481 375 3128 
L 259 3128 
Q 338 3706 661 4015 
Q 984 4325 1469 4325 
Q 1984 4325 2329 3994 
Q 2675 3663 2675 3213 
Q 2675 2891 2525 2569 
Q 2294 2063 1775 1497 
Q 997 647 803 472 
L 1909 472 
Q 2247 472 2383 497 
Q 2519 522 2628 598 
Q 2738 675 2819 816 
L 2934 816 
z
" id="TimesNewRomanPSMT-32" transform="scale(0.015625)"/>
        <path d="M 231 2094 
Q 231 2819 450 3342 
Q 669 3866 1031 4122 
Q 1313 4325 1613 4325 
Q 2100 4325 2488 3828 
Q 2972 3213 2972 2159 
Q 2972 1422 2759 906 
Q 2547 391 2217 158 
Q 1888 -75 1581 -75 
Q 975 -75 572 641 
Q 231 1244 231 2094 
z
M 844 2016 
Q 844 1141 1059 588 
Q 1238 122 1591 122 
Q 1759 122 1940 273 
Q 2122 425 2216 781 
Q 2359 1319 2359 2297 
Q 2359 3022 2209 3506 
Q 2097 3866 1919 4016 
Q 1791 4119 1609 4119 
Q 1397 4119 1231 3928 
Q 1006 3669 925 3112 
Q 844 2556 844 2016 
z
" id="TimesNewRomanPSMT-30" transform="scale(0.015625)"/>
       </defs>
       <use xlink:href="#TimesNewRomanPSMT-32"/>
       <use x="50" xlink:href="#TimesNewRomanPSMT-30"/>
      </g>
     </g>
    </g>
    <g id="xtick_2">
     <g id="line2d_2">
      <g>
       <use style="stroke:#000000;stroke-width:0.8;" x="107.799148" xlink:href="#meb4ff95ff6" y="231.7375"/>
      </g>
     </g>
     <g id="text_2">
      <!-- 40 -->
      <g transform="translate(103.799148 244.2925)scale(0.08 -0.08)">
       <defs>
        <path d="M 2978 1563 
L 2978 1119 
L 2409 1119 
L 2409 0 
L 1894 0 
L 1894 1119 
L 100 1119 
L 100 1519 
L 2066 4325 
L 2409 4325 
L 2409 1563 
L 2978 1563 
z
M 1894 1563 
L 1894 3666 
L 406 1563 
L 1894 1563 
z
" id="TimesNewRomanPSMT-34" transform="scale(0.015625)"/>
       </defs>
       <use xlink:href="#TimesNewRomanPSMT-34"/>
       <use x="50" xlink:href="#TimesNewRomanPSMT-30"/>
      </g>
     </g>
    </g>
    <g id="xtick_3">
     <g id="line2d_3">
      <g>
       <use style="stroke:#000000;stroke-width:0.8;" x="145.844602" xlink:href="#meb4ff95ff6" y="231.7375"/>
      </g>
     </g>
     <g id="text_3">
      <!-- 60 -->
      <g transform="translate(141.844602 244.2925)scale(0.08 -0.08)">
       <defs>
        <path d="M 2869 4325 
L 2869 4209 
Q 2456 4169 2195 4045 
Q 1934 3922 1679 3669 
Q 1425 3416 1258 3105 
Q 1091 2794 978 2366 
Q 1428 2675 1881 2675 
Q 2316 2675 2634 2325 
Q 2953 1975 2953 1425 
Q 2953 894 2631 456 
Q 2244 -75 1606 -75 
Q 1172 -75 869 213 
Q 275 772 275 1663 
Q 275 2231 503 2743 
Q 731 3256 1154 3653 
Q 1578 4050 1965 4187 
Q 2353 4325 2688 4325 
L 2869 4325 
z
M 925 2138 
Q 869 1716 869 1456 
Q 869 1156 980 804 
Q 1091 453 1309 247 
Q 1469 100 1697 100 
Q 1969 100 2183 356 
Q 2397 613 2397 1088 
Q 2397 1622 2184 2012 
Q 1972 2403 1581 2403 
Q 1463 2403 1327 2353 
Q 1191 2303 925 2138 
z
" id="TimesNewRomanPSMT-36" transform="scale(0.015625)"/>
       </defs>
       <use xlink:href="#TimesNewRomanPSMT-36"/>
       <use x="50" xlink:href="#TimesNewRomanPSMT-30"/>
      </g>
     </g>
    </g>
    <g id="xtick_4">
     <g id="line2d_4">
      <g>
       <use style="stroke:#000000;stroke-width:0.8;" x="183.890057" xlink:href="#meb4ff95ff6" y="231.7375"/>
      </g>
     </g>
     <g id="text_4">
      <!-- 80 -->
      <g transform="translate(179.890057 244.2925)scale(0.08 -0.08)">
       <defs>
        <path d="M 1228 2134 
Q 725 2547 579 2797 
Q 434 3047 434 3316 
Q 434 3728 753 4026 
Q 1072 4325 1600 4325 
Q 2113 4325 2425 4047 
Q 2738 3769 2738 3413 
Q 2738 3175 2569 2928 
Q 2400 2681 1866 2347 
Q 2416 1922 2594 1678 
Q 2831 1359 2831 1006 
Q 2831 559 2490 242 
Q 2150 -75 1597 -75 
Q 994 -75 656 303 
Q 388 606 388 966 
Q 388 1247 577 1523 
Q 766 1800 1228 2134 
z
M 1719 2469 
Q 2094 2806 2194 3001 
Q 2294 3197 2294 3444 
Q 2294 3772 2109 3958 
Q 1925 4144 1606 4144 
Q 1288 4144 1088 3959 
Q 888 3775 888 3528 
Q 888 3366 970 3203 
Q 1053 3041 1206 2894 
L 1719 2469 
z
M 1375 2016 
Q 1116 1797 991 1539 
Q 866 1281 866 981 
Q 866 578 1086 336 
Q 1306 94 1647 94 
Q 1984 94 2187 284 
Q 2391 475 2391 747 
Q 2391 972 2272 1150 
Q 2050 1481 1375 2016 
z
" id="TimesNewRomanPSMT-38" transform="scale(0.015625)"/>
       </defs>
       <use xlink:href="#TimesNewRomanPSMT-38"/>
       <use x="50" xlink:href="#TimesNewRomanPSMT-30"/>
      </g>
     </g>
    </g>
    <g id="text_5">
     <!-- Test set (%) -->
     <g transform="translate(98.2525 258.33625)scale(0.12 -0.12)">
      <defs>
       <path d="M 3703 4238 
L 3750 3244 
L 3631 3244 
Q 3597 3506 3538 3619 
Q 3441 3800 3280 3886 
Q 3119 3972 2856 3972 
L 2259 3972 
L 2259 734 
Q 2259 344 2344 247 
Q 2463 116 2709 116 
L 2856 116 
L 2856 0 
L 1059 0 
L 1059 116 
L 1209 116 
Q 1478 116 1591 278 
Q 1659 378 1659 734 
L 1659 3972 
L 1150 3972 
Q 853 3972 728 3928 
Q 566 3869 450 3700 
Q 334 3531 313 3244 
L 194 3244 
L 244 4238 
L 3703 4238 
z
" id="TimesNewRomanPSMT-54" transform="scale(0.015625)"/>
       <path d="M 681 1784 
Q 678 1147 991 784 
Q 1303 422 1725 422 
Q 2006 422 2214 576 
Q 2422 731 2563 1106 
L 2659 1044 
Q 2594 616 2278 264 
Q 1963 -88 1488 -88 
Q 972 -88 605 314 
Q 238 716 238 1394 
Q 238 2128 614 2539 
Q 991 2950 1559 2950 
Q 2041 2950 2350 2633 
Q 2659 2316 2659 1784 
L 681 1784 
z
M 681 1966 
L 2006 1966 
Q 1991 2241 1941 2353 
Q 1863 2528 1708 2628 
Q 1553 2728 1384 2728 
Q 1125 2728 920 2526 
Q 716 2325 681 1966 
z
" id="TimesNewRomanPSMT-65" transform="scale(0.015625)"/>
       <path d="M 2050 2947 
L 2050 1972 
L 1947 1972 
Q 1828 2431 1642 2597 
Q 1456 2763 1169 2763 
Q 950 2763 815 2647 
Q 681 2531 681 2391 
Q 681 2216 781 2091 
Q 878 1963 1175 1819 
L 1631 1597 
Q 2266 1288 2266 781 
Q 2266 391 1970 151 
Q 1675 -88 1309 -88 
Q 1047 -88 709 6 
Q 606 38 541 38 
Q 469 38 428 -44 
L 325 -44 
L 325 978 
L 428 978 
Q 516 541 762 319 
Q 1009 97 1316 97 
Q 1531 97 1667 223 
Q 1803 350 1803 528 
Q 1803 744 1651 891 
Q 1500 1038 1047 1263 
Q 594 1488 453 1669 
Q 313 1847 313 2119 
Q 313 2472 555 2709 
Q 797 2947 1181 2947 
Q 1350 2947 1591 2875 
Q 1750 2828 1803 2828 
Q 1853 2828 1881 2850 
Q 1909 2872 1947 2947 
L 2050 2947 
z
" id="TimesNewRomanPSMT-73" transform="scale(0.015625)"/>
       <path d="M 1031 3803 
L 1031 2863 
L 1700 2863 
L 1700 2644 
L 1031 2644 
L 1031 788 
Q 1031 509 1111 412 
Q 1191 316 1316 316 
Q 1419 316 1516 380 
Q 1613 444 1666 569 
L 1788 569 
Q 1678 263 1478 108 
Q 1278 -47 1066 -47 
Q 922 -47 784 33 
Q 647 113 581 261 
Q 516 409 516 719 
L 516 2644 
L 63 2644 
L 63 2747 
Q 234 2816 414 2980 
Q 594 3144 734 3369 
Q 806 3488 934 3803 
L 1031 3803 
z
" id="TimesNewRomanPSMT-74" transform="scale(0.015625)"/>
       <path id="TimesNewRomanPSMT-20" transform="scale(0.015625)"/>
       <path d="M 1988 -1253 
L 1988 -1369 
Q 1516 -1131 1200 -813 
Q 750 -359 506 256 
Q 263 872 263 1534 
Q 263 2503 741 3301 
Q 1219 4100 1988 4444 
L 1988 4313 
Q 1603 4100 1356 3731 
Q 1109 3363 987 2797 
Q 866 2231 866 1616 
Q 866 947 969 400 
Q 1050 -31 1165 -292 
Q 1281 -553 1476 -793 
Q 1672 -1034 1988 -1253 
z
" id="TimesNewRomanPSMT-28" transform="scale(0.015625)"/>
       <path d="M 4350 4334 
L 1263 -175 
L 984 -175 
L 4072 4334 
L 4350 4334 
z
M 1138 4334 
Q 1559 4334 1792 3984 
Q 2025 3634 2025 3181 
Q 2025 2638 1762 2341 
Q 1500 2044 1131 2044 
Q 884 2044 678 2180 
Q 472 2316 348 2584 
Q 225 2853 225 3181 
Q 225 3509 350 3786 
Q 475 4063 692 4198 
Q 909 4334 1138 4334 
z
M 1128 4159 
Q 969 4159 845 3971 
Q 722 3784 722 3184 
Q 722 2750 791 2522 
Q 844 2350 956 2256 
Q 1022 2200 1119 2200 
Q 1269 2200 1375 2363 
Q 1531 2603 1531 3166 
Q 1531 3759 1378 4000 
Q 1278 4159 1128 4159 
z
M 4206 2103 
Q 4428 2103 4648 1962 
Q 4869 1822 4989 1553 
Q 5109 1284 5109 963 
Q 5109 409 4843 117 
Q 4578 -175 4216 -175 
Q 3988 -175 3773 -34 
Q 3559 106 3436 367 
Q 3313 628 3313 963 
Q 3313 1291 3436 1562 
Q 3559 1834 3773 1968 
Q 3988 2103 4206 2103 
z
M 4209 1938 
Q 4059 1938 3950 1769 
Q 3809 1550 3809 941 
Q 3809 381 3953 159 
Q 4059 0 4209 0 
Q 4353 0 4466 172 
Q 4616 400 4616 956 
Q 4616 1544 4466 1778 
Q 4363 1938 4209 1938 
z
" id="TimesNewRomanPSMT-25" transform="scale(0.015625)"/>
       <path d="M 144 4313 
L 144 4444 
Q 619 4209 934 3891 
Q 1381 3434 1625 2820 
Q 1869 2206 1869 1541 
Q 1869 572 1392 -226 
Q 916 -1025 144 -1369 
L 144 -1253 
Q 528 -1038 776 -670 
Q 1025 -303 1145 264 
Q 1266 831 1266 1447 
Q 1266 2113 1163 2663 
Q 1084 3094 967 3353 
Q 850 3613 656 3853 
Q 463 4094 144 4313 
z
" id="TimesNewRomanPSMT-29" transform="scale(0.015625)"/>
      </defs>
      <use xlink:href="#TimesNewRomanPSMT-54"/>
      <use x="54.083984" xlink:href="#TimesNewRomanPSMT-65"/>
      <use x="98.46875" xlink:href="#TimesNewRomanPSMT-73"/>
      <use x="137.384766" xlink:href="#TimesNewRomanPSMT-74"/>
      <use x="165.167969" xlink:href="#TimesNewRomanPSMT-20"/>
      <use x="190.167969" xlink:href="#TimesNewRomanPSMT-73"/>
      <use x="229.083984" xlink:href="#TimesNewRomanPSMT-65"/>
      <use x="273.46875" xlink:href="#TimesNewRomanPSMT-74"/>
      <use x="301.251953" xlink:href="#TimesNewRomanPSMT-20"/>
      <use x="326.251953" xlink:href="#TimesNewRomanPSMT-28"/>
      <use x="359.552734" xlink:href="#TimesNewRomanPSMT-25"/>
      <use x="442.853516" xlink:href="#TimesNewRomanPSMT-29"/>
     </g>
    </g>
   </g>
   <g id="matplotlib.axis_2">
    <g id="ytick_1">
     <g id="line2d_5">
      <defs>
       <path d="M 0 0 
L -3.5 0 
" id="me19e6fc076" style="stroke:#000000;stroke-width:0.8;"/>
      </defs>
      <g>
       <use style="stroke:#000000;stroke-width:0.8;" x="43.121875" xlink:href="#me19e6fc076" y="231.7375"/>
      </g>
     </g>
     <g id="text_6">
      <!-- 0.70 -->
      <g transform="translate(22.121875 234.515)scale(0.08 -0.08)">
       <defs>
        <path d="M 800 606 
Q 947 606 1047 504 
Q 1147 403 1147 259 
Q 1147 116 1045 14 
Q 944 -88 800 -88 
Q 656 -88 554 14 
Q 453 116 453 259 
Q 453 406 554 506 
Q 656 606 800 606 
z
" id="TimesNewRomanPSMT-2e" transform="scale(0.015625)"/>
        <path d="M 644 4238 
L 2916 4238 
L 2916 4119 
L 1503 -88 
L 1153 -88 
L 2419 3728 
L 1253 3728 
Q 900 3728 750 3644 
Q 488 3500 328 3200 
L 238 3234 
L 644 4238 
z
" id="TimesNewRomanPSMT-37" transform="scale(0.015625)"/>
       </defs>
       <use xlink:href="#TimesNewRomanPSMT-30"/>
       <use x="50" xlink:href="#TimesNewRomanPSMT-2e"/>
       <use x="75" xlink:href="#TimesNewRomanPSMT-37"/>
       <use x="125" xlink:href="#TimesNewRomanPSMT-30"/>
      </g>
     </g>
    </g>
    <g id="ytick_2">
     <g id="line2d_6">
      <g>
       <use style="stroke:#000000;stroke-width:0.8;" x="43.121875" xlink:href="#me19e6fc076" y="194.7775"/>
      </g>
     </g>
     <g id="text_7">
      <!-- 0.75 -->
      <g transform="translate(22.121875 197.555)scale(0.08 -0.08)">
       <defs>
        <path d="M 2778 4238 
L 2534 3706 
L 1259 3706 
L 981 3138 
Q 1809 3016 2294 2522 
Q 2709 2097 2709 1522 
Q 2709 1188 2573 903 
Q 2438 619 2231 419 
Q 2025 219 1772 97 
Q 1413 -75 1034 -75 
Q 653 -75 479 54 
Q 306 184 306 341 
Q 306 428 378 495 
Q 450 563 559 563 
Q 641 563 702 538 
Q 763 513 909 409 
Q 1144 247 1384 247 
Q 1750 247 2026 523 
Q 2303 800 2303 1197 
Q 2303 1581 2056 1914 
Q 1809 2247 1375 2428 
Q 1034 2569 447 2591 
L 1259 4238 
L 2778 4238 
z
" id="TimesNewRomanPSMT-35" transform="scale(0.015625)"/>
       </defs>
       <use xlink:href="#TimesNewRomanPSMT-30"/>
       <use x="50" xlink:href="#TimesNewRomanPSMT-2e"/>
       <use x="75" xlink:href="#TimesNewRomanPSMT-37"/>
       <use x="125" xlink:href="#TimesNewRomanPSMT-35"/>
      </g>
     </g>
    </g>
    <g id="ytick_3">
     <g id="line2d_7">
      <g>
       <use style="stroke:#000000;stroke-width:0.8;" x="43.121875" xlink:href="#me19e6fc076" y="157.8175"/>
      </g>
     </g>
     <g id="text_8">
      <!-- 0.80 -->
      <g transform="translate(22.121875 160.595)scale(0.08 -0.08)">
       <use xlink:href="#TimesNewRomanPSMT-30"/>
       <use x="50" xlink:href="#TimesNewRomanPSMT-2e"/>
       <use x="75" xlink:href="#TimesNewRomanPSMT-38"/>
       <use x="125" xlink:href="#TimesNewRomanPSMT-30"/>
      </g>
     </g>
    </g>
    <g id="ytick_4">
     <g id="line2d_8">
      <g>
       <use style="stroke:#000000;stroke-width:0.8;" x="43.121875" xlink:href="#me19e6fc076" y="120.8575"/>
      </g>
     </g>
     <g id="text_9">
      <!-- 0.85 -->
      <g transform="translate(22.121875 123.635)scale(0.08 -0.08)">
       <use xlink:href="#TimesNewRomanPSMT-30"/>
       <use x="50" xlink:href="#TimesNewRomanPSMT-2e"/>
       <use x="75" xlink:href="#TimesNewRomanPSMT-38"/>
       <use x="125" xlink:href="#TimesNewRomanPSMT-35"/>
      </g>
     </g>
    </g>
    <g id="ytick_5">
     <g id="line2d_9">
      <g>
       <use style="stroke:#000000;stroke-width:0.8;" x="43.121875" xlink:href="#me19e6fc076" y="83.8975"/>
      </g>
     </g>
     <g id="text_10">
      <!-- 0.90 -->
      <g transform="translate(22.121875 86.675)scale(0.08 -0.08)">
       <defs>
        <path d="M 338 -88 
L 338 28 
Q 744 34 1094 217 
Q 1444 400 1770 856 
Q 2097 1313 2225 1859 
Q 1734 1544 1338 1544 
Q 891 1544 572 1889 
Q 253 2234 253 2806 
Q 253 3363 572 3797 
Q 956 4325 1575 4325 
Q 2097 4325 2469 3894 
Q 2925 3359 2925 2575 
Q 2925 1869 2578 1258 
Q 2231 647 1613 244 
Q 1109 -88 516 -88 
L 338 -88 
z
M 2275 2091 
Q 2331 2497 2331 2741 
Q 2331 3044 2228 3395 
Q 2125 3747 1936 3934 
Q 1747 4122 1506 4122 
Q 1228 4122 1018 3872 
Q 809 3622 809 3128 
Q 809 2469 1088 2097 
Q 1291 1828 1588 1828 
Q 1731 1828 1928 1897 
Q 2125 1966 2275 2091 
z
" id="TimesNewRomanPSMT-39" transform="scale(0.015625)"/>
       </defs>
       <use xlink:href="#TimesNewRomanPSMT-30"/>
       <use x="50" xlink:href="#TimesNewRomanPSMT-2e"/>
       <use x="75" xlink:href="#TimesNewRomanPSMT-39"/>
       <use x="125" xlink:href="#TimesNewRomanPSMT-30"/>
      </g>
     </g>
    </g>
    <g id="ytick_6">
     <g id="line2d_10">
      <g>
       <use style="stroke:#000000;stroke-width:0.8;" x="43.121875" xlink:href="#me19e6fc076" y="46.9375"/>
      </g>
     </g>
     <g id="text_11">
      <!-- 0.95 -->
      <g transform="translate(22.121875 49.715)scale(0.08 -0.08)">
       <use xlink:href="#TimesNewRomanPSMT-30"/>
       <use x="50" xlink:href="#TimesNewRomanPSMT-2e"/>
       <use x="75" xlink:href="#TimesNewRomanPSMT-39"/>
       <use x="125" xlink:href="#TimesNewRomanPSMT-35"/>
      </g>
     </g>
    </g>
    <g id="ytick_7">
     <g id="line2d_11">
      <g>
       <use style="stroke:#000000;stroke-width:0.8;" x="43.121875" xlink:href="#me19e6fc076" y="9.9775"/>
      </g>
     </g>
     <g id="text_12">
      <!-- 1.00 -->
      <g transform="translate(22.121875 12.755)scale(0.08 -0.08)">
       <defs>
        <path d="M 750 3822 
L 1781 4325 
L 1884 4325 
L 1884 747 
Q 1884 391 1914 303 
Q 1944 216 2037 169 
Q 2131 122 2419 116 
L 2419 0 
L 825 0 
L 825 116 
Q 1125 122 1212 167 
Q 1300 213 1334 289 
Q 1369 366 1369 747 
L 1369 3034 
Q 1369 3497 1338 3628 
Q 1316 3728 1258 3775 
Q 1200 3822 1119 3822 
Q 1003 3822 797 3725 
L 750 3822 
z
" id="TimesNewRomanPSMT-31" transform="scale(0.015625)"/>
       </defs>
       <use xlink:href="#TimesNewRomanPSMT-31"/>
       <use x="50" xlink:href="#TimesNewRomanPSMT-2e"/>
       <use x="75" xlink:href="#TimesNewRomanPSMT-30"/>
       <use x="125" xlink:href="#TimesNewRomanPSMT-30"/>
      </g>
     </g>
    </g>
    <g id="text_13">
     <!-- Accuracy (%) -->
     <g transform="translate(15.5325 154.335625)rotate(-90)scale(0.12 -0.12)">
      <defs>
       <path d="M 2928 1419 
L 1288 1419 
L 1000 750 
Q 894 503 894 381 
Q 894 284 986 211 
Q 1078 138 1384 116 
L 1384 0 
L 50 0 
L 50 116 
Q 316 163 394 238 
Q 553 388 747 847 
L 2238 4334 
L 2347 4334 
L 3822 809 
Q 4000 384 4145 257 
Q 4291 131 4550 116 
L 4550 0 
L 2878 0 
L 2878 116 
Q 3131 128 3220 200 
Q 3309 272 3309 375 
Q 3309 513 3184 809 
L 2928 1419 
z
M 2841 1650 
L 2122 3363 
L 1384 1650 
L 2841 1650 
z
" id="TimesNewRomanPSMT-41" transform="scale(0.015625)"/>
       <path d="M 2631 1088 
Q 2516 522 2178 217 
Q 1841 -88 1431 -88 
Q 944 -88 581 321 
Q 219 731 219 1428 
Q 219 2103 620 2525 
Q 1022 2947 1584 2947 
Q 2006 2947 2278 2723 
Q 2550 2500 2550 2259 
Q 2550 2141 2473 2067 
Q 2397 1994 2259 1994 
Q 2075 1994 1981 2113 
Q 1928 2178 1911 2362 
Q 1894 2547 1784 2644 
Q 1675 2738 1481 2738 
Q 1169 2738 978 2506 
Q 725 2200 725 1697 
Q 725 1184 976 792 
Q 1228 400 1656 400 
Q 1963 400 2206 609 
Q 2378 753 2541 1131 
L 2631 1088 
z
" id="TimesNewRomanPSMT-63" transform="scale(0.015625)"/>
       <path d="M 2709 2863 
L 2709 1128 
Q 2709 631 2732 520 
Q 2756 409 2807 365 
Q 2859 322 2928 322 
Q 3025 322 3147 375 
L 3191 266 
L 2334 -88 
L 2194 -88 
L 2194 519 
Q 1825 119 1631 15 
Q 1438 -88 1222 -88 
Q 981 -88 804 51 
Q 628 191 559 409 
Q 491 628 491 1028 
L 491 2306 
Q 491 2509 447 2587 
Q 403 2666 317 2708 
Q 231 2750 6 2747 
L 6 2863 
L 1009 2863 
L 1009 947 
Q 1009 547 1148 422 
Q 1288 297 1484 297 
Q 1619 297 1789 381 
Q 1959 466 2194 703 
L 2194 2325 
Q 2194 2569 2105 2655 
Q 2016 2741 1734 2747 
L 1734 2863 
L 2709 2863 
z
" id="TimesNewRomanPSMT-75" transform="scale(0.015625)"/>
       <path d="M 1038 2947 
L 1038 2303 
Q 1397 2947 1775 2947 
Q 1947 2947 2059 2842 
Q 2172 2738 2172 2600 
Q 2172 2478 2090 2393 
Q 2009 2309 1897 2309 
Q 1788 2309 1652 2417 
Q 1516 2525 1450 2525 
Q 1394 2525 1328 2463 
Q 1188 2334 1038 2041 
L 1038 669 
Q 1038 431 1097 309 
Q 1138 225 1241 169 
Q 1344 113 1538 113 
L 1538 0 
L 72 0 
L 72 113 
Q 291 113 397 181 
Q 475 231 506 341 
Q 522 394 522 644 
L 522 1753 
Q 522 2253 501 2348 
Q 481 2444 426 2487 
Q 372 2531 291 2531 
Q 194 2531 72 2484 
L 41 2597 
L 906 2947 
L 1038 2947 
z
" id="TimesNewRomanPSMT-72" transform="scale(0.015625)"/>
       <path d="M 1822 413 
Q 1381 72 1269 19 
Q 1100 -59 909 -59 
Q 613 -59 420 144 
Q 228 347 228 678 
Q 228 888 322 1041 
Q 450 1253 767 1440 
Q 1084 1628 1822 1897 
L 1822 2009 
Q 1822 2438 1686 2597 
Q 1550 2756 1291 2756 
Q 1094 2756 978 2650 
Q 859 2544 859 2406 
L 866 2225 
Q 866 2081 792 2003 
Q 719 1925 600 1925 
Q 484 1925 411 2006 
Q 338 2088 338 2228 
Q 338 2497 613 2722 
Q 888 2947 1384 2947 
Q 1766 2947 2009 2819 
Q 2194 2722 2281 2516 
Q 2338 2381 2338 1966 
L 2338 994 
Q 2338 584 2353 492 
Q 2369 400 2405 369 
Q 2441 338 2488 338 
Q 2538 338 2575 359 
Q 2641 400 2828 588 
L 2828 413 
Q 2478 -56 2159 -56 
Q 2006 -56 1915 50 
Q 1825 156 1822 413 
z
M 1822 616 
L 1822 1706 
Q 1350 1519 1213 1441 
Q 966 1303 859 1153 
Q 753 1003 753 825 
Q 753 600 887 451 
Q 1022 303 1197 303 
Q 1434 303 1822 616 
z
" id="TimesNewRomanPSMT-61" transform="scale(0.015625)"/>
       <path d="M 38 2863 
L 1372 2863 
L 1372 2747 
L 1306 2747 
Q 1166 2747 1095 2686 
Q 1025 2625 1025 2534 
Q 1025 2413 1128 2197 
L 1825 753 
L 2466 2334 
Q 2519 2463 2519 2588 
Q 2519 2644 2497 2672 
Q 2472 2706 2419 2726 
Q 2366 2747 2231 2747 
L 2231 2863 
L 3163 2863 
L 3163 2747 
Q 3047 2734 2984 2696 
Q 2922 2659 2847 2556 
Q 2819 2513 2741 2316 
L 1575 -541 
Q 1406 -956 1132 -1168 
Q 859 -1381 606 -1381 
Q 422 -1381 303 -1275 
Q 184 -1169 184 -1031 
Q 184 -900 270 -820 
Q 356 -741 506 -741 
Q 609 -741 788 -809 
Q 913 -856 944 -856 
Q 1038 -856 1148 -759 
Q 1259 -663 1372 -384 
L 1575 113 
L 547 2272 
Q 500 2369 397 2513 
Q 319 2622 269 2659 
Q 197 2709 38 2747 
L 38 2863 
z
" id="TimesNewRomanPSMT-79" transform="scale(0.015625)"/>
      </defs>
      <use xlink:href="#TimesNewRomanPSMT-41"/>
      <use x="72.216797" xlink:href="#TimesNewRomanPSMT-63"/>
      <use x="116.601562" xlink:href="#TimesNewRomanPSMT-63"/>
      <use x="160.986328" xlink:href="#TimesNewRomanPSMT-75"/>
      <use x="210.986328" xlink:href="#TimesNewRomanPSMT-72"/>
      <use x="244.287109" xlink:href="#TimesNewRomanPSMT-61"/>
      <use x="288.671875" xlink:href="#TimesNewRomanPSMT-63"/>
      <use x="333.056641" xlink:href="#TimesNewRomanPSMT-79"/>
      <use x="383.056641" xlink:href="#TimesNewRomanPSMT-20"/>
      <use x="408.056641" xlink:href="#TimesNewRomanPSMT-28"/>
      <use x="441.357422" xlink:href="#TimesNewRomanPSMT-25"/>
      <use x="524.658203" xlink:href="#TimesNewRomanPSMT-29"/>
     </g>
    </g>
   </g>
   <g id="line2d_12">
    <path clip-path="url(#p058dae292b)" d="M 50.730966 17.7391 
L 69.753693 17.66518 
L 88.77642 18.25654 
L 107.799148 22.46998 
L 126.821875 19.2175 
L 145.844602 22.46998 
L 164.86733 20.25238 
L 183.890057 27.20086 
L 202.912784 27.57046 
" style="fill:none;stroke:#00bfbf;stroke-dasharray:9.6,2.4,1.5,2.4;stroke-dashoffset:0;stroke-width:1.5;"/>
    <defs>
     <path d="M 0 4.242641 
L 2.545584 0 
L 0 -4.242641 
L -2.545584 0 
z
" id="m7ce4ff60bc" style="stroke:#00bfbf;stroke-linejoin:miter;"/>
    </defs>
    <g clip-path="url(#p058dae292b)">
     <use style="fill:#00bfbf;stroke:#00bfbf;stroke-linejoin:miter;" x="50.730966" xlink:href="#m7ce4ff60bc" y="17.7391"/>
     <use style="fill:#00bfbf;stroke:#00bfbf;stroke-linejoin:miter;" x="69.753693" xlink:href="#m7ce4ff60bc" y="17.66518"/>
     <use style="fill:#00bfbf;stroke:#00bfbf;stroke-linejoin:miter;" x="88.77642" xlink:href="#m7ce4ff60bc" y="18.25654"/>
     <use style="fill:#00bfbf;stroke:#00bfbf;stroke-linejoin:miter;" x="107.799148" xlink:href="#m7ce4ff60bc" y="22.46998"/>
     <use style="fill:#00bfbf;stroke:#00bfbf;stroke-linejoin:miter;" x="126.821875" xlink:href="#m7ce4ff60bc" y="19.2175"/>
     <use style="fill:#00bfbf;stroke:#00bfbf;stroke-linejoin:miter;" x="145.844602" xlink:href="#m7ce4ff60bc" y="22.46998"/>
     <use style="fill:#00bfbf;stroke:#00bfbf;stroke-linejoin:miter;" x="164.86733" xlink:href="#m7ce4ff60bc" y="20.25238"/>
     <use style="fill:#00bfbf;stroke:#00bfbf;stroke-linejoin:miter;" x="183.890057" xlink:href="#m7ce4ff60bc" y="27.20086"/>
     <use style="fill:#00bfbf;stroke:#00bfbf;stroke-linejoin:miter;" x="202.912784" xlink:href="#m7ce4ff60bc" y="27.57046"/>
    </g>
   </g>
   <g id="line2d_13">
    <path clip-path="url(#p058dae292b)" d="M 50.730966 26.01814 
L 69.753693 27.27478 
L 88.77642 28.67926 
L 107.799148 28.53142 
L 126.821875 35.33206 
L 145.844602 34.96246 
L 164.86733 31.85782 
L 183.890057 29.27062 
L 202.912784 29.41846 
" style="fill:none;stroke:#0000ff;stroke-dasharray:9.6,2.4,1.5,2.4;stroke-dashoffset:0;stroke-width:1.5;"/>
    <defs>
     <path d="M 0 4.242641 
L 2.545584 0 
L 0 -4.242641 
L -2.545584 0 
z
" id="m8bf3fdfb0e" style="stroke:#0000ff;stroke-linejoin:miter;"/>
    </defs>
    <g clip-path="url(#p058dae292b)">
     <use style="fill:#0000ff;stroke:#0000ff;stroke-linejoin:miter;" x="50.730966" xlink:href="#m8bf3fdfb0e" y="26.01814"/>
     <use style="fill:#0000ff;stroke:#0000ff;stroke-linejoin:miter;" x="69.753693" xlink:href="#m8bf3fdfb0e" y="27.27478"/>
     <use style="fill:#0000ff;stroke:#0000ff;stroke-linejoin:miter;" x="88.77642" xlink:href="#m8bf3fdfb0e" y="28.67926"/>
     <use style="fill:#0000ff;stroke:#0000ff;stroke-linejoin:miter;" x="107.799148" xlink:href="#m8bf3fdfb0e" y="28.53142"/>
     <use style="fill:#0000ff;stroke:#0000ff;stroke-linejoin:miter;" x="126.821875" xlink:href="#m8bf3fdfb0e" y="35.33206"/>
     <use style="fill:#0000ff;stroke:#0000ff;stroke-linejoin:miter;" x="145.844602" xlink:href="#m8bf3fdfb0e" y="34.96246"/>
     <use style="fill:#0000ff;stroke:#0000ff;stroke-linejoin:miter;" x="164.86733" xlink:href="#m8bf3fdfb0e" y="31.85782"/>
     <use style="fill:#0000ff;stroke:#0000ff;stroke-linejoin:miter;" x="183.890057" xlink:href="#m8bf3fdfb0e" y="29.27062"/>
     <use style="fill:#0000ff;stroke:#0000ff;stroke-linejoin:miter;" x="202.912784" xlink:href="#m8bf3fdfb0e" y="29.41846"/>
    </g>
   </g>
   <g id="line2d_14">
    <path clip-path="url(#p058dae292b)" d="M 50.730966 57.95158 
L 69.753693 63.42166 
L 88.77642 73.84438 
L 107.799148 80.64502 
L 126.821875 105.7039 
L 145.844602 96.31606 
L 164.86733 105.55606 
L 183.890057 105.55606 
L 202.912784 107.10838 
" style="fill:none;stroke:#bfbf00;stroke-dasharray:9.6,2.4,1.5,2.4;stroke-dashoffset:0;stroke-width:1.5;"/>
    <defs>
     <path d="M 0 4.242641 
L 2.545584 0 
L 0 -4.242641 
L -2.545584 0 
z
" id="m6e543280bc" style="stroke:#bfbf00;stroke-linejoin:miter;"/>
    </defs>
    <g clip-path="url(#p058dae292b)">
     <use style="fill:#bfbf00;stroke:#bfbf00;stroke-linejoin:miter;" x="50.730966" xlink:href="#m6e543280bc" y="57.95158"/>
     <use style="fill:#bfbf00;stroke:#bfbf00;stroke-linejoin:miter;" x="69.753693" xlink:href="#m6e543280bc" y="63.42166"/>
     <use style="fill:#bfbf00;stroke:#bfbf00;stroke-linejoin:miter;" x="88.77642" xlink:href="#m6e543280bc" y="73.84438"/>
     <use style="fill:#bfbf00;stroke:#bfbf00;stroke-linejoin:miter;" x="107.799148" xlink:href="#m6e543280bc" y="80.64502"/>
     <use style="fill:#bfbf00;stroke:#bfbf00;stroke-linejoin:miter;" x="126.821875" xlink:href="#m6e543280bc" y="105.7039"/>
     <use style="fill:#bfbf00;stroke:#bfbf00;stroke-linejoin:miter;" x="145.844602" xlink:href="#m6e543280bc" y="96.31606"/>
     <use style="fill:#bfbf00;stroke:#bfbf00;stroke-linejoin:miter;" x="164.86733" xlink:href="#m6e543280bc" y="105.55606"/>
     <use style="fill:#bfbf00;stroke:#bfbf00;stroke-linejoin:miter;" x="183.890057" xlink:href="#m6e543280bc" y="105.55606"/>
     <use style="fill:#bfbf00;stroke:#bfbf00;stroke-linejoin:miter;" x="202.912784" xlink:href="#m6e543280bc" y="107.10838"/>
    </g>
   </g>
   <g id="line2d_15">
    <path clip-path="url(#p058dae292b)" d="M 50.730966 24.83542 
L 69.753693 27.49654 
L 88.77642 32.5231 
L 107.799148 35.03638 
L 126.821875 33.04054 
L 145.844602 30.15766 
L 164.86733 29.1967 
L 183.890057 35.18422 
L 202.912784 35.33206 
" style="fill:none;stroke:#008000;stroke-dasharray:9.6,2.4,1.5,2.4;stroke-dashoffset:0;stroke-width:1.5;"/>
    <defs>
     <path d="M 0 4.242641 
L 2.545584 0 
L 0 -4.242641 
L -2.545584 0 
z
" id="m8ba9f5f8f7" style="stroke:#008000;stroke-linejoin:miter;"/>
    </defs>
    <g clip-path="url(#p058dae292b)">
     <use style="fill:#008000;stroke:#008000;stroke-linejoin:miter;" x="50.730966" xlink:href="#m8ba9f5f8f7" y="24.83542"/>
     <use style="fill:#008000;stroke:#008000;stroke-linejoin:miter;" x="69.753693" xlink:href="#m8ba9f5f8f7" y="27.49654"/>
     <use style="fill:#008000;stroke:#008000;stroke-linejoin:miter;" x="88.77642" xlink:href="#m8ba9f5f8f7" y="32.5231"/>
     <use style="fill:#008000;stroke:#008000;stroke-linejoin:miter;" x="107.799148" xlink:href="#m8ba9f5f8f7" y="35.03638"/>
     <use style="fill:#008000;stroke:#008000;stroke-linejoin:miter;" x="126.821875" xlink:href="#m8ba9f5f8f7" y="33.04054"/>
     <use style="fill:#008000;stroke:#008000;stroke-linejoin:miter;" x="145.844602" xlink:href="#m8ba9f5f8f7" y="30.15766"/>
     <use style="fill:#008000;stroke:#008000;stroke-linejoin:miter;" x="164.86733" xlink:href="#m8ba9f5f8f7" y="29.1967"/>
     <use style="fill:#008000;stroke:#008000;stroke-linejoin:miter;" x="183.890057" xlink:href="#m8ba9f5f8f7" y="35.18422"/>
     <use style="fill:#008000;stroke:#008000;stroke-linejoin:miter;" x="202.912784" xlink:href="#m8ba9f5f8f7" y="35.33206"/>
    </g>
   </g>
   <g id="line2d_16">
    <path clip-path="url(#p058dae292b)" d="M 50.730966 17.7391 
L 69.753693 15.74326 
L 88.77642 15.5215 
L 107.799148 15.74326 
L 126.821875 16.11286 
L 145.844602 16.40854 
L 164.86733 16.6303 
L 183.890057 17.66518 
L 202.912784 18.1087 
" style="fill:none;stroke:#ff0000;stroke-dasharray:9.6,2.4,1.5,2.4;stroke-dashoffset:0;stroke-width:1.5;"/>
    <defs>
     <path d="M 0 4.242641 
L 2.545584 0 
L 0 -4.242641 
L -2.545584 0 
z
" id="m00e85ca26f" style="stroke:#ff0000;stroke-linejoin:miter;"/>
    </defs>
    <g clip-path="url(#p058dae292b)">
     <use style="fill:#ff0000;stroke:#ff0000;stroke-linejoin:miter;" x="50.730966" xlink:href="#m00e85ca26f" y="17.7391"/>
     <use style="fill:#ff0000;stroke:#ff0000;stroke-linejoin:miter;" x="69.753693" xlink:href="#m00e85ca26f" y="15.74326"/>
     <use style="fill:#ff0000;stroke:#ff0000;stroke-linejoin:miter;" x="88.77642" xlink:href="#m00e85ca26f" y="15.5215"/>
     <use style="fill:#ff0000;stroke:#ff0000;stroke-linejoin:miter;" x="107.799148" xlink:href="#m00e85ca26f" y="15.74326"/>
     <use style="fill:#ff0000;stroke:#ff0000;stroke-linejoin:miter;" x="126.821875" xlink:href="#m00e85ca26f" y="16.11286"/>
     <use style="fill:#ff0000;stroke:#ff0000;stroke-linejoin:miter;" x="145.844602" xlink:href="#m00e85ca26f" y="16.40854"/>
     <use style="fill:#ff0000;stroke:#ff0000;stroke-linejoin:miter;" x="164.86733" xlink:href="#m00e85ca26f" y="16.6303"/>
     <use style="fill:#ff0000;stroke:#ff0000;stroke-linejoin:miter;" x="183.890057" xlink:href="#m00e85ca26f" y="17.66518"/>
     <use style="fill:#ff0000;stroke:#ff0000;stroke-linejoin:miter;" x="202.912784" xlink:href="#m00e85ca26f" y="18.1087"/>
    </g>
   </g>
   <g id="patch_3">
    <path d="M 43.121875 231.7375 
L 43.121875 9.9775 
" style="fill:none;stroke:#000000;stroke-linecap:square;stroke-linejoin:miter;stroke-width:0.8;"/>
   </g>
   <g id="patch_4">
    <path d="M 210.521875 231.7375 
L 210.521875 9.9775 
" style="fill:none;stroke:#000000;stroke-linecap:square;stroke-linejoin:miter;stroke-width:0.8;"/>
   </g>
   <g id="patch_5">
    <path d="M 43.121875 231.7375 
L 210.521875 231.7375 
" style="fill:none;stroke:#000000;stroke-linecap:square;stroke-linejoin:miter;stroke-width:0.8;"/>
   </g>
   <g id="patch_6">
    <path d="M 43.121875 9.9775 
L 210.521875 9.9775 
" style="fill:none;stroke:#000000;stroke-linecap:square;stroke-linejoin:miter;stroke-width:0.8;"/>
   </g>
   <g id="legend_1">
    <g id="patch_7">
     <path d="M 143.339375 227.7375 
L 204.921875 227.7375 
Q 206.521875 227.7375 206.521875 226.1375 
L 206.521875 170.38125 
Q 206.521875 168.78125 204.921875 168.78125 
L 143.339375 168.78125 
Q 141.739375 168.78125 141.739375 170.38125 
L 141.739375 226.1375 
Q 141.739375 227.7375 143.339375 227.7375 
z
" style="fill:#ffffff;opacity:0.8;stroke:#cccccc;stroke-linejoin:miter;"/>
    </g>
    <g id="line2d_17">
     <path d="M 144.939375 174.78125 
L 160.939375 174.78125 
" style="fill:none;stroke:#00bfbf;stroke-dasharray:9.6,2.4,1.5,2.4;stroke-dashoffset:0;stroke-width:1.5;"/>
    </g>
    <g id="line2d_18">
     <g>
      <use style="fill:#00bfbf;stroke:#00bfbf;stroke-linejoin:miter;" x="152.939375" xlink:href="#m7ce4ff60bc" y="174.78125"/>
     </g>
    </g>
    <g id="text_14">
     <!-- Bot2vec -->
     <g transform="translate(167.339375 177.58125)scale(0.08 -0.08)">
      <defs>
       <path d="M 2956 2163 
Q 3397 2069 3616 1863 
Q 3919 1575 3919 1159 
Q 3919 844 3719 555 
Q 3519 266 3170 133 
Q 2822 0 2106 0 
L 106 0 
L 106 116 
L 266 116 
Q 531 116 647 284 
Q 719 394 719 750 
L 719 3488 
Q 719 3881 628 3984 
Q 506 4122 266 4122 
L 106 4122 
L 106 4238 
L 1938 4238 
Q 2450 4238 2759 4163 
Q 3228 4050 3475 3764 
Q 3722 3478 3722 3106 
Q 3722 2788 3528 2536 
Q 3334 2284 2956 2163 
z
M 1319 2331 
Q 1434 2309 1582 2298 
Q 1731 2288 1909 2288 
Q 2366 2288 2595 2386 
Q 2825 2484 2947 2687 
Q 3069 2891 3069 3131 
Q 3069 3503 2766 3765 
Q 2463 4028 1881 4028 
Q 1569 4028 1319 3959 
L 1319 2331 
z
M 1319 306 
Q 1681 222 2034 222 
Q 2600 222 2897 476 
Q 3194 731 3194 1106 
Q 3194 1353 3059 1581 
Q 2925 1809 2622 1940 
Q 2319 2072 1872 2072 
Q 1678 2072 1540 2065 
Q 1403 2059 1319 2044 
L 1319 306 
z
" id="TimesNewRomanPSMT-42" transform="scale(0.015625)"/>
       <path d="M 1600 2947 
Q 2250 2947 2644 2453 
Q 2978 2031 2978 1484 
Q 2978 1100 2793 706 
Q 2609 313 2286 112 
Q 1963 -88 1566 -88 
Q 919 -88 538 428 
Q 216 863 216 1403 
Q 216 1797 411 2186 
Q 606 2575 925 2761 
Q 1244 2947 1600 2947 
z
M 1503 2744 
Q 1338 2744 1170 2645 
Q 1003 2547 900 2300 
Q 797 2053 797 1666 
Q 797 1041 1045 587 
Q 1294 134 1700 134 
Q 2003 134 2200 384 
Q 2397 634 2397 1244 
Q 2397 2006 2069 2444 
Q 1847 2744 1503 2744 
z
" id="TimesNewRomanPSMT-6f" transform="scale(0.015625)"/>
       <path d="M 53 2863 
L 1400 2863 
L 1400 2747 
L 1313 2747 
Q 1191 2747 1127 2687 
Q 1063 2628 1063 2528 
Q 1063 2419 1128 2269 
L 1794 688 
L 2463 2328 
Q 2534 2503 2534 2594 
Q 2534 2638 2509 2666 
Q 2475 2713 2422 2730 
Q 2369 2747 2206 2747 
L 2206 2863 
L 3141 2863 
L 3141 2747 
Q 2978 2734 2916 2681 
Q 2806 2588 2719 2369 
L 1703 -88 
L 1575 -88 
L 553 2328 
Q 484 2497 421 2570 
Q 359 2644 263 2694 
Q 209 2722 53 2747 
L 53 2863 
z
" id="TimesNewRomanPSMT-76" transform="scale(0.015625)"/>
      </defs>
      <use xlink:href="#TimesNewRomanPSMT-42"/>
      <use x="66.699219" xlink:href="#TimesNewRomanPSMT-6f"/>
      <use x="116.699219" xlink:href="#TimesNewRomanPSMT-74"/>
      <use x="144.482422" xlink:href="#TimesNewRomanPSMT-32"/>
      <use x="194.482422" xlink:href="#TimesNewRomanPSMT-76"/>
      <use x="244.482422" xlink:href="#TimesNewRomanPSMT-65"/>
      <use x="288.867188" xlink:href="#TimesNewRomanPSMT-63"/>
     </g>
    </g>
    <g id="line2d_19">
     <path d="M 144.939375 186.0925 
L 160.939375 186.0925 
" style="fill:none;stroke:#0000ff;stroke-dasharray:9.6,2.4,1.5,2.4;stroke-dashoffset:0;stroke-width:1.5;"/>
    </g>
    <g id="line2d_20">
     <g>
      <use style="fill:#0000ff;stroke:#0000ff;stroke-linejoin:miter;" x="152.939375" xlink:href="#m8bf3fdfb0e" y="186.0925"/>
     </g>
    </g>
    <g id="text_15">
     <!-- Node2vec -->
     <g transform="translate(167.339375 188.8925)scale(0.08 -0.08)">
      <defs>
       <path d="M -84 4238 
L 1066 4238 
L 3656 1059 
L 3656 3503 
Q 3656 3894 3569 3991 
Q 3453 4122 3203 4122 
L 3056 4122 
L 3056 4238 
L 4531 4238 
L 4531 4122 
L 4381 4122 
Q 4113 4122 4000 3959 
Q 3931 3859 3931 3503 
L 3931 -69 
L 3819 -69 
L 1025 3344 
L 1025 734 
Q 1025 344 1109 247 
Q 1228 116 1475 116 
L 1625 116 
L 1625 0 
L 150 0 
L 150 116 
L 297 116 
Q 569 116 681 278 
Q 750 378 750 734 
L 750 3681 
Q 566 3897 470 3965 
Q 375 4034 191 4094 
Q 100 4122 -84 4122 
L -84 4238 
z
" id="TimesNewRomanPSMT-4e" transform="scale(0.015625)"/>
       <path d="M 2222 322 
Q 2013 103 1813 7 
Q 1613 -88 1381 -88 
Q 913 -88 563 304 
Q 213 697 213 1313 
Q 213 1928 600 2439 
Q 988 2950 1597 2950 
Q 1975 2950 2222 2709 
L 2222 3238 
Q 2222 3728 2198 3840 
Q 2175 3953 2125 3993 
Q 2075 4034 2000 4034 
Q 1919 4034 1784 3984 
L 1744 4094 
L 2597 4444 
L 2738 4444 
L 2738 1134 
Q 2738 631 2761 520 
Q 2784 409 2836 365 
Q 2888 322 2956 322 
Q 3041 322 3181 375 
L 3216 266 
L 2366 -88 
L 2222 -88 
L 2222 322 
z
M 2222 541 
L 2222 2016 
Q 2203 2228 2109 2403 
Q 2016 2578 1861 2667 
Q 1706 2756 1559 2756 
Q 1284 2756 1069 2509 
Q 784 2184 784 1559 
Q 784 928 1059 592 
Q 1334 256 1672 256 
Q 1956 256 2222 541 
z
" id="TimesNewRomanPSMT-64" transform="scale(0.015625)"/>
      </defs>
      <use xlink:href="#TimesNewRomanPSMT-4e"/>
      <use x="72.216797" xlink:href="#TimesNewRomanPSMT-6f"/>
      <use x="122.216797" xlink:href="#TimesNewRomanPSMT-64"/>
      <use x="172.216797" xlink:href="#TimesNewRomanPSMT-65"/>
      <use x="216.601562" xlink:href="#TimesNewRomanPSMT-32"/>
      <use x="266.601562" xlink:href="#TimesNewRomanPSMT-76"/>
      <use x="316.601562" xlink:href="#TimesNewRomanPSMT-65"/>
      <use x="360.986328" xlink:href="#TimesNewRomanPSMT-63"/>
     </g>
    </g>
    <g id="line2d_21">
     <path d="M 144.939375 197.40375 
L 160.939375 197.40375 
" style="fill:none;stroke:#bfbf00;stroke-dasharray:9.6,2.4,1.5,2.4;stroke-dashoffset:0;stroke-width:1.5;"/>
    </g>
    <g id="line2d_22">
     <g>
      <use style="fill:#bfbf00;stroke:#bfbf00;stroke-linejoin:miter;" x="152.939375" xlink:href="#m6e543280bc" y="197.40375"/>
     </g>
    </g>
    <g id="text_16">
     <!-- Deepwalk -->
     <g transform="translate(167.339375 200.20375)scale(0.08 -0.08)">
      <defs>
       <path d="M 109 0 
L 109 116 
L 269 116 
Q 538 116 650 288 
Q 719 391 719 750 
L 719 3488 
Q 719 3884 631 3984 
Q 509 4122 269 4122 
L 109 4122 
L 109 4238 
L 1834 4238 
Q 2784 4238 3279 4022 
Q 3775 3806 4076 3303 
Q 4378 2800 4378 2141 
Q 4378 1256 3841 663 
Q 3238 0 2003 0 
L 109 0 
z
M 1319 306 
Q 1716 219 1984 219 
Q 2709 219 3187 728 
Q 3666 1238 3666 2109 
Q 3666 2988 3187 3494 
Q 2709 4000 1959 4000 
Q 1678 4000 1319 3909 
L 1319 306 
z
" id="TimesNewRomanPSMT-44" transform="scale(0.015625)"/>
       <path d="M -6 2578 
L 875 2934 
L 994 2934 
L 994 2266 
Q 1216 2644 1439 2795 
Q 1663 2947 1909 2947 
Q 2341 2947 2628 2609 
Q 2981 2197 2981 1534 
Q 2981 794 2556 309 
Q 2206 -88 1675 -88 
Q 1444 -88 1275 -22 
Q 1150 25 994 166 
L 994 -706 
Q 994 -1000 1030 -1079 
Q 1066 -1159 1155 -1206 
Q 1244 -1253 1478 -1253 
L 1478 -1369 
L -22 -1369 
L -22 -1253 
L 56 -1253 
Q 228 -1256 350 -1188 
Q 409 -1153 442 -1076 
Q 475 -1000 475 -688 
L 475 2019 
Q 475 2297 450 2372 
Q 425 2447 370 2484 
Q 316 2522 222 2522 
Q 147 2522 31 2478 
L -6 2578 
z
M 994 2081 
L 994 1013 
Q 994 666 1022 556 
Q 1066 375 1236 237 
Q 1406 100 1666 100 
Q 1978 100 2172 344 
Q 2425 663 2425 1241 
Q 2425 1897 2138 2250 
Q 1938 2494 1663 2494 
Q 1513 2494 1366 2419 
Q 1253 2363 994 2081 
z
" id="TimesNewRomanPSMT-70" transform="scale(0.015625)"/>
       <path d="M 41 2863 
L 1241 2863 
L 1241 2747 
Q 1075 2734 1023 2687 
Q 972 2641 972 2553 
Q 972 2456 1025 2319 
L 1638 672 
L 2253 2013 
L 2091 2434 
Q 2016 2622 1894 2694 
Q 1825 2738 1638 2747 
L 1638 2863 
L 3000 2863 
L 3000 2747 
Q 2775 2738 2681 2666 
Q 2619 2616 2619 2506 
Q 2619 2444 2644 2378 
L 3294 734 
L 3897 2319 
Q 3959 2488 3959 2588 
Q 3959 2647 3898 2694 
Q 3838 2741 3659 2747 
L 3659 2863 
L 4563 2863 
L 4563 2747 
Q 4291 2706 4163 2378 
L 3206 -88 
L 3078 -88 
L 2363 1741 
L 1528 -88 
L 1413 -88 
L 494 2319 
Q 403 2547 315 2626 
Q 228 2706 41 2747 
L 41 2863 
z
" id="TimesNewRomanPSMT-77" transform="scale(0.015625)"/>
       <path d="M 1184 4444 
L 1184 647 
Q 1184 378 1223 290 
Q 1263 203 1344 158 
Q 1425 113 1647 113 
L 1647 0 
L 244 0 
L 244 113 
Q 441 113 512 153 
Q 584 194 625 287 
Q 666 381 666 647 
L 666 3247 
Q 666 3731 644 3842 
Q 622 3953 573 3993 
Q 525 4034 450 4034 
Q 369 4034 244 3984 
L 191 4094 
L 1044 4444 
L 1184 4444 
z
" id="TimesNewRomanPSMT-6c" transform="scale(0.015625)"/>
       <path d="M 1047 4444 
L 1047 1597 
L 1775 2259 
Q 2006 2472 2044 2528 
Q 2069 2566 2069 2603 
Q 2069 2666 2017 2711 
Q 1966 2756 1847 2763 
L 1847 2863 
L 3091 2863 
L 3091 2763 
Q 2834 2756 2664 2684 
Q 2494 2613 2291 2428 
L 1556 1750 
L 2291 822 
Q 2597 438 2703 334 
Q 2853 188 2966 144 
Q 3044 113 3238 113 
L 3238 0 
L 1847 0 
L 1847 113 
Q 1966 116 2008 148 
Q 2050 181 2050 241 
Q 2050 313 1925 472 
L 1047 1594 
L 1047 644 
Q 1047 366 1086 278 
Q 1125 191 1197 153 
Q 1269 116 1509 113 
L 1509 0 
L 53 0 
L 53 113 
Q 272 113 381 166 
Q 447 200 481 272 
Q 528 375 528 628 
L 528 3234 
Q 528 3731 506 3842 
Q 484 3953 434 3995 
Q 384 4038 303 4038 
Q 238 4038 106 3984 
L 53 4094 
L 903 4444 
L 1047 4444 
z
" id="TimesNewRomanPSMT-6b" transform="scale(0.015625)"/>
      </defs>
      <use xlink:href="#TimesNewRomanPSMT-44"/>
      <use x="72.216797" xlink:href="#TimesNewRomanPSMT-65"/>
      <use x="116.601562" xlink:href="#TimesNewRomanPSMT-65"/>
      <use x="160.986328" xlink:href="#TimesNewRomanPSMT-70"/>
      <use x="210.986328" xlink:href="#TimesNewRomanPSMT-77"/>
      <use x="283.203125" xlink:href="#TimesNewRomanPSMT-61"/>
      <use x="327.587891" xlink:href="#TimesNewRomanPSMT-6c"/>
      <use x="355.371094" xlink:href="#TimesNewRomanPSMT-6b"/>
     </g>
    </g>
    <g id="line2d_23">
     <path d="M 144.939375 208.715 
L 160.939375 208.715 
" style="fill:none;stroke:#008000;stroke-dasharray:9.6,2.4,1.5,2.4;stroke-dashoffset:0;stroke-width:1.5;"/>
    </g>
    <g id="line2d_24">
     <g>
      <use style="fill:#008000;stroke:#008000;stroke-linejoin:miter;" x="152.939375" xlink:href="#m8ba9f5f8f7" y="208.715"/>
     </g>
    </g>
    <g id="text_17">
     <!-- Struc2vec -->
     <g transform="translate(167.339375 211.515)scale(0.08 -0.08)">
      <defs>
       <path d="M 2934 4334 
L 2934 2869 
L 2819 2869 
Q 2763 3291 2617 3541 
Q 2472 3791 2203 3937 
Q 1934 4084 1647 4084 
Q 1322 4084 1109 3886 
Q 897 3688 897 3434 
Q 897 3241 1031 3081 
Q 1225 2847 1953 2456 
Q 2547 2138 2764 1967 
Q 2981 1797 3098 1565 
Q 3216 1334 3216 1081 
Q 3216 600 2842 251 
Q 2469 -97 1881 -97 
Q 1697 -97 1534 -69 
Q 1438 -53 1133 45 
Q 828 144 747 144 
Q 669 144 623 97 
Q 578 50 556 -97 
L 441 -97 
L 441 1356 
L 556 1356 
Q 638 900 775 673 
Q 913 447 1195 297 
Q 1478 147 1816 147 
Q 2206 147 2432 353 
Q 2659 559 2659 841 
Q 2659 997 2573 1156 
Q 2488 1316 2306 1453 
Q 2184 1547 1640 1851 
Q 1097 2156 867 2337 
Q 638 2519 519 2737 
Q 400 2956 400 3219 
Q 400 3675 750 4004 
Q 1100 4334 1641 4334 
Q 1978 4334 2356 4169 
Q 2531 4091 2603 4091 
Q 2684 4091 2736 4139 
Q 2788 4188 2819 4334 
L 2934 4334 
z
" id="TimesNewRomanPSMT-53" transform="scale(0.015625)"/>
      </defs>
      <use xlink:href="#TimesNewRomanPSMT-53"/>
      <use x="55.615234" xlink:href="#TimesNewRomanPSMT-74"/>
      <use x="83.398438" xlink:href="#TimesNewRomanPSMT-72"/>
      <use x="116.699219" xlink:href="#TimesNewRomanPSMT-75"/>
      <use x="166.699219" xlink:href="#TimesNewRomanPSMT-63"/>
      <use x="211.083984" xlink:href="#TimesNewRomanPSMT-32"/>
      <use x="261.083984" xlink:href="#TimesNewRomanPSMT-76"/>
      <use x="311.083984" xlink:href="#TimesNewRomanPSMT-65"/>
      <use x="355.46875" xlink:href="#TimesNewRomanPSMT-63"/>
     </g>
    </g>
    <g id="line2d_25">
     <path d="M 144.939375 220.02625 
L 160.939375 220.02625 
" style="fill:none;stroke:#ff0000;stroke-dasharray:9.6,2.4,1.5,2.4;stroke-dashoffset:0;stroke-width:1.5;"/>
    </g>
    <g id="line2d_26">
     <g>
      <use style="fill:#ff0000;stroke:#ff0000;stroke-linejoin:miter;" x="152.939375" xlink:href="#m00e85ca26f" y="220.02625"/>
     </g>
    </g>
    <g id="text_18">
     <!-- Accou2vec -->
     <g transform="translate(167.339375 222.82625)scale(0.08 -0.08)">
      <use xlink:href="#TimesNewRomanPSMT-41"/>
      <use x="72.216797" xlink:href="#TimesNewRomanPSMT-63"/>
      <use x="116.601562" xlink:href="#TimesNewRomanPSMT-63"/>
      <use x="160.986328" xlink:href="#TimesNewRomanPSMT-6f"/>
      <use x="210.986328" xlink:href="#TimesNewRomanPSMT-75"/>
      <use x="260.986328" xlink:href="#TimesNewRomanPSMT-32"/>
      <use x="310.986328" xlink:href="#TimesNewRomanPSMT-76"/>
      <use x="360.986328" xlink:href="#TimesNewRomanPSMT-65"/>
      <use x="405.371094" xlink:href="#TimesNewRomanPSMT-63"/>
     </g>
    </g>
   </g>
  </g>
 </g>
 <defs>
  <clipPath id="p058dae292b">
   <rect height="221.76" width="167.4" x="43.121875" y="9.9775"/>
  </clipPath>
 </defs>
</svg>
