<?xml version="1.0" encoding="utf-8" standalone="no"?>
<!DOCTYPE svg PUBLIC "-//W3C//DTD SVG 1.1//EN"
  "http://www.w3.org/Graphics/SVG/1.1/DTD/svg11.dtd">
<svg height="267.7375pt" version="1.1" viewBox="0 0 387.0025 267.7375" width="387.0025pt" xmlns="http://www.w3.org/2000/svg" xmlns:xlink="http://www.w3.org/1999/xlink">
 <metadata>
  <rdf:RDF xmlns:cc="http://creativecommons.org/ns#" xmlns:dc="http://purl.org/dc/elements/1.1/" xmlns:rdf="http://www.w3.org/1999/02/22-rdf-syntax-ns#">
   <cc:Work>
    <dc:type rdf:resource="http://purl.org/dc/dcmitype/StillImage"/>
    <dc:date>2022-05-20T16:00:23.089628</dc:date>
    <dc:format>image/svg+xml</dc:format>
    <dc:creator>
     <cc:Agent>
      <dc:title>Matplotlib v3.4.2, https://matplotlib.org/</dc:title>
     </cc:Agent>
    </dc:creator>
   </cc:Work>
  </rdf:RDF>
 </metadata>
 <defs>
  <style type="text/css">*{stroke-linecap:butt;stroke-linejoin:round;}</style>
 </defs>
 <g id="figure_1">
  <g id="patch_1">
   <path d="M 0 267.7375 
L 387.0025 267.7375 
L 387.0025 0 
L 0 0 
z
" style="fill:#ffffff;"/>
  </g>
  <g id="axes_1">
   <g id="patch_2">
    <path d="M 45.0025 228.96 
L 379.8025 228.96 
L 379.8025 7.2 
L 45.0025 7.2 
z
" style="fill:#ffffff;"/>
   </g>
   <g id="matplotlib.axis_1">
    <g id="xtick_1">
     <g id="line2d_1">
      <defs>
       <path d="M 0 0 
L 0 3.5 
" id="mc9d14cf557" style="stroke:#000000;stroke-width:0.8;"/>
      </defs>
      <g>
       <use style="stroke:#000000;stroke-width:0.8;" x="60.220682" xlink:href="#mc9d14cf557" y="228.96"/>
      </g>
     </g>
     <g id="text_1">
      <!-- 0.0 -->
      <g transform="translate(52.269119 243.558438)scale(0.1 -0.1)">
       <defs>
        <path d="M 2034 4250 
Q 1547 4250 1301 3770 
Q 1056 3291 1056 2328 
Q 1056 1369 1301 889 
Q 1547 409 2034 409 
Q 2525 409 2770 889 
Q 3016 1369 3016 2328 
Q 3016 3291 2770 3770 
Q 2525 4250 2034 4250 
z
M 2034 4750 
Q 2819 4750 3233 4129 
Q 3647 3509 3647 2328 
Q 3647 1150 3233 529 
Q 2819 -91 2034 -91 
Q 1250 -91 836 529 
Q 422 1150 422 2328 
Q 422 3509 836 4129 
Q 1250 4750 2034 4750 
z
" id="DejaVuSans-30" transform="scale(0.015625)"/>
        <path d="M 684 794 
L 1344 794 
L 1344 0 
L 684 0 
L 684 794 
z
" id="DejaVuSans-2e" transform="scale(0.015625)"/>
       </defs>
       <use xlink:href="#DejaVuSans-30"/>
       <use x="63.623047" xlink:href="#DejaVuSans-2e"/>
       <use x="95.410156" xlink:href="#DejaVuSans-30"/>
      </g>
     </g>
    </g>
    <g id="xtick_2">
     <g id="line2d_2">
      <g>
       <use style="stroke:#000000;stroke-width:0.8;" x="121.093409" xlink:href="#mc9d14cf557" y="228.96"/>
      </g>
     </g>
     <g id="text_2">
      <!-- 0.2 -->
      <g transform="translate(113.141847 243.558438)scale(0.1 -0.1)">
       <defs>
        <path d="M 1228 531 
L 3431 531 
L 3431 0 
L 469 0 
L 469 531 
Q 828 903 1448 1529 
Q 2069 2156 2228 2338 
Q 2531 2678 2651 2914 
Q 2772 3150 2772 3378 
Q 2772 3750 2511 3984 
Q 2250 4219 1831 4219 
Q 1534 4219 1204 4116 
Q 875 4013 500 3803 
L 500 4441 
Q 881 4594 1212 4672 
Q 1544 4750 1819 4750 
Q 2544 4750 2975 4387 
Q 3406 4025 3406 3419 
Q 3406 3131 3298 2873 
Q 3191 2616 2906 2266 
Q 2828 2175 2409 1742 
Q 1991 1309 1228 531 
z
" id="DejaVuSans-32" transform="scale(0.015625)"/>
       </defs>
       <use xlink:href="#DejaVuSans-30"/>
       <use x="63.623047" xlink:href="#DejaVuSans-2e"/>
       <use x="95.410156" xlink:href="#DejaVuSans-32"/>
      </g>
     </g>
    </g>
    <g id="xtick_3">
     <g id="line2d_3">
      <g>
       <use style="stroke:#000000;stroke-width:0.8;" x="181.966136" xlink:href="#mc9d14cf557" y="228.96"/>
      </g>
     </g>
     <g id="text_3">
      <!-- 0.4 -->
      <g transform="translate(174.014574 243.558438)scale(0.1 -0.1)">
       <defs>
        <path d="M 2419 4116 
L 825 1625 
L 2419 1625 
L 2419 4116 
z
M 2253 4666 
L 3047 4666 
L 3047 1625 
L 3713 1625 
L 3713 1100 
L 3047 1100 
L 3047 0 
L 2419 0 
L 2419 1100 
L 313 1100 
L 313 1709 
L 2253 4666 
z
" id="DejaVuSans-34" transform="scale(0.015625)"/>
       </defs>
       <use xlink:href="#DejaVuSans-30"/>
       <use x="63.623047" xlink:href="#DejaVuSans-2e"/>
       <use x="95.410156" xlink:href="#DejaVuSans-34"/>
      </g>
     </g>
    </g>
    <g id="xtick_4">
     <g id="line2d_4">
      <g>
       <use style="stroke:#000000;stroke-width:0.8;" x="242.838864" xlink:href="#mc9d14cf557" y="228.96"/>
      </g>
     </g>
     <g id="text_4">
      <!-- 0.6 -->
      <g transform="translate(234.887301 243.558438)scale(0.1 -0.1)">
       <defs>
        <path d="M 2113 2584 
Q 1688 2584 1439 2293 
Q 1191 2003 1191 1497 
Q 1191 994 1439 701 
Q 1688 409 2113 409 
Q 2538 409 2786 701 
Q 3034 994 3034 1497 
Q 3034 2003 2786 2293 
Q 2538 2584 2113 2584 
z
M 3366 4563 
L 3366 3988 
Q 3128 4100 2886 4159 
Q 2644 4219 2406 4219 
Q 1781 4219 1451 3797 
Q 1122 3375 1075 2522 
Q 1259 2794 1537 2939 
Q 1816 3084 2150 3084 
Q 2853 3084 3261 2657 
Q 3669 2231 3669 1497 
Q 3669 778 3244 343 
Q 2819 -91 2113 -91 
Q 1303 -91 875 529 
Q 447 1150 447 2328 
Q 447 3434 972 4092 
Q 1497 4750 2381 4750 
Q 2619 4750 2861 4703 
Q 3103 4656 3366 4563 
z
" id="DejaVuSans-36" transform="scale(0.015625)"/>
       </defs>
       <use xlink:href="#DejaVuSans-30"/>
       <use x="63.623047" xlink:href="#DejaVuSans-2e"/>
       <use x="95.410156" xlink:href="#DejaVuSans-36"/>
      </g>
     </g>
    </g>
    <g id="xtick_5">
     <g id="line2d_5">
      <g>
       <use style="stroke:#000000;stroke-width:0.8;" x="303.711591" xlink:href="#mc9d14cf557" y="228.96"/>
      </g>
     </g>
     <g id="text_5">
      <!-- 0.8 -->
      <g transform="translate(295.760028 243.558438)scale(0.1 -0.1)">
       <defs>
        <path d="M 2034 2216 
Q 1584 2216 1326 1975 
Q 1069 1734 1069 1313 
Q 1069 891 1326 650 
Q 1584 409 2034 409 
Q 2484 409 2743 651 
Q 3003 894 3003 1313 
Q 3003 1734 2745 1975 
Q 2488 2216 2034 2216 
z
M 1403 2484 
Q 997 2584 770 2862 
Q 544 3141 544 3541 
Q 544 4100 942 4425 
Q 1341 4750 2034 4750 
Q 2731 4750 3128 4425 
Q 3525 4100 3525 3541 
Q 3525 3141 3298 2862 
Q 3072 2584 2669 2484 
Q 3125 2378 3379 2068 
Q 3634 1759 3634 1313 
Q 3634 634 3220 271 
Q 2806 -91 2034 -91 
Q 1263 -91 848 271 
Q 434 634 434 1313 
Q 434 1759 690 2068 
Q 947 2378 1403 2484 
z
M 1172 3481 
Q 1172 3119 1398 2916 
Q 1625 2713 2034 2713 
Q 2441 2713 2670 2916 
Q 2900 3119 2900 3481 
Q 2900 3844 2670 4047 
Q 2441 4250 2034 4250 
Q 1625 4250 1398 4047 
Q 1172 3844 1172 3481 
z
" id="DejaVuSans-38" transform="scale(0.015625)"/>
       </defs>
       <use xlink:href="#DejaVuSans-30"/>
       <use x="63.623047" xlink:href="#DejaVuSans-2e"/>
       <use x="95.410156" xlink:href="#DejaVuSans-38"/>
      </g>
     </g>
    </g>
    <g id="xtick_6">
     <g id="line2d_6">
      <g>
       <use style="stroke:#000000;stroke-width:0.8;" x="364.584318" xlink:href="#mc9d14cf557" y="228.96"/>
      </g>
     </g>
     <g id="text_6">
      <!-- 1.0 -->
      <g transform="translate(356.632756 243.558438)scale(0.1 -0.1)">
       <defs>
        <path d="M 794 531 
L 1825 531 
L 1825 4091 
L 703 3866 
L 703 4441 
L 1819 4666 
L 2450 4666 
L 2450 531 
L 3481 531 
L 3481 0 
L 794 0 
L 794 531 
z
" id="DejaVuSans-31" transform="scale(0.015625)"/>
       </defs>
       <use xlink:href="#DejaVuSans-31"/>
       <use x="63.623047" xlink:href="#DejaVuSans-2e"/>
       <use x="95.410156" xlink:href="#DejaVuSans-30"/>
      </g>
     </g>
    </g>
    <g id="text_7">
     <!-- False Positive Rate -->
     <g transform="translate(166.405 257.970625)scale(0.12 -0.12)">
      <defs>
       <path d="M 1309 4006 
L 1309 2341 
L 2081 2341 
Q 2347 2341 2470 2458 
Q 2594 2575 2634 2922 
L 2750 2922 
L 2750 1488 
L 2634 1488 
Q 2631 1734 2570 1850 
Q 2509 1966 2401 2023 
Q 2294 2081 2081 2081 
L 1309 2081 
L 1309 750 
Q 1309 428 1350 325 
Q 1381 247 1481 191 
Q 1619 116 1769 116 
L 1922 116 
L 1922 0 
L 103 0 
L 103 116 
L 253 116 
Q 516 116 634 269 
Q 709 369 709 750 
L 709 3488 
Q 709 3809 669 3913 
Q 638 3991 541 4047 
Q 406 4122 253 4122 
L 103 4122 
L 103 4238 
L 3256 4238 
L 3297 3306 
L 3188 3306 
Q 3106 3603 2998 3742 
Q 2891 3881 2733 3943 
Q 2575 4006 2244 4006 
L 1309 4006 
z
" id="TimesNewRomanPSMT-46" transform="scale(0.015625)"/>
       <path d="M 1822 413 
Q 1381 72 1269 19 
Q 1100 -59 909 -59 
Q 613 -59 420 144 
Q 228 347 228 678 
Q 228 888 322 1041 
Q 450 1253 767 1440 
Q 1084 1628 1822 1897 
L 1822 2009 
Q 1822 2438 1686 2597 
Q 1550 2756 1291 2756 
Q 1094 2756 978 2650 
Q 859 2544 859 2406 
L 866 2225 
Q 866 2081 792 2003 
Q 719 1925 600 1925 
Q 484 1925 411 2006 
Q 338 2088 338 2228 
Q 338 2497 613 2722 
Q 888 2947 1384 2947 
Q 1766 2947 2009 2819 
Q 2194 2722 2281 2516 
Q 2338 2381 2338 1966 
L 2338 994 
Q 2338 584 2353 492 
Q 2369 400 2405 369 
Q 2441 338 2488 338 
Q 2538 338 2575 359 
Q 2641 400 2828 588 
L 2828 413 
Q 2478 -56 2159 -56 
Q 2006 -56 1915 50 
Q 1825 156 1822 413 
z
M 1822 616 
L 1822 1706 
Q 1350 1519 1213 1441 
Q 966 1303 859 1153 
Q 753 1003 753 825 
Q 753 600 887 451 
Q 1022 303 1197 303 
Q 1434 303 1822 616 
z
" id="TimesNewRomanPSMT-61" transform="scale(0.015625)"/>
       <path d="M 1184 4444 
L 1184 647 
Q 1184 378 1223 290 
Q 1263 203 1344 158 
Q 1425 113 1647 113 
L 1647 0 
L 244 0 
L 244 113 
Q 441 113 512 153 
Q 584 194 625 287 
Q 666 381 666 647 
L 666 3247 
Q 666 3731 644 3842 
Q 622 3953 573 3993 
Q 525 4034 450 4034 
Q 369 4034 244 3984 
L 191 4094 
L 1044 4444 
L 1184 4444 
z
" id="TimesNewRomanPSMT-6c" transform="scale(0.015625)"/>
       <path d="M 2050 2947 
L 2050 1972 
L 1947 1972 
Q 1828 2431 1642 2597 
Q 1456 2763 1169 2763 
Q 950 2763 815 2647 
Q 681 2531 681 2391 
Q 681 2216 781 2091 
Q 878 1963 1175 1819 
L 1631 1597 
Q 2266 1288 2266 781 
Q 2266 391 1970 151 
Q 1675 -88 1309 -88 
Q 1047 -88 709 6 
Q 606 38 541 38 
Q 469 38 428 -44 
L 325 -44 
L 325 978 
L 428 978 
Q 516 541 762 319 
Q 1009 97 1316 97 
Q 1531 97 1667 223 
Q 1803 350 1803 528 
Q 1803 744 1651 891 
Q 1500 1038 1047 1263 
Q 594 1488 453 1669 
Q 313 1847 313 2119 
Q 313 2472 555 2709 
Q 797 2947 1181 2947 
Q 1350 2947 1591 2875 
Q 1750 2828 1803 2828 
Q 1853 2828 1881 2850 
Q 1909 2872 1947 2947 
L 2050 2947 
z
" id="TimesNewRomanPSMT-73" transform="scale(0.015625)"/>
       <path d="M 681 1784 
Q 678 1147 991 784 
Q 1303 422 1725 422 
Q 2006 422 2214 576 
Q 2422 731 2563 1106 
L 2659 1044 
Q 2594 616 2278 264 
Q 1963 -88 1488 -88 
Q 972 -88 605 314 
Q 238 716 238 1394 
Q 238 2128 614 2539 
Q 991 2950 1559 2950 
Q 2041 2950 2350 2633 
Q 2659 2316 2659 1784 
L 681 1784 
z
M 681 1966 
L 2006 1966 
Q 1991 2241 1941 2353 
Q 1863 2528 1708 2628 
Q 1553 2728 1384 2728 
Q 1125 2728 920 2526 
Q 716 2325 681 1966 
z
" id="TimesNewRomanPSMT-65" transform="scale(0.015625)"/>
       <path id="TimesNewRomanPSMT-20" transform="scale(0.015625)"/>
       <path d="M 1313 1984 
L 1313 750 
Q 1313 350 1400 253 
Q 1519 116 1759 116 
L 1922 116 
L 1922 0 
L 106 0 
L 106 116 
L 266 116 
Q 534 116 650 291 
Q 713 388 713 750 
L 713 3488 
Q 713 3888 628 3984 
Q 506 4122 266 4122 
L 106 4122 
L 106 4238 
L 1659 4238 
Q 2228 4238 2556 4120 
Q 2884 4003 3109 3725 
Q 3334 3447 3334 3066 
Q 3334 2547 2992 2222 
Q 2650 1897 2025 1897 
Q 1872 1897 1694 1919 
Q 1516 1941 1313 1984 
z
M 1313 2163 
Q 1478 2131 1606 2115 
Q 1734 2100 1825 2100 
Q 2150 2100 2386 2351 
Q 2622 2603 2622 3003 
Q 2622 3278 2509 3514 
Q 2397 3750 2190 3867 
Q 1984 3984 1722 3984 
Q 1563 3984 1313 3925 
L 1313 2163 
z
" id="TimesNewRomanPSMT-50" transform="scale(0.015625)"/>
       <path d="M 1600 2947 
Q 2250 2947 2644 2453 
Q 2978 2031 2978 1484 
Q 2978 1100 2793 706 
Q 2609 313 2286 112 
Q 1963 -88 1566 -88 
Q 919 -88 538 428 
Q 216 863 216 1403 
Q 216 1797 411 2186 
Q 606 2575 925 2761 
Q 1244 2947 1600 2947 
z
M 1503 2744 
Q 1338 2744 1170 2645 
Q 1003 2547 900 2300 
Q 797 2053 797 1666 
Q 797 1041 1045 587 
Q 1294 134 1700 134 
Q 2003 134 2200 384 
Q 2397 634 2397 1244 
Q 2397 2006 2069 2444 
Q 1847 2744 1503 2744 
z
" id="TimesNewRomanPSMT-6f" transform="scale(0.015625)"/>
       <path d="M 928 4444 
Q 1059 4444 1151 4351 
Q 1244 4259 1244 4128 
Q 1244 3997 1151 3903 
Q 1059 3809 928 3809 
Q 797 3809 703 3903 
Q 609 3997 609 4128 
Q 609 4259 701 4351 
Q 794 4444 928 4444 
z
M 1188 2947 
L 1188 647 
Q 1188 378 1227 289 
Q 1266 200 1342 156 
Q 1419 113 1622 113 
L 1622 0 
L 231 0 
L 231 113 
Q 441 113 512 153 
Q 584 194 626 287 
Q 669 381 669 647 
L 669 1750 
Q 669 2216 641 2353 
Q 619 2453 572 2492 
Q 525 2531 444 2531 
Q 356 2531 231 2484 
L 188 2597 
L 1050 2947 
L 1188 2947 
z
" id="TimesNewRomanPSMT-69" transform="scale(0.015625)"/>
       <path d="M 1031 3803 
L 1031 2863 
L 1700 2863 
L 1700 2644 
L 1031 2644 
L 1031 788 
Q 1031 509 1111 412 
Q 1191 316 1316 316 
Q 1419 316 1516 380 
Q 1613 444 1666 569 
L 1788 569 
Q 1678 263 1478 108 
Q 1278 -47 1066 -47 
Q 922 -47 784 33 
Q 647 113 581 261 
Q 516 409 516 719 
L 516 2644 
L 63 2644 
L 63 2747 
Q 234 2816 414 2980 
Q 594 3144 734 3369 
Q 806 3488 934 3803 
L 1031 3803 
z
" id="TimesNewRomanPSMT-74" transform="scale(0.015625)"/>
       <path d="M 53 2863 
L 1400 2863 
L 1400 2747 
L 1313 2747 
Q 1191 2747 1127 2687 
Q 1063 2628 1063 2528 
Q 1063 2419 1128 2269 
L 1794 688 
L 2463 2328 
Q 2534 2503 2534 2594 
Q 2534 2638 2509 2666 
Q 2475 2713 2422 2730 
Q 2369 2747 2206 2747 
L 2206 2863 
L 3141 2863 
L 3141 2747 
Q 2978 2734 2916 2681 
Q 2806 2588 2719 2369 
L 1703 -88 
L 1575 -88 
L 553 2328 
Q 484 2497 421 2570 
Q 359 2644 263 2694 
Q 209 2722 53 2747 
L 53 2863 
z
" id="TimesNewRomanPSMT-76" transform="scale(0.015625)"/>
       <path d="M 4325 0 
L 3194 0 
L 1759 1981 
Q 1600 1975 1500 1975 
Q 1459 1975 1412 1976 
Q 1366 1978 1316 1981 
L 1316 750 
Q 1316 350 1403 253 
Q 1522 116 1759 116 
L 1925 116 
L 1925 0 
L 109 0 
L 109 116 
L 269 116 
Q 538 116 653 291 
Q 719 388 719 750 
L 719 3488 
Q 719 3888 631 3984 
Q 509 4122 269 4122 
L 109 4122 
L 109 4238 
L 1653 4238 
Q 2328 4238 2648 4139 
Q 2969 4041 3192 3777 
Q 3416 3513 3416 3147 
Q 3416 2756 3161 2468 
Q 2906 2181 2372 2063 
L 3247 847 
Q 3547 428 3762 290 
Q 3978 153 4325 116 
L 4325 0 
z
M 1316 2178 
Q 1375 2178 1419 2176 
Q 1463 2175 1491 2175 
Q 2097 2175 2405 2437 
Q 2713 2700 2713 3106 
Q 2713 3503 2464 3751 
Q 2216 4000 1806 4000 
Q 1625 4000 1316 3941 
L 1316 2178 
z
" id="TimesNewRomanPSMT-52" transform="scale(0.015625)"/>
      </defs>
      <use xlink:href="#TimesNewRomanPSMT-46"/>
      <use x="55.615234" xlink:href="#TimesNewRomanPSMT-61"/>
      <use x="100" xlink:href="#TimesNewRomanPSMT-6c"/>
      <use x="127.783203" xlink:href="#TimesNewRomanPSMT-73"/>
      <use x="166.699219" xlink:href="#TimesNewRomanPSMT-65"/>
      <use x="211.083984" xlink:href="#TimesNewRomanPSMT-20"/>
      <use x="236.083984" xlink:href="#TimesNewRomanPSMT-50"/>
      <use x="291.699219" xlink:href="#TimesNewRomanPSMT-6f"/>
      <use x="341.699219" xlink:href="#TimesNewRomanPSMT-73"/>
      <use x="380.615234" xlink:href="#TimesNewRomanPSMT-69"/>
      <use x="408.398438" xlink:href="#TimesNewRomanPSMT-74"/>
      <use x="436.181641" xlink:href="#TimesNewRomanPSMT-69"/>
      <use x="463.964844" xlink:href="#TimesNewRomanPSMT-76"/>
      <use x="513.964844" xlink:href="#TimesNewRomanPSMT-65"/>
      <use x="558.349609" xlink:href="#TimesNewRomanPSMT-20"/>
      <use x="583.349609" xlink:href="#TimesNewRomanPSMT-52"/>
      <use x="650.048828" xlink:href="#TimesNewRomanPSMT-61"/>
      <use x="694.433594" xlink:href="#TimesNewRomanPSMT-74"/>
      <use x="722.216797" xlink:href="#TimesNewRomanPSMT-65"/>
     </g>
    </g>
   </g>
   <g id="matplotlib.axis_2">
    <g id="ytick_1">
     <g id="line2d_7">
      <defs>
       <path d="M 0 0 
L -3.5 0 
" id="m388067295f" style="stroke:#000000;stroke-width:0.8;"/>
      </defs>
      <g>
       <use style="stroke:#000000;stroke-width:0.8;" x="45.0025" xlink:href="#m388067295f" y="218.88"/>
      </g>
     </g>
     <g id="text_8">
      <!-- 0.0 -->
      <g transform="translate(22.099375 222.679219)scale(0.1 -0.1)">
       <use xlink:href="#DejaVuSans-30"/>
       <use x="63.623047" xlink:href="#DejaVuSans-2e"/>
       <use x="95.410156" xlink:href="#DejaVuSans-30"/>
      </g>
     </g>
    </g>
    <g id="ytick_2">
     <g id="line2d_8">
      <g>
       <use style="stroke:#000000;stroke-width:0.8;" x="45.0025" xlink:href="#m388067295f" y="178.56"/>
      </g>
     </g>
     <g id="text_9">
      <!-- 0.2 -->
      <g transform="translate(22.099375 182.359219)scale(0.1 -0.1)">
       <use xlink:href="#DejaVuSans-30"/>
       <use x="63.623047" xlink:href="#DejaVuSans-2e"/>
       <use x="95.410156" xlink:href="#DejaVuSans-32"/>
      </g>
     </g>
    </g>
    <g id="ytick_3">
     <g id="line2d_9">
      <g>
       <use style="stroke:#000000;stroke-width:0.8;" x="45.0025" xlink:href="#m388067295f" y="138.24"/>
      </g>
     </g>
     <g id="text_10">
      <!-- 0.4 -->
      <g transform="translate(22.099375 142.039219)scale(0.1 -0.1)">
       <use xlink:href="#DejaVuSans-30"/>
       <use x="63.623047" xlink:href="#DejaVuSans-2e"/>
       <use x="95.410156" xlink:href="#DejaVuSans-34"/>
      </g>
     </g>
    </g>
    <g id="ytick_4">
     <g id="line2d_10">
      <g>
       <use style="stroke:#000000;stroke-width:0.8;" x="45.0025" xlink:href="#m388067295f" y="97.92"/>
      </g>
     </g>
     <g id="text_11">
      <!-- 0.6 -->
      <g transform="translate(22.099375 101.719219)scale(0.1 -0.1)">
       <use xlink:href="#DejaVuSans-30"/>
       <use x="63.623047" xlink:href="#DejaVuSans-2e"/>
       <use x="95.410156" xlink:href="#DejaVuSans-36"/>
      </g>
     </g>
    </g>
    <g id="ytick_5">
     <g id="line2d_11">
      <g>
       <use style="stroke:#000000;stroke-width:0.8;" x="45.0025" xlink:href="#m388067295f" y="57.6"/>
      </g>
     </g>
     <g id="text_12">
      <!-- 0.8 -->
      <g transform="translate(22.099375 61.399219)scale(0.1 -0.1)">
       <use xlink:href="#DejaVuSans-30"/>
       <use x="63.623047" xlink:href="#DejaVuSans-2e"/>
       <use x="95.410156" xlink:href="#DejaVuSans-38"/>
      </g>
     </g>
    </g>
    <g id="ytick_6">
     <g id="line2d_12">
      <g>
       <use style="stroke:#000000;stroke-width:0.8;" x="45.0025" xlink:href="#m388067295f" y="17.28"/>
      </g>
     </g>
     <g id="text_13">
      <!-- 1.0 -->
      <g transform="translate(22.099375 21.079219)scale(0.1 -0.1)">
       <use xlink:href="#DejaVuSans-31"/>
       <use x="63.623047" xlink:href="#DejaVuSans-2e"/>
       <use x="95.410156" xlink:href="#DejaVuSans-30"/>
      </g>
     </g>
    </g>
    <g id="text_14">
     <!-- True Positive Rate -->
     <g transform="translate(15.5325 162.527812)rotate(-90)scale(0.12 -0.12)">
      <defs>
       <path d="M 3703 4238 
L 3750 3244 
L 3631 3244 
Q 3597 3506 3538 3619 
Q 3441 3800 3280 3886 
Q 3119 3972 2856 3972 
L 2259 3972 
L 2259 734 
Q 2259 344 2344 247 
Q 2463 116 2709 116 
L 2856 116 
L 2856 0 
L 1059 0 
L 1059 116 
L 1209 116 
Q 1478 116 1591 278 
Q 1659 378 1659 734 
L 1659 3972 
L 1150 3972 
Q 853 3972 728 3928 
Q 566 3869 450 3700 
Q 334 3531 313 3244 
L 194 3244 
L 244 4238 
L 3703 4238 
z
" id="TimesNewRomanPSMT-54" transform="scale(0.015625)"/>
       <path d="M 1038 2947 
L 1038 2303 
Q 1397 2947 1775 2947 
Q 1947 2947 2059 2842 
Q 2172 2738 2172 2600 
Q 2172 2478 2090 2393 
Q 2009 2309 1897 2309 
Q 1788 2309 1652 2417 
Q 1516 2525 1450 2525 
Q 1394 2525 1328 2463 
Q 1188 2334 1038 2041 
L 1038 669 
Q 1038 431 1097 309 
Q 1138 225 1241 169 
Q 1344 113 1538 113 
L 1538 0 
L 72 0 
L 72 113 
Q 291 113 397 181 
Q 475 231 506 341 
Q 522 394 522 644 
L 522 1753 
Q 522 2253 501 2348 
Q 481 2444 426 2487 
Q 372 2531 291 2531 
Q 194 2531 72 2484 
L 41 2597 
L 906 2947 
L 1038 2947 
z
" id="TimesNewRomanPSMT-72" transform="scale(0.015625)"/>
       <path d="M 2709 2863 
L 2709 1128 
Q 2709 631 2732 520 
Q 2756 409 2807 365 
Q 2859 322 2928 322 
Q 3025 322 3147 375 
L 3191 266 
L 2334 -88 
L 2194 -88 
L 2194 519 
Q 1825 119 1631 15 
Q 1438 -88 1222 -88 
Q 981 -88 804 51 
Q 628 191 559 409 
Q 491 628 491 1028 
L 491 2306 
Q 491 2509 447 2587 
Q 403 2666 317 2708 
Q 231 2750 6 2747 
L 6 2863 
L 1009 2863 
L 1009 947 
Q 1009 547 1148 422 
Q 1288 297 1484 297 
Q 1619 297 1789 381 
Q 1959 466 2194 703 
L 2194 2325 
Q 2194 2569 2105 2655 
Q 2016 2741 1734 2747 
L 1734 2863 
L 2709 2863 
z
" id="TimesNewRomanPSMT-75" transform="scale(0.015625)"/>
      </defs>
      <use xlink:href="#TimesNewRomanPSMT-54"/>
      <use x="57.583984" xlink:href="#TimesNewRomanPSMT-72"/>
      <use x="90.884766" xlink:href="#TimesNewRomanPSMT-75"/>
      <use x="140.884766" xlink:href="#TimesNewRomanPSMT-65"/>
      <use x="185.269531" xlink:href="#TimesNewRomanPSMT-20"/>
      <use x="210.269531" xlink:href="#TimesNewRomanPSMT-50"/>
      <use x="265.884766" xlink:href="#TimesNewRomanPSMT-6f"/>
      <use x="315.884766" xlink:href="#TimesNewRomanPSMT-73"/>
      <use x="354.800781" xlink:href="#TimesNewRomanPSMT-69"/>
      <use x="382.583984" xlink:href="#TimesNewRomanPSMT-74"/>
      <use x="410.367188" xlink:href="#TimesNewRomanPSMT-69"/>
      <use x="438.150391" xlink:href="#TimesNewRomanPSMT-76"/>
      <use x="488.150391" xlink:href="#TimesNewRomanPSMT-65"/>
      <use x="532.535156" xlink:href="#TimesNewRomanPSMT-20"/>
      <use x="557.535156" xlink:href="#TimesNewRomanPSMT-52"/>
      <use x="624.234375" xlink:href="#TimesNewRomanPSMT-61"/>
      <use x="668.619141" xlink:href="#TimesNewRomanPSMT-74"/>
      <use x="696.402344" xlink:href="#TimesNewRomanPSMT-65"/>
     </g>
    </g>
   </g>
   <g id="line2d_13">
    <path clip-path="url(#p1b403b59fc)" d="M 60.220682 218.88 
L 60.220682 218.555884 
L 60.220682 217.259421 
L 60.495626 217.259421 
L 60.495626 215.314727 
L 60.770571 215.314727 
L 60.770571 208.832412 
L 61.045516 208.832412 
L 61.045516 202.674212 
L 61.32046 202.674212 
L 61.32046 201.377749 
L 61.595405 201.377749 
L 61.595405 197.812476 
L 61.870349 197.812476 
L 61.870349 197.164244 
L 62.145294 197.164244 
L 62.145294 196.840129 
L 62.695183 196.840129 
L 62.695183 185.171961 
L 62.970127 185.171961 
L 62.970127 178.365531 
L 63.245072 178.365531 
L 63.245072 177.717299 
L 64.069906 177.717299 
L 64.069906 177.393183 
L 64.34485 177.393183 
L 64.34485 166.697363 
L 64.619795 166.697363 
L 64.619795 166.373248 
L 64.894739 166.373248 
L 64.894739 161.835627 
L 65.169684 161.835627 
L 65.169684 157.622122 
L 65.444629 157.622122 
L 65.444629 144.333376 
L 65.719573 144.333376 
L 65.719573 141.092219 
L 65.994518 141.092219 
L 65.994518 118.728232 
L 66.269462 118.728232 
L 66.269462 111.273569 
L 66.544407 111.273569 
L 66.544407 110.625338 
L 66.819351 110.625338 
L 66.819351 108.356527 
L 67.094296 108.356527 
L 67.094296 98.633055 
L 67.369241 98.633055 
L 67.369241 96.68836 
L 67.644185 96.68836 
L 67.644185 93.771318 
L 67.91913 93.771318 
L 67.91913 93.123087 
L 68.194074 93.123087 
L 68.194074 92.798971 
L 68.469019 92.798971 
L 68.469019 69.138521 
L 68.743963 69.138521 
L 68.743963 66.221479 
L 69.018908 66.221479 
L 69.018908 62.007974 
L 69.293853 62.007974 
L 69.293853 59.090932 
L 69.568797 59.090932 
L 69.568797 57.470354 
L 69.843742 57.470354 
L 69.843742 57.146238 
L 70.118686 57.146238 
L 70.118686 56.498006 
L 70.393631 56.498006 
L 70.393631 55.525659 
L 70.668575 55.525659 
L 70.668575 49.36746 
L 71.218465 49.36746 
L 71.218465 47.422765 
L 71.493409 47.422765 
L 71.493409 47.09865 
L 71.768354 47.09865 
L 71.768354 44.829839 
L 72.043298 44.829839 
L 72.043298 44.505723 
L 72.318243 44.505723 
L 72.318243 41.264566 
L 72.593187 41.264566 
L 72.593187 33.161672 
L 72.868132 33.161672 
L 72.868132 24.734662 
L 73.143076 24.734662 
L 73.143076 23.114084 
L 73.692966 23.114084 
L 73.692966 22.789968 
L 74.517799 22.789968 
L 74.517799 22.141736 
L 75.067688 22.141736 
L 75.067688 21.817621 
L 75.892522 21.817621 
L 75.892522 20.845273 
L 76.717356 20.845273 
L 76.717356 20.521158 
L 77.267245 20.521158 
L 77.267245 20.197042 
L 189.994518 20.197042 
L 189.994518 19.872926 
L 218.038864 19.872926 
L 218.038864 19.54881 
L 236.735094 19.54881 
L 236.735094 19.224695 
L 237.834873 19.224695 
L 237.834873 18.900579 
L 242.233986 18.900579 
L 242.233986 18.576463 
L 246.908043 18.576463 
L 246.908043 18.252347 
L 249.657489 18.252347 
L 249.657489 17.928232 
L 283.750615 17.928232 
L 283.750615 17.604116 
L 288.424673 17.604116 
L 288.424673 17.28 
L 364.584318 17.28 
" style="fill:none;stroke:#63b2ee;stroke-linecap:square;stroke-width:1.5;"/>
   </g>
   <g id="line2d_14">
    <path clip-path="url(#p1b403b59fc)" d="M 60.220682 218.88 
L 60.220682 216.981099 
L 60.499659 216.981099 
L 60.499659 212.866813 
L 60.778635 212.866813 
L 60.778635 206.220659 
L 61.057612 206.220659 
L 61.057612 204.321758 
L 61.336589 204.321758 
L 61.336589 197.675604 
L 62.173519 197.675604 
L 62.173519 194.194286 
L 62.731473 194.194286 
L 62.731473 184.383297 
L 63.010449 184.383297 
L 63.010449 181.218462 
L 63.289426 181.218462 
L 63.289426 178.686593 
L 63.568403 178.686593 
L 63.568403 176.787692 
L 63.84738 176.787692 
L 63.84738 172.04044 
L 64.126356 172.04044 
L 64.126356 171.407473 
L 64.405333 171.407473 
L 64.405333 168.875604 
L 64.68431 168.875604 
L 64.68431 166.343736 
L 64.963287 166.343736 
L 64.963287 160.014066 
L 65.242263 160.014066 
L 65.242263 141.025055 
L 65.52124 141.025055 
L 65.52124 138.493187 
L 65.800217 138.493187 
L 65.800217 134.378901 
L 66.079194 134.378901 
L 66.079194 133.429451 
L 66.35817 133.429451 
L 66.35817 118.554725 
L 66.637147 118.554725 
L 66.637147 107.477802 
L 66.916124 107.477802 
L 66.916124 106.211868 
L 67.195101 106.211868 
L 67.195101 105.578901 
L 67.474077 105.578901 
L 67.474077 83.425055 
L 68.032031 83.425055 
L 68.032031 72.348132 
L 68.311008 72.348132 
L 68.311008 65.701978 
L 68.589984 65.701978 
L 68.589984 48.295385 
L 68.868961 48.295385 
L 68.868961 47.662418 
L 69.147938 47.662418 
L 69.147938 39.75033 
L 69.426915 39.75033 
L 69.426915 37.851429 
L 69.705891 37.851429 
L 69.705891 37.218462 
L 69.984868 37.218462 
L 69.984868 36.269011 
L 70.263845 36.269011 
L 70.263845 35.003077 
L 70.542822 35.003077 
L 70.542822 30.888791 
L 71.100775 30.888791 
L 71.100775 30.255824 
L 71.379752 30.255824 
L 71.379752 29.939341 
L 71.658729 29.939341 
L 71.658729 29.622857 
L 73.053612 29.622857 
L 73.053612 28.98989 
L 73.332589 28.98989 
L 73.332589 28.673407 
L 73.890543 28.673407 
L 73.890543 28.356923 
L 75.285426 28.356923 
L 75.285426 28.04044 
L 75.564403 28.04044 
L 75.564403 27.407473 
L 75.84338 27.407473 
L 75.84338 25.825055 
L 76.122357 25.825055 
L 76.122357 25.192088 
L 76.401333 25.192088 
L 76.401333 24.875604 
L 76.68031 24.875604 
L 76.68031 24.242637 
L 76.959287 24.242637 
L 76.959287 23.926154 
L 77.51724 23.926154 
L 77.51724 23.60967 
L 77.796217 23.60967 
L 77.796217 23.293187 
L 80.585985 23.293187 
L 80.585985 22.976703 
L 81.980868 22.976703 
L 81.980868 22.66022 
L 82.538822 22.66022 
L 82.538822 22.343736 
L 82.817799 22.343736 
L 82.817799 22.027253 
L 83.096775 22.027253 
L 83.096775 21.394286 
L 83.654729 21.394286 
L 83.654729 20.761319 
L 84.491659 20.761319 
L 84.491659 20.444835 
L 86.444497 20.444835 
L 86.444497 19.811868 
L 90.629148 19.811868 
L 90.629148 19.495385 
L 90.908125 19.495385 
L 90.908125 19.178901 
L 92.303008 19.178901 
L 92.303008 18.862418 
L 92.581985 18.862418 
L 92.581985 18.545934 
L 96.48766 18.545934 
L 96.48766 18.229451 
L 169.858545 18.229451 
L 169.858545 17.912967 
L 170.137522 17.912967 
L 170.137522 17.596484 
L 176.275011 17.596484 
L 176.275011 17.28 
L 364.584318 17.28 
L 364.584318 17.28 
" style="fill:none;stroke:#76da91;stroke-linecap:square;stroke-width:1.5;"/>
   </g>
   <g id="line2d_15">
    <path clip-path="url(#p1b403b59fc)" d="M 60.220682 218.88 
L 60.733079 218.88 
L 61.245475 218.88 
L 61.245475 218.32918 
L 62.270269 218.32918 
L 62.270269 165.450492 
L 62.782665 165.450492 
L 62.782665 162.696393 
L 63.295062 162.696393 
L 63.295062 139.011148 
L 63.807459 139.011148 
L 63.807459 134.05377 
L 64.319855 134.05377 
L 64.319855 127.994754 
L 64.832252 127.994754 
L 64.832252 63.548852 
L 65.344649 63.548852 
L 65.344649 59.142295 
L 65.857045 59.142295 
L 65.857045 57.489836 
L 66.369442 57.489836 
L 66.369442 42.066885 
L 67.394236 42.066885 
L 67.394236 41.516066 
L 67.906632 41.516066 
L 67.906632 39.863607 
L 68.931426 39.863607 
L 68.931426 38.761967 
L 69.956219 38.761967 
L 69.956219 37.109508 
L 70.468616 37.109508 
L 70.468616 32.702951 
L 71.493409 32.702951 
L 71.493409 31.601311 
L 72.005806 31.601311 
L 72.005806 27.745574 
L 72.518202 27.745574 
L 72.518202 27.194754 
L 73.542996 27.194754 
L 73.542996 23.339016 
L 75.080186 23.339016 
L 75.080186 22.788197 
L 77.642169 22.788197 
L 77.642169 22.237377 
L 79.17936 22.237377 
L 79.17936 21.135738 
L 83.278533 21.135738 
L 83.278533 20.584918 
L 85.32812 20.584918 
L 85.32812 20.034098 
L 85.840517 20.034098 
L 85.840517 19.483279 
L 86.86531 19.483279 
L 86.86531 18.381639 
L 93.01407 18.381639 
L 93.01407 17.28 
L 364.584318 17.28 
" style="fill:none;stroke:#f8cb7f;stroke-linecap:square;stroke-width:1.5;"/>
   </g>
   <g id="line2d_16">
    <path clip-path="url(#p1b403b59fc)" d="M 60.220682 218.88 
L 60.220682 212.631387 
L 60.501979 212.631387 
L 60.501979 207.698271 
L 60.783276 207.698271 
L 60.783276 207.369396 
L 61.064574 207.369396 
L 61.064574 206.382773 
L 61.345871 206.382773 
L 61.345871 206.053899 
L 61.627168 206.053899 
L 61.627168 200.791909 
L 61.908465 200.791909 
L 61.908465 195.529918 
L 62.752357 195.529918 
L 62.752357 193.556672 
L 63.033654 193.556672 
L 63.033654 187.308059 
L 63.314952 187.308059 
L 63.314952 182.046069 
L 63.596249 182.046069 
L 63.596249 181.717194 
L 63.877546 181.717194 
L 63.877546 179.415073 
L 64.440141 179.415073 
L 64.440141 177.770701 
L 65.002735 177.770701 
L 65.002735 177.441827 
L 65.284033 177.441827 
L 65.284033 173.824209 
L 65.56533 173.824209 
L 65.56533 172.508711 
L 65.846627 172.508711 
L 65.846627 171.522088 
L 66.127924 171.522088 
L 66.127924 168.891093 
L 66.409222 168.891093 
L 66.409222 168.562219 
L 66.690519 168.562219 
L 66.690519 168.233344 
L 67.253113 168.233344 
L 67.253113 167.575595 
L 67.815708 167.575595 
L 67.815708 166.917847 
L 68.378302 166.917847 
L 68.378302 165.931223 
L 68.940897 165.931223 
L 68.940897 164.9446 
L 69.222194 164.9446 
L 69.222194 149.816378 
L 69.503491 149.816378 
L 69.503491 148.172007 
L 69.784789 148.172007 
L 69.784789 147.514258 
L 70.066086 147.514258 
L 70.066086 146.527635 
L 70.347383 146.527635 
L 70.347383 144.883263 
L 70.909978 144.883263 
L 70.909978 144.554388 
L 71.191275 144.554388 
L 71.191275 143.896639 
L 71.472572 143.896639 
L 71.472572 143.238891 
L 72.316464 143.238891 
L 72.316464 141.265644 
L 72.597761 141.265644 
L 72.597761 140.607896 
L 72.879059 140.607896 
L 72.879059 138.634649 
L 73.441653 138.634649 
L 73.441653 136.003654 
L 73.72295 136.003654 
L 73.72295 135.345905 
L 74.004248 135.345905 
L 74.004248 133.372659 
L 74.566842 133.372659 
L 74.566842 132.057162 
L 74.848139 132.057162 
L 74.848139 129.097292 
L 75.410734 129.097292 
L 75.410734 128.768418 
L 75.692031 128.768418 
L 75.692031 128.439543 
L 75.973328 128.439543 
L 75.973328 127.781794 
L 76.535923 127.781794 
L 76.535923 123.835302 
L 76.81722 123.835302 
L 76.81722 122.848679 
L 77.098517 122.848679 
L 77.098517 120.546558 
L 77.379815 120.546558 
L 77.379815 120.217684 
L 77.661112 120.217684 
L 77.661112 119.23106 
L 77.942409 119.23106 
L 77.942409 118.902186 
L 78.223707 118.902186 
L 78.223707 118.573312 
L 78.505004 118.573312 
L 78.505004 117.586688 
L 78.786301 117.586688 
L 78.786301 115.942316 
L 79.067598 115.942316 
L 79.067598 111.009201 
L 79.348896 111.009201 
L 79.348896 110.351452 
L 79.630193 110.351452 
L 79.630193 108.049331 
L 79.91149 108.049331 
L 79.91149 106.733834 
L 80.192787 106.733834 
L 80.192787 106.404959 
L 80.474085 106.404959 
L 80.474085 106.076085 
L 80.755382 106.076085 
L 80.755382 105.74721 
L 81.036679 105.74721 
L 81.036679 103.44509 
L 81.317976 103.44509 
L 81.317976 100.156346 
L 81.599274 100.156346 
L 81.599274 96.538728 
L 82.161868 96.538728 
L 82.161868 96.209853 
L 82.443165 96.209853 
L 82.443165 95.22323 
L 85.537435 95.22323 
L 85.537435 94.565481 
L 86.10003 94.565481 
L 86.10003 93.907732 
L 86.662624 93.907732 
L 86.662624 93.578858 
L 88.350408 93.578858 
L 88.350408 93.249984 
L 88.913002 93.249984 
L 88.913002 92.921109 
L 89.1943 92.921109 
L 89.1943 92.592235 
L 89.475597 92.592235 
L 89.475597 92.263361 
L 89.756894 92.263361 
L 89.756894 91.605612 
L 92.007272 91.605612 
L 92.007272 90.947863 
L 92.851164 90.947863 
L 92.851164 90.618989 
L 95.101542 90.618989 
L 95.101542 90.290114 
L 98.758407 90.290114 
L 98.758407 89.96124 
L 102.133974 89.96124 
L 102.133974 89.632365 
L 105.509541 89.632365 
L 105.509541 89.303491 
L 107.759919 89.303491 
L 107.759919 88.974617 
L 109.729 88.974617 
L 109.729 88.316868 
L 111.979378 88.316868 
L 111.979378 87.987993 
L 113.104567 87.987993 
L 113.104567 87.330245 
L 113.385864 87.330245 
L 113.385864 86.672496 
L 113.667161 86.672496 
L 113.667161 86.014747 
L 113.948459 86.014747 
L 113.948459 85.685873 
L 114.229756 85.685873 
L 114.229756 85.356998 
L 115.073648 85.356998 
L 115.073648 85.028124 
L 116.480134 85.028124 
L 116.480134 84.69925 
L 117.042729 84.69925 
L 117.042729 84.370375 
L 117.324026 84.370375 
L 117.324026 83.383752 
L 118.167918 83.383752 
L 118.167918 83.054878 
L 120.98089 83.054878 
L 120.98089 82.397129 
L 121.824782 82.397129 
L 121.824782 82.068254 
L 122.106079 82.068254 
L 122.106079 81.73938 
L 123.793863 81.73938 
L 123.793863 81.410506 
L 124.356457 81.410506 
L 124.356457 79.108385 
L 124.919052 79.108385 
L 124.919052 78.779511 
L 125.481646 78.779511 
L 125.481646 78.121762 
L 126.606835 78.121762 
L 126.606835 77.792887 
L 127.732024 77.792887 
L 127.732024 76.47739 
L 128.294619 76.47739 
L 128.294619 76.148515 
L 129.419808 76.148515 
L 129.419808 75.819641 
L 130.826294 75.819641 
L 130.826294 75.161892 
L 131.388889 75.161892 
L 131.388889 74.833018 
L 134.201861 74.833018 
L 134.201861 74.504144 
L 134.483159 74.504144 
L 134.483159 74.175269 
L 135.889645 74.175269 
L 135.889645 73.846395 
L 136.733537 73.846395 
L 136.733537 73.51752 
L 144.891157 73.51752 
L 144.891157 73.188646 
L 149.110616 73.188646 
L 149.110616 72.859772 
L 152.204886 72.859772 
L 152.204886 72.530897 
L 152.486183 72.530897 
L 152.486183 72.202023 
L 155.017859 72.202023 
L 155.017859 71.873148 
L 156.98694 71.873148 
L 156.98694 71.544274 
L 167.394938 71.544274 
L 167.394938 71.2154 
L 168.23883 71.2154 
L 168.23883 70.886525 
L 187.367044 70.886525 
L 187.367044 70.557651 
L 190.742611 70.557651 
L 190.742611 70.228777 
L 201.431907 70.228777 
L 201.431907 69.899902 
L 203.11969 69.899902 
L 203.11969 69.571028 
L 216.340662 69.571028 
L 216.340662 69.242153 
L 223.65439 69.242153 
L 223.65439 68.913279 
L 225.904769 68.913279 
L 225.904769 68.584405 
L 228.436444 68.584405 
L 228.436444 68.25553 
L 228.999038 68.25553 
L 228.999038 67.597781 
L 231.249416 67.597781 
L 231.249416 67.268907 
L 234.062389 67.268907 
L 234.062389 66.940033 
L 243.907793 66.940033 
L 243.907793 66.611158 
L 247.28336 66.611158 
L 247.28336 66.282284 
L 256.56617 66.282284 
L 256.56617 65.953409 
L 257.972656 65.953409 
L 257.972656 65.624535 
L 258.816548 65.624535 
L 258.816548 65.295661 
L 264.442493 65.295661 
L 264.442493 64.637912 
L 268.099358 64.637912 
L 268.099358 64.309038 
L 274.0066 64.309038 
L 274.0066 63.980163 
L 274.569195 63.980163 
L 274.569195 63.651289 
L 274.850492 63.651289 
L 274.850492 63.322414 
L 278.507356 63.322414 
L 278.507356 62.99354 
L 278.788654 62.99354 
L 278.788654 62.664666 
L 279.351248 62.664666 
L 279.351248 62.335791 
L 285.539788 62.335791 
L 285.539788 62.006917 
L 286.664977 62.006917 
L 286.664977 61.678042 
L 286.946274 61.678042 
L 286.946274 61.349168 
L 288.634058 61.349168 
L 288.634058 60.691419 
L 290.040544 60.691419 
L 290.040544 60.362545 
L 290.603139 60.362545 
L 290.603139 60.03367 
L 294.260003 60.03367 
L 294.260003 59.375922 
L 294.5413 59.375922 
L 294.5413 59.047047 
L 295.103895 59.047047 
L 295.103895 58.718173 
L 297.072976 58.718173 
L 297.072976 58.389299 
L 297.63557 58.389299 
L 297.63557 58.060424 
L 298.479462 58.060424 
L 298.479462 57.402675 
L 300.167245 57.402675 
L 300.167245 57.073801 
L 301.292434 57.073801 
L 301.292434 56.744927 
L 301.855029 56.744927 
L 301.855029 56.087178 
L 302.417624 56.087178 
L 302.417624 55.758303 
L 302.698921 55.758303 
L 302.698921 55.429429 
L 304.949299 55.429429 
L 304.949299 55.100555 
L 307.762271 55.100555 
L 307.762271 54.77168 
L 310.01265 54.77168 
L 310.01265 53.785057 
L 310.293947 53.785057 
L 310.293947 53.456183 
L 311.137839 53.456183 
L 311.137839 53.127308 
L 312.825622 53.127308 
L 312.825622 52.140685 
L 313.388217 52.140685 
L 313.388217 51.811811 
L 314.232108 51.811811 
L 314.232108 51.482936 
L 315.357298 51.482936 
L 315.357298 51.154062 
L 317.045081 51.154062 
L 317.045081 50.496313 
L 317.326378 50.496313 
L 317.326378 50.167439 
L 318.451567 50.167439 
L 318.451567 49.838564 
L 319.576756 49.838564 
L 319.576756 49.50969 
L 321.26454 49.50969 
L 321.26454 49.180816 
L 321.827135 49.180816 
L 321.827135 48.523067 
L 322.671026 48.523067 
L 322.671026 48.194192 
L 322.952324 48.194192 
L 322.952324 47.865318 
L 323.233621 47.865318 
L 323.233621 47.536444 
L 326.327891 47.536444 
L 326.327891 47.207569 
L 327.45308 47.207569 
L 327.45308 46.878695 
L 330.828647 46.878695 
L 330.828647 46.549821 
L 331.391241 46.549821 
L 331.391241 46.220946 
L 331.953836 46.220946 
L 331.953836 45.892072 
L 332.235133 45.892072 
L 332.235133 45.563197 
L 332.797728 45.563197 
L 332.797728 44.905449 
L 333.079025 44.905449 
L 333.079025 44.576574 
L 333.360322 44.576574 
L 333.360322 43.589951 
L 334.204214 43.589951 
L 334.204214 43.261077 
L 334.766809 43.261077 
L 334.766809 42.932202 
L 335.048106 42.932202 
L 335.048106 42.603328 
L 335.329403 42.603328 
L 335.329403 41.945579 
L 335.6107 41.945579 
L 335.6107 41.616705 
L 335.891998 41.616705 
L 335.891998 40.958956 
L 336.454592 40.958956 
L 336.454592 40.301207 
L 337.017187 40.301207 
L 337.017187 39.643458 
L 337.298484 39.643458 
L 337.298484 39.314584 
L 338.986267 39.314584 
L 338.986267 38.98571 
L 339.267565 38.98571 
L 339.267565 38.327961 
L 339.548862 38.327961 
L 339.548862 34.381468 
L 339.830159 34.381468 
L 339.830159 33.394845 
L 341.236646 33.394845 
L 341.236646 33.065971 
L 341.79924 33.065971 
L 341.79924 32.408222 
L 342.080537 32.408222 
L 342.080537 32.079347 
L 342.643132 32.079347 
L 342.643132 31.421599 
L 343.487024 31.421599 
L 343.487024 31.092724 
L 344.330915 31.092724 
L 344.330915 30.76385 
L 345.456104 30.76385 
L 345.456104 29.777227 
L 346.299996 29.777227 
L 346.299996 29.119478 
L 346.862591 29.119478 
L 346.862591 28.790604 
L 349.112969 28.790604 
L 349.112969 28.461729 
L 349.956861 28.461729 
L 349.956861 28.132855 
L 350.238158 28.132855 
L 350.238158 27.80398 
L 353.895022 27.80398 
L 353.895022 27.146232 
L 354.17632 27.146232 
L 354.17632 26.817357 
L 355.301509 26.817357 
L 355.301509 26.159608 
L 357.833184 26.159608 
L 357.833184 25.830734 
L 358.677076 25.830734 
L 358.677076 24.515237 
L 358.958373 24.515237 
L 358.958373 21.884241 
L 359.23967 21.884241 
L 359.23967 21.555367 
L 359.520967 21.555367 
L 359.520967 21.226493 
L 359.802265 21.226493 
L 359.802265 20.568744 
L 361.208751 20.568744 
L 361.208751 20.239869 
L 361.490048 20.239869 
L 361.490048 19.582121 
L 361.771346 19.582121 
L 361.771346 19.253246 
L 362.33394 19.253246 
L 362.33394 18.595498 
L 363.459129 18.595498 
L 363.459129 17.937749 
L 363.740426 17.937749 
L 363.740426 17.28 
L 364.584318 17.28 
L 364.584318 17.28 
" style="fill:none;stroke:#f89588;stroke-linecap:square;stroke-width:1.5;"/>
   </g>
   <g id="line2d_17">
    <path clip-path="url(#p1b403b59fc)" d="M 60.220682 218.88 
L 60.498639 218.88 
L 60.498639 151.68 
L 60.776597 151.68 
L 60.776597 79.065782 
L 61.054555 79.065782 
L 61.054555 37.344455 
L 61.332512 37.344455 
L 61.332512 36.707488 
L 61.61047 36.707488 
L 61.61047 36.389005 
L 62.722301 36.389005 
L 62.722301 36.070521 
L 63.000258 36.070521 
L 63.000258 33.841137 
L 63.278216 33.841137 
L 63.278216 32.567204 
L 63.556174 32.567204 
L 63.556174 30.656303 
L 63.834131 30.656303 
L 63.834131 30.33782 
L 64.112089 30.33782 
L 64.112089 30.019336 
L 64.390047 30.019336 
L 64.390047 28.426919 
L 64.668004 28.426919 
L 64.668004 25.242085 
L 64.945962 25.242085 
L 64.945962 23.649668 
L 65.22392 23.649668 
L 65.22392 21.420284 
L 65.501877 21.420284 
L 65.501877 21.101801 
L 67.169623 21.101801 
L 67.169623 20.783318 
L 69.393285 20.783318 
L 69.393285 20.464834 
L 70.505115 20.464834 
L 70.505115 20.146351 
L 76.342226 20.146351 
L 76.342226 19.827867 
L 77.732014 19.827867 
L 77.732014 18.872417 
L 78.009972 18.872417 
L 78.009972 18.553934 
L 78.28793 18.553934 
L 78.28793 18.23545 
L 79.955676 18.23545 
L 79.955676 17.916967 
L 84.680956 17.916967 
L 84.680956 17.598483 
L 88.572363 17.598483 
L 88.572363 17.28 
L 364.584318 17.28 
" style="fill:none;stroke:#7cd6cf;stroke-linecap:square;stroke-width:1.5;"/>
   </g>
   <g id="patch_3">
    <path d="M 45.0025 228.96 
L 45.0025 7.2 
" style="fill:none;stroke:#000000;stroke-linecap:square;stroke-linejoin:miter;stroke-width:0.8;"/>
   </g>
   <g id="patch_4">
    <path d="M 379.8025 228.96 
L 379.8025 7.2 
" style="fill:none;stroke:#000000;stroke-linecap:square;stroke-linejoin:miter;stroke-width:0.8;"/>
   </g>
   <g id="patch_5">
    <path d="M 45.0025 228.96 
L 379.8025 228.96 
" style="fill:none;stroke:#000000;stroke-linecap:square;stroke-linejoin:miter;stroke-width:0.8;"/>
   </g>
   <g id="patch_6">
    <path d="M 45.0025 7.2 
L 379.8025 7.2 
" style="fill:none;stroke:#000000;stroke-linecap:square;stroke-linejoin:miter;stroke-width:0.8;"/>
   </g>
   <g id="legend_1">
    <g id="patch_7">
     <path d="M 257.89 224.96 
L 374.2025 224.96 
Q 375.8025 224.96 375.8025 223.36 
L 375.8025 167.60375 
Q 375.8025 166.00375 374.2025 166.00375 
L 257.89 166.00375 
Q 256.29 166.00375 256.29 167.60375 
L 256.29 223.36 
Q 256.29 224.96 257.89 224.96 
z
" style="fill:#ffffff;opacity:0.8;stroke:#cccccc;stroke-linejoin:miter;"/>
    </g>
    <g id="line2d_18">
     <path d="M 259.49 172.00375 
L 275.49 172.00375 
" style="fill:none;stroke:#63b2ee;stroke-linecap:square;stroke-width:1.5;"/>
    </g>
    <g id="line2d_19"/>
    <g id="text_15">
     <!-- Node2vec (AUC = 0.9702) -->
     <g transform="translate(281.89 174.80375)scale(0.08 -0.08)">
      <defs>
       <path d="M -84 4238 
L 1066 4238 
L 3656 1059 
L 3656 3503 
Q 3656 3894 3569 3991 
Q 3453 4122 3203 4122 
L 3056 4122 
L 3056 4238 
L 4531 4238 
L 4531 4122 
L 4381 4122 
Q 4113 4122 4000 3959 
Q 3931 3859 3931 3503 
L 3931 -69 
L 3819 -69 
L 1025 3344 
L 1025 734 
Q 1025 344 1109 247 
Q 1228 116 1475 116 
L 1625 116 
L 1625 0 
L 150 0 
L 150 116 
L 297 116 
Q 569 116 681 278 
Q 750 378 750 734 
L 750 3681 
Q 566 3897 470 3965 
Q 375 4034 191 4094 
Q 100 4122 -84 4122 
L -84 4238 
z
" id="TimesNewRomanPSMT-4e" transform="scale(0.015625)"/>
       <path d="M 2222 322 
Q 2013 103 1813 7 
Q 1613 -88 1381 -88 
Q 913 -88 563 304 
Q 213 697 213 1313 
Q 213 1928 600 2439 
Q 988 2950 1597 2950 
Q 1975 2950 2222 2709 
L 2222 3238 
Q 2222 3728 2198 3840 
Q 2175 3953 2125 3993 
Q 2075 4034 2000 4034 
Q 1919 4034 1784 3984 
L 1744 4094 
L 2597 4444 
L 2738 4444 
L 2738 1134 
Q 2738 631 2761 520 
Q 2784 409 2836 365 
Q 2888 322 2956 322 
Q 3041 322 3181 375 
L 3216 266 
L 2366 -88 
L 2222 -88 
L 2222 322 
z
M 2222 541 
L 2222 2016 
Q 2203 2228 2109 2403 
Q 2016 2578 1861 2667 
Q 1706 2756 1559 2756 
Q 1284 2756 1069 2509 
Q 784 2184 784 1559 
Q 784 928 1059 592 
Q 1334 256 1672 256 
Q 1956 256 2222 541 
z
" id="TimesNewRomanPSMT-64" transform="scale(0.015625)"/>
       <path d="M 2934 816 
L 2638 0 
L 138 0 
L 138 116 
Q 1241 1122 1691 1759 
Q 2141 2397 2141 2925 
Q 2141 3328 1894 3587 
Q 1647 3847 1303 3847 
Q 991 3847 742 3664 
Q 494 3481 375 3128 
L 259 3128 
Q 338 3706 661 4015 
Q 984 4325 1469 4325 
Q 1984 4325 2329 3994 
Q 2675 3663 2675 3213 
Q 2675 2891 2525 2569 
Q 2294 2063 1775 1497 
Q 997 647 803 472 
L 1909 472 
Q 2247 472 2383 497 
Q 2519 522 2628 598 
Q 2738 675 2819 816 
L 2934 816 
z
" id="TimesNewRomanPSMT-32" transform="scale(0.015625)"/>
       <path d="M 2631 1088 
Q 2516 522 2178 217 
Q 1841 -88 1431 -88 
Q 944 -88 581 321 
Q 219 731 219 1428 
Q 219 2103 620 2525 
Q 1022 2947 1584 2947 
Q 2006 2947 2278 2723 
Q 2550 2500 2550 2259 
Q 2550 2141 2473 2067 
Q 2397 1994 2259 1994 
Q 2075 1994 1981 2113 
Q 1928 2178 1911 2362 
Q 1894 2547 1784 2644 
Q 1675 2738 1481 2738 
Q 1169 2738 978 2506 
Q 725 2200 725 1697 
Q 725 1184 976 792 
Q 1228 400 1656 400 
Q 1963 400 2206 609 
Q 2378 753 2541 1131 
L 2631 1088 
z
" id="TimesNewRomanPSMT-63" transform="scale(0.015625)"/>
       <path d="M 1988 -1253 
L 1988 -1369 
Q 1516 -1131 1200 -813 
Q 750 -359 506 256 
Q 263 872 263 1534 
Q 263 2503 741 3301 
Q 1219 4100 1988 4444 
L 1988 4313 
Q 1603 4100 1356 3731 
Q 1109 3363 987 2797 
Q 866 2231 866 1616 
Q 866 947 969 400 
Q 1050 -31 1165 -292 
Q 1281 -553 1476 -793 
Q 1672 -1034 1988 -1253 
z
" id="TimesNewRomanPSMT-28" transform="scale(0.015625)"/>
       <path d="M 2928 1419 
L 1288 1419 
L 1000 750 
Q 894 503 894 381 
Q 894 284 986 211 
Q 1078 138 1384 116 
L 1384 0 
L 50 0 
L 50 116 
Q 316 163 394 238 
Q 553 388 747 847 
L 2238 4334 
L 2347 4334 
L 3822 809 
Q 4000 384 4145 257 
Q 4291 131 4550 116 
L 4550 0 
L 2878 0 
L 2878 116 
Q 3131 128 3220 200 
Q 3309 272 3309 375 
Q 3309 513 3184 809 
L 2928 1419 
z
M 2841 1650 
L 2122 3363 
L 1384 1650 
L 2841 1650 
z
" id="TimesNewRomanPSMT-41" transform="scale(0.015625)"/>
       <path d="M 3053 4122 
L 3053 4238 
L 4553 4238 
L 4553 4122 
L 4394 4122 
Q 4144 4122 4009 3913 
Q 3944 3816 3944 3463 
L 3944 1744 
Q 3944 1106 3817 754 
Q 3691 403 3320 151 
Q 2950 -100 2313 -100 
Q 1619 -100 1259 140 
Q 900 381 750 788 
Q 650 1066 650 1831 
L 650 3488 
Q 650 3878 542 4000 
Q 434 4122 194 4122 
L 34 4122 
L 34 4238 
L 1866 4238 
L 1866 4122 
L 1703 4122 
Q 1441 4122 1328 3956 
Q 1250 3844 1250 3488 
L 1250 1641 
Q 1250 1394 1295 1075 
Q 1341 756 1459 578 
Q 1578 400 1801 284 
Q 2025 169 2350 169 
Q 2766 169 3094 350 
Q 3422 531 3542 814 
Q 3663 1097 3663 1772 
L 3663 3488 
Q 3663 3884 3575 3984 
Q 3453 4122 3213 4122 
L 3053 4122 
z
" id="TimesNewRomanPSMT-55" transform="scale(0.015625)"/>
       <path d="M 3853 4334 
L 3950 2894 
L 3853 2894 
Q 3659 3541 3300 3825 
Q 2941 4109 2438 4109 
Q 2016 4109 1675 3895 
Q 1334 3681 1139 3212 
Q 944 2744 944 2047 
Q 944 1472 1128 1050 
Q 1313 628 1683 403 
Q 2053 178 2528 178 
Q 2941 178 3256 354 
Q 3572 531 3950 1056 
L 4047 994 
Q 3728 428 3303 165 
Q 2878 -97 2294 -97 
Q 1241 -97 663 684 
Q 231 1266 231 2053 
Q 231 2688 515 3219 
Q 800 3750 1298 4042 
Q 1797 4334 2388 4334 
Q 2847 4334 3294 4109 
Q 3425 4041 3481 4041 
Q 3566 4041 3628 4100 
Q 3709 4184 3744 4334 
L 3853 4334 
z
" id="TimesNewRomanPSMT-43" transform="scale(0.015625)"/>
       <path d="M 116 2759 
L 3488 2759 
L 3488 2503 
L 116 2503 
L 116 2759 
z
M 116 1741 
L 3488 1741 
L 3488 1484 
L 116 1484 
L 116 1741 
z
" id="TimesNewRomanPSMT-3d" transform="scale(0.015625)"/>
       <path d="M 231 2094 
Q 231 2819 450 3342 
Q 669 3866 1031 4122 
Q 1313 4325 1613 4325 
Q 2100 4325 2488 3828 
Q 2972 3213 2972 2159 
Q 2972 1422 2759 906 
Q 2547 391 2217 158 
Q 1888 -75 1581 -75 
Q 975 -75 572 641 
Q 231 1244 231 2094 
z
M 844 2016 
Q 844 1141 1059 588 
Q 1238 122 1591 122 
Q 1759 122 1940 273 
Q 2122 425 2216 781 
Q 2359 1319 2359 2297 
Q 2359 3022 2209 3506 
Q 2097 3866 1919 4016 
Q 1791 4119 1609 4119 
Q 1397 4119 1231 3928 
Q 1006 3669 925 3112 
Q 844 2556 844 2016 
z
" id="TimesNewRomanPSMT-30" transform="scale(0.015625)"/>
       <path d="M 800 606 
Q 947 606 1047 504 
Q 1147 403 1147 259 
Q 1147 116 1045 14 
Q 944 -88 800 -88 
Q 656 -88 554 14 
Q 453 116 453 259 
Q 453 406 554 506 
Q 656 606 800 606 
z
" id="TimesNewRomanPSMT-2e" transform="scale(0.015625)"/>
       <path d="M 338 -88 
L 338 28 
Q 744 34 1094 217 
Q 1444 400 1770 856 
Q 2097 1313 2225 1859 
Q 1734 1544 1338 1544 
Q 891 1544 572 1889 
Q 253 2234 253 2806 
Q 253 3363 572 3797 
Q 956 4325 1575 4325 
Q 2097 4325 2469 3894 
Q 2925 3359 2925 2575 
Q 2925 1869 2578 1258 
Q 2231 647 1613 244 
Q 1109 -88 516 -88 
L 338 -88 
z
M 2275 2091 
Q 2331 2497 2331 2741 
Q 2331 3044 2228 3395 
Q 2125 3747 1936 3934 
Q 1747 4122 1506 4122 
Q 1228 4122 1018 3872 
Q 809 3622 809 3128 
Q 809 2469 1088 2097 
Q 1291 1828 1588 1828 
Q 1731 1828 1928 1897 
Q 2125 1966 2275 2091 
z
" id="TimesNewRomanPSMT-39" transform="scale(0.015625)"/>
       <path d="M 644 4238 
L 2916 4238 
L 2916 4119 
L 1503 -88 
L 1153 -88 
L 2419 3728 
L 1253 3728 
Q 900 3728 750 3644 
Q 488 3500 328 3200 
L 238 3234 
L 644 4238 
z
" id="TimesNewRomanPSMT-37" transform="scale(0.015625)"/>
       <path d="M 144 4313 
L 144 4444 
Q 619 4209 934 3891 
Q 1381 3434 1625 2820 
Q 1869 2206 1869 1541 
Q 1869 572 1392 -226 
Q 916 -1025 144 -1369 
L 144 -1253 
Q 528 -1038 776 -670 
Q 1025 -303 1145 264 
Q 1266 831 1266 1447 
Q 1266 2113 1163 2663 
Q 1084 3094 967 3353 
Q 850 3613 656 3853 
Q 463 4094 144 4313 
z
" id="TimesNewRomanPSMT-29" transform="scale(0.015625)"/>
      </defs>
      <use xlink:href="#TimesNewRomanPSMT-4e"/>
      <use x="72.216797" xlink:href="#TimesNewRomanPSMT-6f"/>
      <use x="122.216797" xlink:href="#TimesNewRomanPSMT-64"/>
      <use x="172.216797" xlink:href="#TimesNewRomanPSMT-65"/>
      <use x="216.601562" xlink:href="#TimesNewRomanPSMT-32"/>
      <use x="266.601562" xlink:href="#TimesNewRomanPSMT-76"/>
      <use x="316.601562" xlink:href="#TimesNewRomanPSMT-65"/>
      <use x="360.986328" xlink:href="#TimesNewRomanPSMT-63"/>
      <use x="405.371094" xlink:href="#TimesNewRomanPSMT-20"/>
      <use x="430.371094" xlink:href="#TimesNewRomanPSMT-28"/>
      <use x="463.671875" xlink:href="#TimesNewRomanPSMT-41"/>
      <use x="535.888672" xlink:href="#TimesNewRomanPSMT-55"/>
      <use x="608.105469" xlink:href="#TimesNewRomanPSMT-43"/>
      <use x="674.804688" xlink:href="#TimesNewRomanPSMT-20"/>
      <use x="699.804688" xlink:href="#TimesNewRomanPSMT-3d"/>
      <use x="756.201172" xlink:href="#TimesNewRomanPSMT-20"/>
      <use x="781.201172" xlink:href="#TimesNewRomanPSMT-30"/>
      <use x="831.201172" xlink:href="#TimesNewRomanPSMT-2e"/>
      <use x="856.201172" xlink:href="#TimesNewRomanPSMT-39"/>
      <use x="906.201172" xlink:href="#TimesNewRomanPSMT-37"/>
      <use x="956.201172" xlink:href="#TimesNewRomanPSMT-30"/>
      <use x="1006.201172" xlink:href="#TimesNewRomanPSMT-32"/>
      <use x="1056.201172" xlink:href="#TimesNewRomanPSMT-29"/>
     </g>
    </g>
    <g id="line2d_20">
     <path d="M 259.49 183.315 
L 275.49 183.315 
" style="fill:none;stroke:#76da91;stroke-linecap:square;stroke-width:1.5;"/>
    </g>
    <g id="line2d_21"/>
    <g id="text_16">
     <!-- Struc2vec (AUC = 0.9770) -->
     <g transform="translate(281.89 186.115)scale(0.08 -0.08)">
      <defs>
       <path d="M 2934 4334 
L 2934 2869 
L 2819 2869 
Q 2763 3291 2617 3541 
Q 2472 3791 2203 3937 
Q 1934 4084 1647 4084 
Q 1322 4084 1109 3886 
Q 897 3688 897 3434 
Q 897 3241 1031 3081 
Q 1225 2847 1953 2456 
Q 2547 2138 2764 1967 
Q 2981 1797 3098 1565 
Q 3216 1334 3216 1081 
Q 3216 600 2842 251 
Q 2469 -97 1881 -97 
Q 1697 -97 1534 -69 
Q 1438 -53 1133 45 
Q 828 144 747 144 
Q 669 144 623 97 
Q 578 50 556 -97 
L 441 -97 
L 441 1356 
L 556 1356 
Q 638 900 775 673 
Q 913 447 1195 297 
Q 1478 147 1816 147 
Q 2206 147 2432 353 
Q 2659 559 2659 841 
Q 2659 997 2573 1156 
Q 2488 1316 2306 1453 
Q 2184 1547 1640 1851 
Q 1097 2156 867 2337 
Q 638 2519 519 2737 
Q 400 2956 400 3219 
Q 400 3675 750 4004 
Q 1100 4334 1641 4334 
Q 1978 4334 2356 4169 
Q 2531 4091 2603 4091 
Q 2684 4091 2736 4139 
Q 2788 4188 2819 4334 
L 2934 4334 
z
" id="TimesNewRomanPSMT-53" transform="scale(0.015625)"/>
      </defs>
      <use xlink:href="#TimesNewRomanPSMT-53"/>
      <use x="55.615234" xlink:href="#TimesNewRomanPSMT-74"/>
      <use x="83.398438" xlink:href="#TimesNewRomanPSMT-72"/>
      <use x="116.699219" xlink:href="#TimesNewRomanPSMT-75"/>
      <use x="166.699219" xlink:href="#TimesNewRomanPSMT-63"/>
      <use x="211.083984" xlink:href="#TimesNewRomanPSMT-32"/>
      <use x="261.083984" xlink:href="#TimesNewRomanPSMT-76"/>
      <use x="311.083984" xlink:href="#TimesNewRomanPSMT-65"/>
      <use x="355.46875" xlink:href="#TimesNewRomanPSMT-63"/>
      <use x="399.853516" xlink:href="#TimesNewRomanPSMT-20"/>
      <use x="424.853516" xlink:href="#TimesNewRomanPSMT-28"/>
      <use x="458.154297" xlink:href="#TimesNewRomanPSMT-41"/>
      <use x="530.371094" xlink:href="#TimesNewRomanPSMT-55"/>
      <use x="602.587891" xlink:href="#TimesNewRomanPSMT-43"/>
      <use x="669.287109" xlink:href="#TimesNewRomanPSMT-20"/>
      <use x="694.287109" xlink:href="#TimesNewRomanPSMT-3d"/>
      <use x="750.683594" xlink:href="#TimesNewRomanPSMT-20"/>
      <use x="775.683594" xlink:href="#TimesNewRomanPSMT-30"/>
      <use x="825.683594" xlink:href="#TimesNewRomanPSMT-2e"/>
      <use x="850.683594" xlink:href="#TimesNewRomanPSMT-39"/>
      <use x="900.683594" xlink:href="#TimesNewRomanPSMT-37"/>
      <use x="950.683594" xlink:href="#TimesNewRomanPSMT-37"/>
      <use x="1000.683594" xlink:href="#TimesNewRomanPSMT-30"/>
      <use x="1050.683594" xlink:href="#TimesNewRomanPSMT-29"/>
     </g>
    </g>
    <g id="line2d_22">
     <path d="M 259.49 194.62625 
L 275.49 194.62625 
" style="fill:none;stroke:#f8cb7f;stroke-linecap:square;stroke-width:1.5;"/>
    </g>
    <g id="line2d_23"/>
    <g id="text_17">
     <!-- Bot2vec (AUC = 0.9836) -->
     <g transform="translate(281.89 197.42625)scale(0.08 -0.08)">
      <defs>
       <path d="M 2956 2163 
Q 3397 2069 3616 1863 
Q 3919 1575 3919 1159 
Q 3919 844 3719 555 
Q 3519 266 3170 133 
Q 2822 0 2106 0 
L 106 0 
L 106 116 
L 266 116 
Q 531 116 647 284 
Q 719 394 719 750 
L 719 3488 
Q 719 3881 628 3984 
Q 506 4122 266 4122 
L 106 4122 
L 106 4238 
L 1938 4238 
Q 2450 4238 2759 4163 
Q 3228 4050 3475 3764 
Q 3722 3478 3722 3106 
Q 3722 2788 3528 2536 
Q 3334 2284 2956 2163 
z
M 1319 2331 
Q 1434 2309 1582 2298 
Q 1731 2288 1909 2288 
Q 2366 2288 2595 2386 
Q 2825 2484 2947 2687 
Q 3069 2891 3069 3131 
Q 3069 3503 2766 3765 
Q 2463 4028 1881 4028 
Q 1569 4028 1319 3959 
L 1319 2331 
z
M 1319 306 
Q 1681 222 2034 222 
Q 2600 222 2897 476 
Q 3194 731 3194 1106 
Q 3194 1353 3059 1581 
Q 2925 1809 2622 1940 
Q 2319 2072 1872 2072 
Q 1678 2072 1540 2065 
Q 1403 2059 1319 2044 
L 1319 306 
z
" id="TimesNewRomanPSMT-42" transform="scale(0.015625)"/>
       <path d="M 1228 2134 
Q 725 2547 579 2797 
Q 434 3047 434 3316 
Q 434 3728 753 4026 
Q 1072 4325 1600 4325 
Q 2113 4325 2425 4047 
Q 2738 3769 2738 3413 
Q 2738 3175 2569 2928 
Q 2400 2681 1866 2347 
Q 2416 1922 2594 1678 
Q 2831 1359 2831 1006 
Q 2831 559 2490 242 
Q 2150 -75 1597 -75 
Q 994 -75 656 303 
Q 388 606 388 966 
Q 388 1247 577 1523 
Q 766 1800 1228 2134 
z
M 1719 2469 
Q 2094 2806 2194 3001 
Q 2294 3197 2294 3444 
Q 2294 3772 2109 3958 
Q 1925 4144 1606 4144 
Q 1288 4144 1088 3959 
Q 888 3775 888 3528 
Q 888 3366 970 3203 
Q 1053 3041 1206 2894 
L 1719 2469 
z
M 1375 2016 
Q 1116 1797 991 1539 
Q 866 1281 866 981 
Q 866 578 1086 336 
Q 1306 94 1647 94 
Q 1984 94 2187 284 
Q 2391 475 2391 747 
Q 2391 972 2272 1150 
Q 2050 1481 1375 2016 
z
" id="TimesNewRomanPSMT-38" transform="scale(0.015625)"/>
       <path d="M 325 3431 
Q 506 3859 782 4092 
Q 1059 4325 1472 4325 
Q 1981 4325 2253 3994 
Q 2459 3747 2459 3466 
Q 2459 3003 1878 2509 
Q 2269 2356 2469 2072 
Q 2669 1788 2669 1403 
Q 2669 853 2319 450 
Q 1863 -75 997 -75 
Q 569 -75 414 31 
Q 259 138 259 259 
Q 259 350 332 419 
Q 406 488 509 488 
Q 588 488 669 463 
Q 722 447 909 348 
Q 1097 250 1169 231 
Q 1284 197 1416 197 
Q 1734 197 1970 444 
Q 2206 691 2206 1028 
Q 2206 1275 2097 1509 
Q 2016 1684 1919 1775 
Q 1784 1900 1550 2001 
Q 1316 2103 1072 2103 
L 972 2103 
L 972 2197 
Q 1219 2228 1467 2375 
Q 1716 2522 1828 2728 
Q 1941 2934 1941 3181 
Q 1941 3503 1739 3701 
Q 1538 3900 1238 3900 
Q 753 3900 428 3381 
L 325 3431 
z
" id="TimesNewRomanPSMT-33" transform="scale(0.015625)"/>
       <path d="M 2869 4325 
L 2869 4209 
Q 2456 4169 2195 4045 
Q 1934 3922 1679 3669 
Q 1425 3416 1258 3105 
Q 1091 2794 978 2366 
Q 1428 2675 1881 2675 
Q 2316 2675 2634 2325 
Q 2953 1975 2953 1425 
Q 2953 894 2631 456 
Q 2244 -75 1606 -75 
Q 1172 -75 869 213 
Q 275 772 275 1663 
Q 275 2231 503 2743 
Q 731 3256 1154 3653 
Q 1578 4050 1965 4187 
Q 2353 4325 2688 4325 
L 2869 4325 
z
M 925 2138 
Q 869 1716 869 1456 
Q 869 1156 980 804 
Q 1091 453 1309 247 
Q 1469 100 1697 100 
Q 1969 100 2183 356 
Q 2397 613 2397 1088 
Q 2397 1622 2184 2012 
Q 1972 2403 1581 2403 
Q 1463 2403 1327 2353 
Q 1191 2303 925 2138 
z
" id="TimesNewRomanPSMT-36" transform="scale(0.015625)"/>
      </defs>
      <use xlink:href="#TimesNewRomanPSMT-42"/>
      <use x="66.699219" xlink:href="#TimesNewRomanPSMT-6f"/>
      <use x="116.699219" xlink:href="#TimesNewRomanPSMT-74"/>
      <use x="144.482422" xlink:href="#TimesNewRomanPSMT-32"/>
      <use x="194.482422" xlink:href="#TimesNewRomanPSMT-76"/>
      <use x="244.482422" xlink:href="#TimesNewRomanPSMT-65"/>
      <use x="288.867188" xlink:href="#TimesNewRomanPSMT-63"/>
      <use x="333.251953" xlink:href="#TimesNewRomanPSMT-20"/>
      <use x="358.251953" xlink:href="#TimesNewRomanPSMT-28"/>
      <use x="391.552734" xlink:href="#TimesNewRomanPSMT-41"/>
      <use x="463.769531" xlink:href="#TimesNewRomanPSMT-55"/>
      <use x="535.986328" xlink:href="#TimesNewRomanPSMT-43"/>
      <use x="602.685547" xlink:href="#TimesNewRomanPSMT-20"/>
      <use x="627.685547" xlink:href="#TimesNewRomanPSMT-3d"/>
      <use x="684.082031" xlink:href="#TimesNewRomanPSMT-20"/>
      <use x="709.082031" xlink:href="#TimesNewRomanPSMT-30"/>
      <use x="759.082031" xlink:href="#TimesNewRomanPSMT-2e"/>
      <use x="784.082031" xlink:href="#TimesNewRomanPSMT-39"/>
      <use x="834.082031" xlink:href="#TimesNewRomanPSMT-38"/>
      <use x="884.082031" xlink:href="#TimesNewRomanPSMT-33"/>
      <use x="934.082031" xlink:href="#TimesNewRomanPSMT-36"/>
      <use x="984.082031" xlink:href="#TimesNewRomanPSMT-29"/>
     </g>
    </g>
    <g id="line2d_24">
     <path d="M 259.49 205.9375 
L 275.49 205.9375 
" style="fill:none;stroke:#f89588;stroke-linecap:square;stroke-width:1.5;"/>
    </g>
    <g id="line2d_25"/>
    <g id="text_18">
     <!-- Deepwalk (AUC = 0.7320) -->
     <g transform="translate(281.89 208.7375)scale(0.08 -0.08)">
      <defs>
       <path d="M 109 0 
L 109 116 
L 269 116 
Q 538 116 650 288 
Q 719 391 719 750 
L 719 3488 
Q 719 3884 631 3984 
Q 509 4122 269 4122 
L 109 4122 
L 109 4238 
L 1834 4238 
Q 2784 4238 3279 4022 
Q 3775 3806 4076 3303 
Q 4378 2800 4378 2141 
Q 4378 1256 3841 663 
Q 3238 0 2003 0 
L 109 0 
z
M 1319 306 
Q 1716 219 1984 219 
Q 2709 219 3187 728 
Q 3666 1238 3666 2109 
Q 3666 2988 3187 3494 
Q 2709 4000 1959 4000 
Q 1678 4000 1319 3909 
L 1319 306 
z
" id="TimesNewRomanPSMT-44" transform="scale(0.015625)"/>
       <path d="M -6 2578 
L 875 2934 
L 994 2934 
L 994 2266 
Q 1216 2644 1439 2795 
Q 1663 2947 1909 2947 
Q 2341 2947 2628 2609 
Q 2981 2197 2981 1534 
Q 2981 794 2556 309 
Q 2206 -88 1675 -88 
Q 1444 -88 1275 -22 
Q 1150 25 994 166 
L 994 -706 
Q 994 -1000 1030 -1079 
Q 1066 -1159 1155 -1206 
Q 1244 -1253 1478 -1253 
L 1478 -1369 
L -22 -1369 
L -22 -1253 
L 56 -1253 
Q 228 -1256 350 -1188 
Q 409 -1153 442 -1076 
Q 475 -1000 475 -688 
L 475 2019 
Q 475 2297 450 2372 
Q 425 2447 370 2484 
Q 316 2522 222 2522 
Q 147 2522 31 2478 
L -6 2578 
z
M 994 2081 
L 994 1013 
Q 994 666 1022 556 
Q 1066 375 1236 237 
Q 1406 100 1666 100 
Q 1978 100 2172 344 
Q 2425 663 2425 1241 
Q 2425 1897 2138 2250 
Q 1938 2494 1663 2494 
Q 1513 2494 1366 2419 
Q 1253 2363 994 2081 
z
" id="TimesNewRomanPSMT-70" transform="scale(0.015625)"/>
       <path d="M 41 2863 
L 1241 2863 
L 1241 2747 
Q 1075 2734 1023 2687 
Q 972 2641 972 2553 
Q 972 2456 1025 2319 
L 1638 672 
L 2253 2013 
L 2091 2434 
Q 2016 2622 1894 2694 
Q 1825 2738 1638 2747 
L 1638 2863 
L 3000 2863 
L 3000 2747 
Q 2775 2738 2681 2666 
Q 2619 2616 2619 2506 
Q 2619 2444 2644 2378 
L 3294 734 
L 3897 2319 
Q 3959 2488 3959 2588 
Q 3959 2647 3898 2694 
Q 3838 2741 3659 2747 
L 3659 2863 
L 4563 2863 
L 4563 2747 
Q 4291 2706 4163 2378 
L 3206 -88 
L 3078 -88 
L 2363 1741 
L 1528 -88 
L 1413 -88 
L 494 2319 
Q 403 2547 315 2626 
Q 228 2706 41 2747 
L 41 2863 
z
" id="TimesNewRomanPSMT-77" transform="scale(0.015625)"/>
       <path d="M 1047 4444 
L 1047 1597 
L 1775 2259 
Q 2006 2472 2044 2528 
Q 2069 2566 2069 2603 
Q 2069 2666 2017 2711 
Q 1966 2756 1847 2763 
L 1847 2863 
L 3091 2863 
L 3091 2763 
Q 2834 2756 2664 2684 
Q 2494 2613 2291 2428 
L 1556 1750 
L 2291 822 
Q 2597 438 2703 334 
Q 2853 188 2966 144 
Q 3044 113 3238 113 
L 3238 0 
L 1847 0 
L 1847 113 
Q 1966 116 2008 148 
Q 2050 181 2050 241 
Q 2050 313 1925 472 
L 1047 1594 
L 1047 644 
Q 1047 366 1086 278 
Q 1125 191 1197 153 
Q 1269 116 1509 113 
L 1509 0 
L 53 0 
L 53 113 
Q 272 113 381 166 
Q 447 200 481 272 
Q 528 375 528 628 
L 528 3234 
Q 528 3731 506 3842 
Q 484 3953 434 3995 
Q 384 4038 303 4038 
Q 238 4038 106 3984 
L 53 4094 
L 903 4444 
L 1047 4444 
z
" id="TimesNewRomanPSMT-6b" transform="scale(0.015625)"/>
      </defs>
      <use xlink:href="#TimesNewRomanPSMT-44"/>
      <use x="72.216797" xlink:href="#TimesNewRomanPSMT-65"/>
      <use x="116.601562" xlink:href="#TimesNewRomanPSMT-65"/>
      <use x="160.986328" xlink:href="#TimesNewRomanPSMT-70"/>
      <use x="210.986328" xlink:href="#TimesNewRomanPSMT-77"/>
      <use x="283.203125" xlink:href="#TimesNewRomanPSMT-61"/>
      <use x="327.587891" xlink:href="#TimesNewRomanPSMT-6c"/>
      <use x="355.371094" xlink:href="#TimesNewRomanPSMT-6b"/>
      <use x="405.371094" xlink:href="#TimesNewRomanPSMT-20"/>
      <use x="430.371094" xlink:href="#TimesNewRomanPSMT-28"/>
      <use x="463.671875" xlink:href="#TimesNewRomanPSMT-41"/>
      <use x="535.888672" xlink:href="#TimesNewRomanPSMT-55"/>
      <use x="608.105469" xlink:href="#TimesNewRomanPSMT-43"/>
      <use x="674.804688" xlink:href="#TimesNewRomanPSMT-20"/>
      <use x="699.804688" xlink:href="#TimesNewRomanPSMT-3d"/>
      <use x="756.201172" xlink:href="#TimesNewRomanPSMT-20"/>
      <use x="781.201172" xlink:href="#TimesNewRomanPSMT-30"/>
      <use x="831.201172" xlink:href="#TimesNewRomanPSMT-2e"/>
      <use x="856.201172" xlink:href="#TimesNewRomanPSMT-37"/>
      <use x="906.201172" xlink:href="#TimesNewRomanPSMT-33"/>
      <use x="956.201172" xlink:href="#TimesNewRomanPSMT-32"/>
      <use x="1006.201172" xlink:href="#TimesNewRomanPSMT-30"/>
      <use x="1056.201172" xlink:href="#TimesNewRomanPSMT-29"/>
     </g>
    </g>
    <g id="line2d_26">
     <path d="M 259.49 217.24875 
L 275.49 217.24875 
" style="fill:none;stroke:#7cd6cf;stroke-linecap:square;stroke-width:1.5;"/>
    </g>
    <g id="line2d_27"/>
    <g id="text_19">
     <!-- Accou2vec (AUC = 0.9964) -->
     <g transform="translate(281.89 220.04875)scale(0.08 -0.08)">
      <defs>
       <path d="M 2978 1563 
L 2978 1119 
L 2409 1119 
L 2409 0 
L 1894 0 
L 1894 1119 
L 100 1119 
L 100 1519 
L 2066 4325 
L 2409 4325 
L 2409 1563 
L 2978 1563 
z
M 1894 1563 
L 1894 3666 
L 406 1563 
L 1894 1563 
z
" id="TimesNewRomanPSMT-34" transform="scale(0.015625)"/>
      </defs>
      <use xlink:href="#TimesNewRomanPSMT-41"/>
      <use x="72.216797" xlink:href="#TimesNewRomanPSMT-63"/>
      <use x="116.601562" xlink:href="#TimesNewRomanPSMT-63"/>
      <use x="160.986328" xlink:href="#TimesNewRomanPSMT-6f"/>
      <use x="210.986328" xlink:href="#TimesNewRomanPSMT-75"/>
      <use x="260.986328" xlink:href="#TimesNewRomanPSMT-32"/>
      <use x="310.986328" xlink:href="#TimesNewRomanPSMT-76"/>
      <use x="360.986328" xlink:href="#TimesNewRomanPSMT-65"/>
      <use x="405.371094" xlink:href="#TimesNewRomanPSMT-63"/>
      <use x="449.755859" xlink:href="#TimesNewRomanPSMT-20"/>
      <use x="474.755859" xlink:href="#TimesNewRomanPSMT-28"/>
      <use x="508.056641" xlink:href="#TimesNewRomanPSMT-41"/>
      <use x="580.273438" xlink:href="#TimesNewRomanPSMT-55"/>
      <use x="652.490234" xlink:href="#TimesNewRomanPSMT-43"/>
      <use x="719.189453" xlink:href="#TimesNewRomanPSMT-20"/>
      <use x="744.189453" xlink:href="#TimesNewRomanPSMT-3d"/>
      <use x="800.585938" xlink:href="#TimesNewRomanPSMT-20"/>
      <use x="825.585938" xlink:href="#TimesNewRomanPSMT-30"/>
      <use x="875.585938" xlink:href="#TimesNewRomanPSMT-2e"/>
      <use x="900.585938" xlink:href="#TimesNewRomanPSMT-39"/>
      <use x="950.585938" xlink:href="#TimesNewRomanPSMT-39"/>
      <use x="1000.585938" xlink:href="#TimesNewRomanPSMT-36"/>
      <use x="1050.585938" xlink:href="#TimesNewRomanPSMT-34"/>
      <use x="1100.585938" xlink:href="#TimesNewRomanPSMT-29"/>
     </g>
    </g>
   </g>
  </g>
 </g>
 <defs>
  <clipPath id="p1b403b59fc">
   <rect height="221.76" width="334.8" x="45.0025" y="7.2"/>
  </clipPath>
 </defs>
</svg>
